<svg xmlns="http://www.w3.org/2000/svg" width="46.243" height="46.386" viewBox="0 0 46.243 46.386">
  <g id="Activity" transform="translate(1.5 1.5)">
    <path id="Stroke_1" data-name="Stroke 1" d="M0,11.272,6.762,2.485,14.476,8.54,21.093,0" transform="translate(10.094 16.979)" fill="none" stroke="#98d134" stroke-linecap="round" stroke-linejoin="round" stroke-width="3"/>
    <path id="Stroke_2" data-name="Stroke 2" d="M4.342,0A4.342,4.342,0,1,1,0,4.342,4.341,4.341,0,0,1,4.342,0Z" transform="translate(34.558 0)" fill="none" stroke="#98d134" stroke-linecap="round" stroke-linejoin="round" stroke-width="3"/>
    <path id="Stroke_4" data-name="Stroke 4" d="M41.36,14.044A47.016,47.016,0,0,1,41.8,20.9c0,15.675-5.224,20.9-20.9,20.9S0,36.574,0,20.9,5.226,0,20.9,0a47.291,47.291,0,0,1,6.74.422" transform="translate(0 1.588)" fill="none" stroke="#2554e4" stroke-linecap="round" stroke-linejoin="round" stroke-width="3"/>
  </g>
</svg>
