<svg xmlns="http://www.w3.org/2000/svg" width="95" height="73.802" viewBox="0 0 95 73.802">
  <path id="logo" d="M-1797.232-145.9l1.265-1.056,14.875-1.813-1.851-8.956,2.06-1.59,10.051,9.308-3.663.444,3.663-.444,12.007-1.46,8.37-1.017-.13,4.706-17.091.679,36.985,34.248-3.755,1.9-37.311-35.982-6,.247-.6-2.412,3.859-.469-5.228-5.045,1.369,5.514-2.738.326,2.738-.326.6,2.412,13.454,54.1-7.965-13.676,7.965,13.676-4.837,1.382Zm24.966,39.645-8.37-40.323-14.758.6Zm10.22,9.361,27.6-14.053,3.755-1.9,3.207-1.63-18.773-30.741.613-.43,21.107,29.672-2.947,1.5,2.947-1.5,10.377-5.279,1.161.977-3.429,15.71-5.411-.665,2-4.145,4.615-9.647-8.213,4.6,3.6,5.045-2,4.145-4.588-7.522-2.595,1.447,3.194,2.947-4.472,1.421-2.385-2.308-12.62,7.052,15-4.745,4.472-1.421-.652,5.1-33.792,9.452ZM-1716.429-104.574Zm-34.782-.887c-1.121-.456-2.5-1.93-4.211-3.481q-.2-.175-.43-.391l-.43.391c-1.708,1.552-3.1,3.011-4.211,3.481a1.637,1.637,0,0,1-.665.157,1.178,1.178,0,0,1-.859-.379.794.794,0,0,1-.2-.547,1.329,1.329,0,0,1,.026-.221.871.871,0,0,1,.665-.652.968.968,0,0,1,.2-.026.872.872,0,0,1,.717.364,40.066,40.066,0,0,0,3.924-3.3,16.921,16.921,0,0,0-3.781-2.477,9.683,9.683,0,0,0-3.181-.873c-.274-.026-.535-.04-.8-.04a9.254,9.254,0,0,0-2.79.43h-.013a.042.042,0,0,1-.04-.039c0-.014,0-.026.013-.026a8.075,8.075,0,0,1,3.611-.991,3.665,3.665,0,0,1,.378-.013,10.5,10.5,0,0,1,6.583,2.621,31.048,31.048,0,0,0,.392-5.071c0-1.707-.117-3.128-.2-4.055a2.555,2.555,0,0,0-.991,2.282,4.667,4.667,0,0,0,.261,1.63,4.145,4.145,0,0,1-1.03-2.725,4.18,4.18,0,0,1,.508-2.021,3.729,3.729,0,0,0-1.421,3.077c0,.247.014.469.026.664a3.908,3.908,0,0,1-.443-1.8,4.107,4.107,0,0,1,1.526-3.1,3.22,3.22,0,0,0-2.4,3.168v.065a3.781,3.781,0,0,1-.183-1.134,2.921,2.921,0,0,1,.183-1.043,3.261,3.261,0,0,1,2.452-1.956c-.183-.013-.353-.026-.522-.026a2.792,2.792,0,0,0-1.916.653,2.109,2.109,0,0,0-.482.587,2.037,2.037,0,0,1,.482-1.213,2.815,2.815,0,0,1,2.111-.913,2.377,2.377,0,0,1,.926.17,1.9,1.9,0,0,0-1.6-.808,1.806,1.806,0,0,0-.743.143,2.156,2.156,0,0,1,1.617-.8,1.938,1.938,0,0,1,1.616.926,3.148,3.148,0,0,0,.274-.508,5.021,5.021,0,0,0,.313-1.03.06.06,0,0,1,.065-.051.071.071,0,0,1,.078.051,5.214,5.214,0,0,0,.313,1.03,4.517,4.517,0,0,0,.247.508,1.985,1.985,0,0,1,1.656-.939,2.183,2.183,0,0,1,1.616.782,2.029,2.029,0,0,0-.73-.131,1.958,1.958,0,0,0-1.643.8,2.581,2.581,0,0,1,.913-.157,2.816,2.816,0,0,1,2.138.925,2.177,2.177,0,0,1,.495,1.187,3.335,3.335,0,0,0-.495-.561,2.972,2.972,0,0,0-1.994-.665c-.144,0-.3.013-.456.026a3.36,3.36,0,0,1,2.451,1.982,2.8,2.8,0,0,1,.2,1.082,4.432,4.432,0,0,1-.157,1.108.072.072,0,0,1-.025-.065,3.265,3.265,0,0,0-2.386-3.181,4.144,4.144,0,0,1,1.5,3.129,3.968,3.968,0,0,1-.417,1.786c.013-.169.026-.365.026-.586a3.86,3.86,0,0,0-1.421-3.181,4.507,4.507,0,0,1,.5,2.047,4.124,4.124,0,0,1-1.017,2.725,5.148,5.148,0,0,0,.248-1.63,2.6,2.6,0,0,0-.978-2.294c-.077.925-.208,2.372-.208,4.107a30.422,30.422,0,0,0,.391,5.018,10.553,10.553,0,0,1,6.583-2.62c.13,0,.248.013.378.013a8.739,8.739,0,0,1,3.65.978c.014.013.014.013.014.026a.035.035,0,0,1-.04.039h-.013a9.733,9.733,0,0,0-2.79-.43c-.261,0-.535.013-.8.04a9.661,9.661,0,0,0-3.181.873,16.465,16.465,0,0,0-3.781,2.477,39.857,39.857,0,0,0,3.924,3.3.872.872,0,0,1,.717-.364.969.969,0,0,1,.2.026.871.871,0,0,1,.665.652,1.329,1.329,0,0,1,.026.221.8.8,0,0,1-.2.547,1.182,1.182,0,0,1-.86.379A1.64,1.64,0,0,1-1751.211-105.46ZM-1808-141.728l21.8-21.981,1.277-1.291,4.028,1.46,30.442,11.056-8.37,1.017-23.792-10.638-24.926,20.729Z" transform="translate(1808 165)" fill="#fff"/>
</svg>
