<svg xmlns="http://www.w3.org/2000/svg" width="62.14" height="62.203" viewBox="0 0 62.14 62.203">
  <g id="Iconly_Curved_Activity" data-name="Iconly/Curved/Activity" transform="translate(2 2)">
    <g id="Activity">
      <path id="Stroke_1" data-name="Stroke 1" d="M0,15.121,9.092,3.334l10.371,8.123L28.36,0" transform="translate(13.571 22.777)" fill="none" stroke="#12368e" stroke-linecap="round" stroke-linejoin="round" stroke-width="4"/>
      <path id="Stroke_2" data-name="Stroke 2" d="M5.838,0A5.825,5.825,0,1,1,0,5.825,5.83,5.83,0,0,1,5.838,0Z" transform="translate(46.463)" fill="none" stroke="#12368e" stroke-linecap="round" stroke-linejoin="round" stroke-width="4"/>
      <path id="Stroke_4" data-name="Stroke 4" d="M55.607,18.84a62.935,62.935,0,0,1,.589,9.2c0,21.029-7.023,28.036-28.1,28.036S0,49.065,0,28.036,7.026,0,28.1,0A63.721,63.721,0,0,1,37.16.567" transform="translate(0 2.131)" fill="none" stroke="#12368e" stroke-linecap="round" stroke-linejoin="round" stroke-width="4"/>
    </g>
  </g>
</svg>
