<svg xmlns="http://www.w3.org/2000/svg" width="1920" height="342.798" viewBox="0 0 1920 342.798">
  <g id="shape" transform="translate(-113 487)">
    <path id="Path_3181" data-name="Path 3181" d="M1920,132.343C1470.341,3.293,751.934-87.258,0,251.13v75.027H1920Z" transform="translate(113 -487)" fill="#fff" opacity="0.2"/>
    <path id="Path_3182" data-name="Path 3182" d="M1920,22.74c-164.863-35.148-247.085-31.5-645.434,105.635-405.033,139.44-404.682,49.483-815.09-56.551C139.6-10.818,31.938-3.028,0,4.23V338.541l1920,4.235Z" transform="translate(113 -487)" fill="#fff" opacity="0.35"/>
    <path id="Path_3183" data-name="Path 3183" d="M1920,232.6c-412.815,133.419-619.787,90.545-862.146,20.488C441.106,74.8,69.742,183.256,0,207.4V342.8l1920-.174Z" transform="translate(113 -487)" fill="#fff"/>
  </g>
</svg>
