<?xml version="1.0" standalone="no"?>
<!DOCTYPE svg PUBLIC "-//W3C//DTD SVG 1.1//EN" "http://www.w3.org/Graphics/SVG/1.1/DTD/svg11.dtd" >
<svg xmlns="http://www.w3.org/2000/svg" xmlns:xlink="http://www.w3.org/1999/xlink" version="1.1">
<metadata>
Created by FontForge 20170731 at Mon Jun 14 03:09:05 2021
 By Aleksey,,,
Copyright (c) 2017 by 29Letters. All rights reserved.
</metadata>
<defs>
<font id="29LTBukra-Lt" horiz-adv-x="0" >
  <font-face 
    font-family="29LT Bukra Lt"
    font-weight="300"
    font-stretch="normal"
    units-per-em="2048"
    panose-1="0 0 4 0 0 0 0 0 0 0"
    ascent="1638"
    descent="-410"
    x-height="1122"
    cap-height="1661"
    bbox="-1669 -918 3938 2218"
    underline-thickness="102"
    underline-position="-307"
    unicode-range="U+000D-FEFC"
  />
<missing-glyph horiz-adv-x="1024" 
 />
    <glyph glyph-name="fi" unicode="fi" horiz-adv-x="1245" 
d="M1049 1122v-1122h-144v987h-473v-987h-143v987h-228v135h228v166q0 109 26.5 182.5t82.5 115t132 58.5t187 17h325v-133h-329q-150 0 -215.5 -59.5t-65.5 -213.5v-133h617z" />
    <glyph glyph-name="fl" unicode="fl" horiz-adv-x="1312" 
d="M1118 1661v-1661h-143v1528h-275q-139 0 -204.5 -59t-65.5 -203v-144h424v-133h-424v-989h-141v989h-230v133h230v166q0 108 26 181t82 115t132.5 59.5t187.5 17.5h401z" />
    <glyph glyph-name="uniFEF5" unicode="&#xfedf;&#xfe82;" horiz-adv-x="1382" arabic-form="isolated" 
d="M88 0l-27 141h578q199 0 307.5 91t108.5 262v1318h141v-1308q0 -250 -145 -377t-424 -127h-539zM326 1540v96h358v-96h-358zM434 303v1135h141v-1135h-141z" />
    <glyph glyph-name="uniFEF6" unicode="&#xfee0;&#xfe82;" horiz-adv-x="1513" arabic-form="final" 
d="M1196 508q0 -367 358 -367v-141q-162 0 -269 64.5t-142 183.5q-124 -248 -516 -248h-539l-27 141h578q199 0 307.5 91t108.5 262v1318h141v-1304zM684 1636v-96h-358v96h358zM575 303h-141v1135h141v-1135z" />
    <glyph glyph-name="uniFEF7" unicode="&#xfedf;&#xfe84;" horiz-adv-x="1382" arabic-form="isolated" 
d="M356 1612v129q0 97 51 154t146 57h33v-82h-39q-103 0 -103 -123v-47h209v-88h-297zM88 0l-27 141h578q199 0 307.5 91t108.5 262v1318h141v-1308q0 -250 -145 -377t-424 -127h-539zM434 303v1135h141v-1135h-141z" />
    <glyph glyph-name="uniFEF8" unicode="&#xfee0;&#xfe84;" horiz-adv-x="1513" arabic-form="final" 
d="M653 1700v-88h-297v129q0 97 51 154t146 57h33v-82h-39q-103 0 -103 -123v-47h209zM1196 508q0 -367 358 -367v-141q-162 0 -269 64.5t-142 183.5q-124 -248 -516 -248h-539l-27 141h578q199 0 307.5 91t108.5 262v1318h141v-1304zM575 303h-141v1135h141v-1135z" />
    <glyph glyph-name="uniFEF9" unicode="&#xfedf;&#xfe88;" horiz-adv-x="1382" arabic-form="isolated" 
d="M88 0l-27 141h578q199 0 307.5 91t108.5 262v1318h141v-1308q0 -250 -145 -377t-424 -127h-539zM434 303v1135h141v-1135h-141zM365 -483v129q0 96 51 153.5t145 57.5h45v-82h-51q-102 0 -102 -123v-49h221v-86h-309z" />
    <glyph glyph-name="uniFEFA" unicode="&#xfee0;&#xfe88;" horiz-adv-x="1513" arabic-form="final" 
d="M1196 508q0 -367 358 -367v-141q-162 0 -269 64.5t-142 183.5q-124 -248 -516 -248h-539l-27 141h578q199 0 307.5 91t108.5 262v1318h141v-1304zM575 1438v-1135h-141v1135h141zM453 -348v-49h221v-86h-309v129q0 96 51 153.5t145 57.5h45v-82h-51q-102 0 -102 -123z
" />
    <glyph glyph-name="uniFEFB" unicode="&#xfedf;&#xfe8e;" horiz-adv-x="1382" arabic-form="isolated" 
d="M88 0l-27 141h578q199 0 307.5 91t108.5 262v1318h141v-1308q0 -250 -145 -377t-424 -127h-539zM434 303v1135h141v-1135h-141z" />
    <glyph glyph-name="uniFEFC" unicode="&#xfee0;&#xfe8e;" horiz-adv-x="1513" arabic-form="final" 
d="M1196 508q0 -367 358 -367v-141q-162 0 -269 64.5t-142 183.5q-124 -248 -516 -248h-539l-27 141h578q199 0 307.5 91t108.5 262v1318h141v-1304zM575 1438v-1135h-141v1135h141z" />
    <glyph glyph-name="T_T.liga" unicode="TT" horiz-adv-x="2512" 
d="M2454 1661v-133h-562v-1528h-143v1528h-983v-1528h-143v1528h-564v133h2395z" />
    <glyph glyph-name="f_b.liga" unicode="fb" horiz-adv-x="2121" 
d="M1378 1145q290 0 462.5 -155t172.5 -431v-2q0 -271 -168.5 -429.5t-466.5 -158.5q-194 0 -403 64v1495h-275q-139 0 -204.5 -59t-65.5 -203v-144h424v-133h-424v-989h-141v989h-230v133h230v166q0 108 26 181t82 115t132.5 59.5t187.5 17.5h401v-543q152 27 260 27z
M1874 557v2q0 206 -129.5 330.5t-360.5 124.5q-123 0 -266 -35v-850q128 -29 266 -29q225 0 357.5 121t132.5 336z" />
    <glyph glyph-name="f_h.liga" unicode="fh" horiz-adv-x="2123" 
d="M1929 -2h-143v711q0 159 -86 229t-248 70q-138 0 -334 -33v-975h-143v1528h-275q-139 0 -204.5 -59t-65.5 -203v-144h424v-133h-424v-989h-141v989h-230v133h230v166q0 108 26 181t82 115t132.5 59.5t187.5 17.5h401v-545q229 31 344 31q465 0 465 -412q0 -123 1 -368.5
t1 -368.5z" />
    <glyph glyph-name="f_k.liga" unicode="fk" horiz-adv-x="1912" 
d="M1878 0h-188l-572 549v-549h-143v1528h-275q-139 0 -204.5 -59t-65.5 -203v-144h424v-133h-424v-989h-141v989h-230v133h230v166q0 108 26 181t82 115t132.5 59.5t187.5 17.5h401v-1092l539 553h172l-539 -553z" />
    <glyph glyph-name="f_t.liga" unicode="ft" horiz-adv-x="1722" 
d="M1470 133h172v-133h-215q-112 0 -187.5 21.5t-119 67.5t-62 108.5t-18.5 152.5v641h-88v-2h-522v-989h-141v989h-230v133h230v150q0 108 26 181t82 115t132.5 59.5t187.5 17.5h129v-134h-146q-139 0 -204.5 -59t-65.5 -203v-127h610v414h142v-414h458v-131h-458v-598
q0 -147 69.5 -203.5t218.5 -56.5z" />
    <glyph glyph-name="uni067E067E.init" unicode="&#xfb58;&#xfb59;" horiz-adv-x="1718" 
d="M0 0v141h330v981h141v-981h963v981h141v-1122h-1575zM356 -381q0 -51 -34.5 -82t-85.5 -31q-49 0 -84 31t-35 82q0 49 34 81t85 32t85.5 -32t34.5 -81zM580 -268q51 0 84.5 -32t33.5 -81q0 -51 -34.5 -82t-83.5 -31q-51 0 -86 31t-35 82q0 49 35 81t86 32zM1272 -381
q0 -51 -35 -82t-86 -31q-49 0 -84 31t-35 82q0 49 34 81t85 32t86 -32t35 -81zM1495 -268q51 0 85 -32t34 -81q0 -51 -35 -82t-84 -31q-51 0 -86 31t-35 82q0 49 35 81t86 32zM410 -530q46 0 78 -30.5t32 -74.5q0 -46 -32 -75t-78 -29t-78.5 29t-32.5 75q0 44 32 74.5
t79 30.5zM1325 -530q46 0 78.5 -30.5t32.5 -74.5q0 -46 -32.5 -75t-78.5 -29t-78.5 29t-32.5 75q0 44 32 74.5t79 30.5z" />
    <glyph glyph-name="uni06440671" unicode="&#xfedf;&#xfb51;" horiz-adv-x="1382" 
d="M297 1530v125q0 182 199 182h18q201 0 201 -182v-125h-418zM88 0l-27 141h578q199 0 307.5 91t108.5 262v1318h141v-1308q0 -250 -145 -377t-424 -127h-539zM399 1616h213v45q0 94 -100 94h-16q-97 0 -97 -94v-45zM434 303v1135h141v-1135h-141z" />
    <glyph glyph-name="uni06440671.fina" unicode="&#xfee0;&#xfb51;" horiz-adv-x="1513" 
d="M715 1655v-125h-418v125q0 182 199 182h18q201 0 201 -182zM1196 508q0 -367 358 -367v-141q-162 0 -269 64.5t-142 183.5q-124 -248 -516 -248h-539l-27 141h578q199 0 307.5 91t108.5 262v1318h141v-1304zM612 1616v45q0 94 -100 94h-16q-97 0 -97 -94v-45h213z
M575 303h-141v1135h141v-1135z" />
    <glyph glyph-name="uniFC5A.init" unicode="&#xfbfe;&#xfbff;" horiz-adv-x="1718" 
d="M0 0v141h330v981h141v-981h963v981h141v-1122h-1575zM229 -246q52 0 87.5 -33t35.5 -83q0 -51 -36 -83t-87 -32q-52 0 -87.5 32t-35.5 83t35 83.5t88 32.5zM578 -246q52 0 87 -33t35 -83q0 -51 -35.5 -83t-86.5 -32q-52 0 -87.5 32t-35.5 83t35 83.5t88 32.5zM1145 -246
q52 0 87.5 -33t35.5 -83q0 -51 -36 -83t-87 -32q-52 0 -87.5 32t-35.5 83t35 83.5t88 32.5zM1493 -246q52 0 87.5 -33t35.5 -83q0 -51 -36 -83t-87 -32q-52 0 -87.5 32t-35.5 83t35 83.5t88 32.5z" />
    <glyph glyph-name="uni066E.init" unicode="&#x66e;" horiz-adv-x="501" 
d="M0 0v141h217v981h141v-1122h-358z" />
    <glyph glyph-name="uni066E.medi" unicode="&#x66e;" horiz-adv-x="575" 
d="M358 141h258v-141h-616v141h217v981h141v-981z" />
    <glyph glyph-name="uni066E.fina" unicode="&#x66e;" horiz-adv-x="1662" 
d="M1446 141h258v-141h-1006q-579 0 -579 541v393h139v-379q0 -414 469 -414h578v981h141v-981z" />
    <glyph glyph-name="uni066F.fina" unicode="&#x66f;" horiz-adv-x="1751" 
d="M1792 141v-141h-258v-451h-836q-579 0 -579 541v469h139v-455q0 -413 469 -413h666v329h-146q-283 0 -454.5 144.5t-171.5 390.5v2q0 255 176.5 410t466.5 155h270v-981h258zM1237 141h156v840h-156q-216 0 -348.5 -115.5t-132.5 -308.5v-2q0 -187 133 -300.5t348 -113.5
z" />
    <glyph glyph-name="uni06A1.init" unicode="&#x6a1;" horiz-adv-x="1234" 
d="M821 1122h271v-1122h-9h-278h-805v141h365q-187 154 -187 414v2q0 255 176.5 410t466.5 155zM795 141h155v840h-155q-216 0 -349 -115.5t-133 -308.5v-2q0 -187 133.5 -300.5t348.5 -113.5z" />
    <glyph glyph-name="uni06A1.medi" unicode="&#x6a1;" horiz-adv-x="1308" 
d="M1092 141h258v-141h-267h-12h-266h-805v141h365q-187 154 -187 414v2q0 255 176.5 410t466.5 155h271v-981zM795 141h155v840h-155q-216 0 -349 -115.5t-133 -308.5v-2q0 -187 133.5 -300.5t348.5 -113.5z" />
    <glyph glyph-name="uni06A1.fina" unicode="&#x6a1;" horiz-adv-x="2064" 
d="M1847 141h258v-141h-266h-12h-266h-863q-579 0 -579 541v393h139v-379q0 -414 469 -414h393q-186 153 -186 414v2q0 255 176.5 410t466.5 155h270v-981zM1550 141h156v840h-156q-216 0 -348.5 -115.5t-132.5 -308.5v-2q0 -187 133 -300.5t348 -113.5z" />
    <glyph glyph-name="uni06C2.fina" unicode="&#x6c2;" horiz-adv-x="1150" 
d="M815 1384v-110h-405v223q0 103 56 159t159 56h108v-86h-100q-129 0 -129 -125v-117h311zM934 141h258v-141h-399v989h-218q-146 0 -224.5 -87.5t-76.5 -229.5l2 -342h-141l-2 321q-1 230 122 350.5t343 120.5h336v-981z" />
    <glyph glyph-name="uni06C3.fina" unicode="&#x6c3;" horiz-adv-x="1150" 
d="M438 1370q-52 0 -87.5 32t-35.5 85q0 51 35 83t88 32q52 0 87.5 -32.5t35.5 -82.5q0 -52 -36 -84.5t-87 -32.5zM786 1370q-52 0 -87 32t-35 85q0 51 34.5 83t87.5 32q52 0 87.5 -32.5t35.5 -82.5q0 -52 -36 -84.5t-87 -32.5zM934 141h258v-141h-399v989h-218
q-146 0 -224.5 -87.5t-76.5 -229.5l2 -342h-141l-2 321q-1 230 122 350.5t343 120.5h336v-981z" />
    <glyph glyph-name="uni06D5.fina" unicode="&#x6d5;" horiz-adv-x="1243" 
d="M1026 141h258v-141h-399h-146q-282 0 -454 152.5t-172 402.5v2q0 255 176.5 410t466.5 155h129v103h141v-1084zM885 141v840h-156q-216 0 -348.5 -115.5t-132.5 -308.5v-2q0 -187 133 -300.5t348 -113.5h156z" />
    <glyph glyph-name="uniFB51" unicode="&#x671;" horiz-adv-x="655" arabic-form="final" 
d="M467 1632v-125h-418v125q0 183 199 183h18q99 0 150 -46.5t51 -136.5zM365 1593v45q0 95 -101 95h-16q-96 0 -96 -95v-45h213zM328 141h368v-141h-510v1415h142v-1274z" />
    <glyph glyph-name="uniFB57" unicode="&#x67e;" horiz-adv-x="1662" arabic-form="final" 
d="M1446 141h258v-141h-1006q-579 0 -579 541v393h139v-379q0 -414 469 -414h578v981h141v-981zM825 -381q0 -51 -34.5 -82t-85.5 -31q-49 0 -84 31t-35 82q0 49 34 81t85 32t85.5 -32t34.5 -81zM1049 -268q51 0 84.5 -32t33.5 -81q0 -51 -34.5 -82t-83.5 -31q-51 0 -86 31
t-35 82q0 49 35 81t86 32zM879 -530q46 0 78 -30.5t32 -74.5q0 -46 -32 -75t-78 -29t-78.5 29t-32.5 75q0 44 32 74.5t79 30.5z" />
    <glyph glyph-name="uniFB58" unicode="&#x67e;" horiz-adv-x="679" arabic-form="initial" 
d="M0 0v141h395v981h142v-1122h-537zM113 -494q-49 0 -84 31t-35 82q0 49 34 81t85 32t85.5 -32t34.5 -81q0 -51 -34.5 -82t-85.5 -31zM457 -494q-51 0 -86 31t-35 82q0 49 35 81t86 32t84.5 -32t33.5 -81q0 -51 -34.5 -82t-83.5 -31zM287 -739q-46 0 -78.5 29t-32.5 75
q0 44 32 74.5t79 30.5q46 0 78 -30.5t32 -74.5q0 -46 -32 -75t-78 -29z" />
    <glyph glyph-name="uniFB59" unicode="&#x67e;" horiz-adv-x="800" arabic-form="medial" 
d="M842 141v-141h-842v141h330v981h141v-981h371zM356 -381q0 -51 -34.5 -82t-85.5 -31q-49 0 -84 31t-35 82q0 49 34 81t85 32t85.5 -32t34.5 -81zM580 -268q51 0 84.5 -32t33.5 -81q0 -51 -34.5 -82t-83.5 -31q-51 0 -86 31t-35 82q0 49 35 81t86 32zM410 -530
q46 0 78 -30.5t32 -74.5q0 -46 -32 -75t-78 -29t-78.5 29t-32.5 75q0 44 32 74.5t79 30.5z" />
    <glyph glyph-name="uniFB67" unicode="&#x679;" horiz-adv-x="1662" arabic-form="final" 
d="M1014 1319v-125h-424v393h106v-94h133q86 0 135.5 -46t49.5 -128zM905 1280v51q0 80 -86 80h-123v-131h209zM1446 141h258v-141h-1006q-579 0 -579 541v393h139v-379q0 -414 469 -414h578v981h141v-981z" />
    <glyph glyph-name="uniFB68" unicode="&#x679;" horiz-adv-x="733" arabic-form="initial" 
d="M279 1290v393h106v-94h133q86 0 135 -46t49 -128v-125h-423zM385 1376h209v51q0 80 -86 80h-123v-131zM0 0v141h395v981h142v-1122h-537z" />
    <glyph glyph-name="uniFB69" unicode="&#x679;" horiz-adv-x="800" arabic-form="medial" 
d="M616 1423v-125h-423v394h106v-95h133q86 0 135 -46t49 -128zM508 1384v52q0 80 -86 80h-123v-132h209zM842 141v-141h-842v141h330v981h141v-981h371z" />
    <glyph glyph-name="uniFB6B" unicode="&#x6a4;" horiz-adv-x="2064" arabic-form="final" 
d="M1485 1628q-46 0 -78.5 29.5t-32.5 77.5q0 44 32 73t79 29q46 0 78 -29t32 -73q0 -48 -32 -77.5t-78 -29.5zM1311 1368q-49 0 -84 31t-35 82q0 49 34 80.5t85 31.5q52 0 86.5 -31.5t34.5 -80.5q0 -51 -35 -82t-86 -31zM1534 1481q0 49 34.5 80.5t86.5 31.5q51 0 85 -31.5
t34 -80.5q0 -51 -35 -82t-84 -31q-51 0 -86 31t-35 82zM1847 141h258v-141h-266h-12h-266h-863q-579 0 -579 541v393h139v-379q0 -414 469 -414h393q-186 153 -186 414v2q0 255 176.5 410t466.5 155h270v-981zM1550 141h156v840h-156q-216 0 -348.5 -115.5t-132.5 -308.5v-2
q0 -187 133 -300.5t348 -113.5z" />
    <glyph glyph-name="uniFB6C" unicode="&#x6a4;" horiz-adv-x="1234" arabic-form="initial" 
d="M829 1628q-46 0 -78 29.5t-32 77.5q0 44 31.5 73t78.5 29q46 0 78.5 -29t32.5 -73q0 -48 -32.5 -77.5t-78.5 -29.5zM655 1368q-49 0 -83.5 31t-34.5 82q0 49 33.5 80.5t84.5 31.5q52 0 86.5 -31.5t34.5 -80.5q0 -51 -35 -82t-86 -31zM879 1481q0 49 34.5 80.5t85.5 31.5
t85 -31.5t34 -80.5q0 -51 -35 -82t-84 -31q-51 0 -85.5 31t-34.5 82zM178 557q0 255 176.5 410t466.5 155h271v-1122h-9h-278h-805v141h365q-187 154 -187 414v2zM950 141v840h-155q-216 0 -349 -115.5t-133 -308.5v-2q0 -187 133.5 -300.5t348.5 -113.5h155z" />
    <glyph glyph-name="uniFB6D" unicode="&#x6a4;" horiz-adv-x="1308" arabic-form="medial" 
d="M829 1628q-46 0 -78 29.5t-32 77.5q0 44 31.5 73t78.5 29q46 0 78.5 -29t32.5 -73q0 -48 -32.5 -77.5t-78.5 -29.5zM655 1368q-49 0 -83.5 31t-34.5 82q0 49 33.5 80.5t84.5 31.5q52 0 86.5 -31.5t34.5 -80.5q0 -51 -35 -82t-86 -31zM879 1481q0 49 34.5 80.5t85.5 31.5
t85 -31.5t34 -80.5q0 -51 -35 -82t-84 -31q-51 0 -85.5 31t-34.5 82zM1092 141h258v-141h-267h-12h-266h-805v141h365q-187 154 -187 414v2q0 255 176.5 410t466.5 155h271v-981zM795 141h155v840h-155q-216 0 -349 -115.5t-133 -308.5v-2q0 -187 133.5 -300.5t348.5 -113.5
z" />
    <glyph glyph-name="uniFB7B" unicode="&#x686;" horiz-adv-x="1347" arabic-form="final" 
d="M1124 141h265v-141h-814q-120 0 -198 -47t-139 -152l-76 -120l-111 77l88 140q79 129 177.5 186t246.5 57h420q53 217 53 422q0 204 -105.5 320t-291.5 116q-91 0 -164.5 -21t-171.5 -77l-51 127q117 61 207.5 88t189.5 27q250 0 386 -155.5t136 -432.5q0 -179 -47 -414z
M707 -389q0 -51 -35 -82t-86 -31q-49 0 -84 31t-35 82q0 49 34 81t85 32t86 -32t35 -81zM930 -276q51 0 85 -32t34 -81q0 -51 -35 -82t-84 -31q-51 0 -86 31t-35 82q0 49 35 81t86 32zM760 -539q46 0 78 -30t32 -74q0 -46 -32 -75.5t-78 -29.5t-78.5 29.5t-32.5 75.5
q0 44 32 74t79 30z" />
    <glyph glyph-name="uniFB7C" unicode="&#x686;" horiz-adv-x="1159" arabic-form="initial" 
d="M518 1143q250 0 386 -155.5t136 -432.5q0 -124 -22.5 -276.5t-56.5 -278.5h-961v141h852q53 217 53 422q0 204 -105.5 320t-291.5 116q-91 0 -164.5 -21t-171.5 -77l-51 127q117 61 207.5 88t189.5 27zM494 -381q0 -51 -35 -82t-86 -31q-49 0 -84 31t-35 82q0 49 34 81
t85 32t86 -32t35 -81zM717 -268q51 0 85 -32t34 -81q0 -51 -35 -82t-84 -31q-51 0 -86 31t-35 82q0 49 35 81t86 32zM547 -530q46 0 78 -30.5t32 -74.5q0 -46 -32 -75t-78 -29t-78.5 29t-32.5 75q0 44 32 74.5t79 30.5z" />
    <glyph glyph-name="uniFB7D" unicode="&#x686;" horiz-adv-x="1216" arabic-form="medial" 
d="M993 141h264v-141h-1257v141h852q53 217 53 422q0 204 -105.5 320t-291.5 116q-91 0 -164.5 -21t-171.5 -77l-51 127q117 61 207.5 88t189.5 27q250 0 386 -155.5t136 -432.5q0 -179 -47 -414zM494 -381q0 -51 -35 -82t-86 -31q-49 0 -84 31t-35 82q0 49 34 81t85 32
t86 -32t35 -81zM717 -268q51 0 85 -32t34 -81q0 -51 -35 -82t-84 -31q-51 0 -86 31t-35 82q0 49 35 81t86 32zM547 -530q46 0 78 -30.5t32 -74.5q0 -46 -32 -75t-78 -29t-78.5 29t-32.5 75q0 44 32 74.5t79 30.5z" />
    <glyph glyph-name="uniFB89" unicode="&#x688;" horiz-adv-x="1165" arabic-form="final" 
d="M717 1423v-125h-424v394h106v-95h133q86 0 135.5 -46t49.5 -128zM608 1384v52q0 80 -86 80h-123v-132h209zM948 141h258v-141h-1145v141h754v510q0 330 -321 330h-70v141h51q473 0 473 -477v-504z" />
    <glyph glyph-name="uniFB8B" unicode="&#x698;" horiz-adv-x="673" arabic-form="final" 
d="M391 1628q-46 0 -78 29.5t-32 77.5q0 44 31.5 73t78.5 29q46 0 78.5 -29t32.5 -73q0 -48 -32.5 -77.5t-78.5 -29.5zM217 1368q-49 0 -84 31t-35 82q0 49 34 80.5t85 31.5q52 0 86.5 -31.5t34.5 -80.5q0 -51 -35 -82t-86 -31zM440 1481q0 49 34.5 80.5t86.5 31.5
q51 0 85 -31.5t34 -80.5q0 -51 -35 -82t-84 -31q-51 0 -86 31t-35 82zM715 141v-141h-254v-68q0 -143 -38.5 -228.5t-109.5 -120t-186 -34.5q-68 0 -154 21l-10 123q85 -15 152 -15q101 0 154 55t53 179v1210h139v-981h254z" />
    <glyph glyph-name="uniFB8D" unicode="&#x691;" horiz-adv-x="673" arabic-form="final" 
d="M602 1423v-125h-424v394h107v-95h133q86 0 135 -46t49 -128zM494 1384v52q0 80 -86 80h-123v-132h209zM715 141v-141h-254v-68q0 -143 -38.5 -228.5t-109.5 -120t-186 -34.5q-68 0 -154 21l-10 123q85 -15 152 -15q101 0 154 55t53 179v1210h139v-981h254z" />
    <glyph glyph-name="uniFB8F" unicode="&#x6a9;" horiz-adv-x="1892" arabic-form="final" 
d="M1675 141h258v-141h-1235q-579 0 -579 541v393h139v-379q0 -414 469 -414h805v412q0 162 -82.5 240.5t-235.5 78.5h-471q-48 63 -53 142l330 649h172l-342 -649h352q473 0 473 -477v-396z" />
    <glyph glyph-name="uniFB90" unicode="&#x6a9;" horiz-adv-x="1320" arabic-form="initial" 
d="M0 0v141h1055v412q0 319 -316 319h-561q-47 58 -53 142l330 647h172l-342 -647h440q473 0 473 -477v-537h-1198z" />
    <glyph glyph-name="uniFB91" unicode="&#x6a9;" horiz-adv-x="1415" arabic-form="medial" 
d="M1198 141h258v-141h-1456v141h1055v412q0 319 -316 319h-561q-47 58 -53 142l330 647h172l-342 -647h440q473 0 473 -477v-396z" />
    <glyph glyph-name="uniFB93" unicode="&#x6af;" horiz-adv-x="1892" arabic-form="final" 
d="M1675 141h258v-141h-1235q-579 0 -579 541v393h139v-379q0 -414 469 -414h805v412q0 162 -82.5 240.5t-235.5 78.5h-471q-48 63 -53 142l330 649h172l-342 -649h352q473 0 473 -477v-396zM834 1663l-342 -659h-144l344 659h142z" />
    <glyph glyph-name="uniFB94" unicode="&#x6af;" horiz-adv-x="1533" arabic-form="initial" 
d="M481 1663l-342 -659h-143l344 659h141zM940 1014q473 0 473 -477v-537h-1413v141h1270v412q0 319 -316 319h-561q-47 58 -53 142l330 647h172l-342 -647h440z" />
    <glyph glyph-name="uniFB95" unicode="&#x6af;" horiz-adv-x="1630" arabic-form="medial" 
d="M481 1663l-342 -659h-143l344 659h141zM1413 141h258v-141h-1671v141h1270v412q0 319 -316 319h-561q-47 58 -53 142l330 647h172l-342 -647h440q473 0 473 -477v-396z" />
    <glyph glyph-name="uniFB9F" unicode="&#x6ba;" horiz-adv-x="1347" arabic-form="final" 
d="M1389 141v-141h-259v-256h-432q-285 0 -432 137t-147 400v700h141v-684q0 -412 461 -412h270v1096h139v-840h259z" />
    <glyph glyph-name="uniFBA5" unicode="&#x6c0;" horiz-adv-x="1243" arabic-form="final" 
d="M1038 1454v-111h-405v224q0 103 56 159t159 56h108v-86h-100q-129 0 -129 -125v-117h311zM1026 141h258v-141h-399h-146q-282 0 -454 152.5t-172 402.5v2q0 255 176.5 410t466.5 155h129v103h141v-1084zM885 141v840h-156q-216 0 -348.5 -115.5t-132.5 -308.5v-2
q0 -187 133 -300.5t348 -113.5h156z" />
    <glyph glyph-name="uniFBA7" unicode="&#x6c1;" horiz-adv-x="1150" arabic-form="final" 
d="M934 141h258v-141h-399v989h-218q-146 0 -224.5 -87.5t-76.5 -229.5l2 -342h-141l-2 321q-1 230 122 350.5t343 120.5h336v-981z" />
    <glyph glyph-name="uniFBA8" unicode="&#x6c1;" horiz-adv-x="679" arabic-form="initial" 
d="M0 0v141h395v981h142v-1122h-537zM336 -455l-107 4l105 359l149 -4z" />
    <glyph glyph-name="uniFBA9" unicode="&#x6c1;" horiz-adv-x="1445" arabic-form="medial" 
d="M606 -451q-193 0 -305 100t-119 292v59h-182v141h176v592h141v-786q0 -151 75 -228t216 -77h203v499h676v-141h-537v-451h-344zM1190 -455l-107 4l105 359l147 -4z" />
    <glyph glyph-name="uniFBAB" unicode="&#x6be;" horiz-adv-x="1835" arabic-form="final" 
d="M1579 141h297v-141h-1815l31 141h268q-32 128 -32 258q0 219 120 353.5t310 134.5q189 0 307.5 -133.5t118.5 -350.5q0 -127 -33 -262h285q32 222 32 359q0 335 -175.5 516.5t-477.5 181.5q-127 0 -240.5 -31t-238.5 -98l-51 127q289 145 551 145q171 0 313.5 -55
t245.5 -158.5t160 -261.5t57 -356q0 -158 -33 -369zM756 743q-129 0 -208 -98.5t-79 -259.5q0 -123 31 -244h514q28 109 28 244q0 161 -78.5 259.5t-207.5 98.5z" />
    <glyph glyph-name="uniFBAC" unicode="&#x6be;" horiz-adv-x="1636" arabic-form="initial" 
d="M743 1341q171 0 313.5 -55t245.5 -158.5t160.5 -261.5t57.5 -356q0 -200 -56 -510h-1464v141h268q-32 128 -32 258q0 219 120 353.5t310 134.5q189 0 307.5 -133.5t118.5 -350.5q0 -127 -33 -262h284q33 229 33 359q0 335 -175.5 516.5t-477.5 181.5q-127 0 -240.5 -31
t-238.5 -98l-51 127q289 145 550 145zM377 385q0 -123 31 -244h514q28 109 28 244q0 161 -78.5 259.5t-207.5 98.5t-208 -98.5t-79 -259.5z" />
    <glyph glyph-name="uniFBAD" unicode="&#x6be;" horiz-adv-x="1742" arabic-form="medial" 
d="M1487 141h297v-141h-1784v141h268q-32 128 -32 258q0 219 120 353.5t310 134.5q189 0 307.5 -133.5t118.5 -350.5q0 -127 -33 -262h284q33 229 33 359q0 335 -175.5 516.5t-477.5 181.5q-127 0 -240.5 -31t-238.5 -98l-51 127q289 145 550 145q171 0 313.5 -55
t245.5 -158.5t160.5 -261.5t57.5 -356q0 -158 -33 -369zM377 385q0 -123 31 -244h514q28 109 28 244q0 161 -78.5 259.5t-207.5 98.5t-208 -98.5t-79 -259.5z" />
    <glyph glyph-name="uniFBAF" unicode="&#x6d2;" horiz-adv-x="1439" arabic-form="final" 
d="M500 -451q-225 0 -332 81t-107 268v243h1420v-141h-1278v-111q0 -111 64 -154.5t202 -43.5h621v-142h-590z" />
    <glyph glyph-name="uniFBB1" unicode="&#x6d3;" horiz-adv-x="1439" arabic-form="final" 
d="M500 373v223q0 103 56 159t159 56h108v-86h-100q-129 0 -129 -125v-117h311v-110h-405zM500 -451q-225 0 -332 81t-107 268v243h1420v-141h-1278v-111q0 -111 64 -154.5t202 -43.5h621v-142h-590z" />
    <glyph glyph-name="uniFBFD" unicode="&#x6cc;" horiz-adv-x="2131" arabic-form="final" 
d="M1915 141h258v-141h-397v987h-240q-146 0 -224.5 -87t-76.5 -228v-928h-537q-579 0 -579 541v469h139v-455q0 -414 469 -414h367v766q-1 231 121 351t341 120h359v-981z" />
    <glyph glyph-name="uniFBFE" unicode="&#x6cc;" horiz-adv-x="679" arabic-form="initial" 
d="M0 0v141h395v981h142v-1122h-537zM106 -477q-52 0 -87 32t-35 83t34.5 83.5t87.5 32.5q52 0 87.5 -33t35.5 -83q0 -51 -36 -83t-87 -32zM455 -477q-52 0 -87.5 32t-35.5 83t35 83.5t88 32.5q52 0 87.5 -33t35.5 -83q0 -51 -36 -83t-87 -32z" />
    <glyph glyph-name="uniFBFF" unicode="&#x6cc;" horiz-adv-x="800" arabic-form="medial" 
d="M842 141v-141h-842v141h330v981h141v-981h371zM229 -246q52 0 87.5 -33t35.5 -83q0 -51 -36 -83t-87 -32q-52 0 -87.5 32t-35.5 83t35 83.5t88 32.5zM578 -246q52 0 87 -33t35 -83q0 -51 -35.5 -83t-86.5 -32q-52 0 -87.5 32t-35.5 83t35 83.5t88 32.5z" />
    <glyph glyph-name="uniFC64" unicode="&#xfc64;" horiz-adv-x="1421" arabic-form="final" 
d="M1149 1630v-88h-297v129q0 97 51 154t146 57h32v-82h-39q-102 0 -102 -123v-47h209zM1417 143h45v-143h-45q-239 0 -364 128.5t-125 375.5v477h-467v-1049q0 -143 -38.5 -228.5t-109.5 -120t-186 -34.5q-68 0 -154 21l-10 123q85 -15 152 -15q101 0 154 55t53 179v1210
h606v246h141v-870q0 -175 88 -265t260 -90z" />
    <glyph glyph-name="uniFC65" unicode="&#xfc65;" horiz-adv-x="1421" arabic-form="final" 
d="M1149 1630v-88h-297v129q0 97 51 154t146 57h32v-82h-39q-102 0 -102 -123v-47h209zM383 1382q-52 0 -88.5 32t-36.5 85q0 51 36.5 84t88.5 33t87.5 -32.5t35.5 -84.5q0 -53 -36.5 -85t-86.5 -32zM1417 143h45v-143h-45q-239 0 -364 128.5t-125 375.5v477h-467v-1049
q0 -143 -38.5 -228.5t-109.5 -120t-186 -34.5q-68 0 -154 21l-10 123q85 -15 152 -15q101 0 154 55t53 179v1210h606v246h141v-870q0 -175 88 -265t260 -90z" />
    <glyph glyph-name="uniFC67" unicode="&#xfc67;" horiz-adv-x="2109" arabic-form="final" 
d="M1837 1489v-88h-297v129q0 97 51 154t146 57h32v-82h-38q-103 0 -103 -123v-47h209zM631 1241q-52 0 -88.5 32t-36.5 85q0 51 36.5 84t88.5 33t87.5 -32.5t35.5 -84.5q0 -53 -36.5 -85t-86.5 -32zM2107 143h43v-143h-43q-241 0 -365 128t-124 376v338h-488v-1098h-432
q-285 0 -432 137t-147 400v700h141v-684q0 -412 461 -412h270v1096h627v246h141v-729q0 -175 88 -265t260 -90z" />
    <glyph glyph-name="uniFC68" unicode="&#xfc68;" horiz-adv-x="2328" arabic-form="final" 
d="M2056 1630v-88h-297v129q0 97 51 154t146 57h33v-82h-39q-103 0 -103 -123v-47h209zM2324 143h46v-143h-46q-239 0 -364 128.5t-125 375.5v483h-276q-157 0 -240.5 -92.5t-83.5 -245.5v-905h-537q-579 0 -579 541v469h139v-455q0 -414 469 -414h367v766q0 231 121.5 351
t340.5 120h279v246h141v-870q0 -175 88 -265t260 -90z" />
    <glyph glyph-name="uniFC69" unicode="&#xfc69;" horiz-adv-x="2328" arabic-form="final" 
d="M2056 1630v-88h-297v129q0 97 51 154t146 57h33v-82h-39q-103 0 -103 -123v-47h209zM2324 143h46v-143h-46q-239 0 -364 128.5t-125 375.5v483h-276q-157 0 -240.5 -92.5t-83.5 -245.5v-905h-537q-579 0 -579 541v469h139v-455q0 -414 469 -414h367v766q0 231 121.5 351
t340.5 120h279v246h141v-870q0 -175 88 -265t260 -90zM651 -502q52 0 87.5 -33t35.5 -83q0 -51 -36 -83t-87 -32q-52 0 -87.5 32t-35.5 83t35 83.5t88 32.5zM999 -502q52 0 87.5 -33t35.5 -83q0 -51 -36 -83t-87 -32q-52 0 -87 32t-35 83t34.5 83.5t87.5 32.5z" />
    <glyph glyph-name="uniFC6A" unicode="&#xfc6a;" horiz-adv-x="1421" arabic-form="final" 
d="M1417 143h45v-143h-45q-239 0 -364 128.5t-125 375.5v477h-467v-1049q0 -143 -38.5 -228.5t-109.5 -120t-186 -34.5q-68 0 -154 21l-10 123q85 -15 152 -15q101 0 154 55t53 179v1210h606v246h141v-870q0 -175 88 -265t260 -90zM797 -246q52 0 87.5 -32.5t35.5 -83.5
q0 -53 -36.5 -85t-86.5 -32q-52 0 -88.5 32t-36.5 85q0 51 36.5 83.5t88.5 32.5z" />
    <glyph glyph-name="uniFC6B" unicode="&#xfc6b;" horiz-adv-x="1421" arabic-form="final" 
d="M391 1382q-52 0 -88.5 32t-36.5 85q0 51 36.5 84t88.5 33t87.5 -32.5t35.5 -84.5q0 -53 -36.5 -85t-86.5 -32zM1417 143h45v-143h-45q-239 0 -364 128.5t-125 375.5v477h-467v-1049q0 -143 -38.5 -228.5t-109.5 -120t-186 -34.5q-68 0 -154 21l-10 123q85 -15 152 -15
q101 0 154 55t53 179v1210h606v246h141v-870q0 -175 88 -265t260 -90zM797 -246q52 0 87.5 -32.5t35.5 -83.5q0 -53 -36.5 -85t-86.5 -32q-52 0 -88.5 32t-36.5 85q0 51 36.5 83.5t88.5 32.5z" />
    <glyph glyph-name="uniFC6D" unicode="&#xfc6d;" horiz-adv-x="2109" arabic-form="final" 
d="M631 1241q-52 0 -88.5 32t-36.5 85q0 51 36.5 84t88.5 33t87.5 -32.5t35.5 -84.5q0 -53 -36.5 -85t-86.5 -32zM2107 143h43v-143h-43q-241 0 -365 128t-124 376v338h-488v-1098h-432q-285 0 -432 137t-147 400v700h141v-684q0 -412 461 -412h270v1096h627v246h141v-729
q0 -175 88 -265t260 -90zM1505 -246q52 0 87.5 -32.5t35.5 -83.5q0 -53 -36.5 -85t-86.5 -32q-52 0 -88.5 32t-36.5 85q0 51 36.5 83.5t88.5 32.5z" />
    <glyph glyph-name="uniFC6E" unicode="&#xfc6e;" horiz-adv-x="2328" arabic-form="final" 
d="M2324 143h46v-143h-46q-239 0 -364 128.5t-125 375.5v483h-276q-157 0 -240.5 -92.5t-83.5 -245.5v-905h-537q-579 0 -579 541v469h139v-455q0 -414 469 -414h367v766q0 231 121.5 351t340.5 120h279v246h141v-870q0 -175 88 -265t260 -90zM1642 -246q52 0 87.5 -32.5
t35.5 -83.5q0 -53 -36.5 -85t-86.5 -32q-52 0 -88 31.5t-36 85.5q0 51 36 83.5t88 32.5z" />
    <glyph glyph-name="uniFC6F" unicode="&#xfc6f;" horiz-adv-x="2328" arabic-form="final" 
d="M2324 143h46v-143h-46q-239 0 -364 128.5t-125 375.5v483h-276q-157 0 -240.5 -92.5t-83.5 -245.5v-905h-537q-579 0 -579 541v469h139v-455q0 -414 469 -414h367v766q0 231 121.5 351t340.5 120h279v246h141v-870q0 -175 88 -265t260 -90zM1642 -246q52 0 87.5 -32.5
t35.5 -83.5q0 -53 -36.5 -85t-86.5 -32q-52 0 -88 31.5t-36 85.5q0 51 36 83.5t88 32.5zM651 -502q52 0 87.5 -33t35.5 -83q0 -51 -36 -83t-87 -32q-52 0 -87.5 32t-35.5 83t35 83.5t88 32.5zM999 -502q52 0 87.5 -33t35.5 -83q0 -51 -36 -83t-87 -32q-52 0 -87 32t-35 83
t34.5 83.5t87.5 32.5z" />
    <glyph glyph-name="uniFC70" unicode="&#xfc70;" horiz-adv-x="1421" arabic-form="final" 
d="M827 1614q-52 0 -87 32t-35 85q0 51 34.5 82.5t87.5 31.5q52 0 87.5 -32t35.5 -82q0 -52 -36 -84.5t-87 -32.5zM1176 1614q-52 0 -87.5 32t-35.5 85q0 50 35 82t88 32q52 0 87 -32t35 -82q0 -53 -35.5 -85t-86.5 -32zM1417 143h45v-143h-45q-239 0 -364 128.5t-125 375.5
v477h-467v-1049q0 -143 -38.5 -228.5t-109.5 -120t-186 -34.5q-68 0 -154 21l-10 123q85 -15 152 -15q101 0 154 55t53 179v1210h606v246h141v-870q0 -175 88 -265t260 -90z" />
    <glyph glyph-name="uniFC71" unicode="&#xfc71;" horiz-adv-x="1421" arabic-form="final" 
d="M827 1614q-52 0 -87 32t-35 85q0 51 34.5 82.5t87.5 31.5q52 0 87.5 -32t35.5 -82q0 -52 -36 -84.5t-87 -32.5zM1176 1614q-52 0 -87.5 32t-35.5 85q0 50 35 82t88 32q52 0 87 -32t35 -82q0 -53 -35.5 -85t-86.5 -32zM383 1382q-52 0 -88.5 32t-36.5 85q0 51 36.5 84
t88.5 33t87.5 -32.5t35.5 -84.5q0 -53 -36.5 -85t-86.5 -32zM1417 143h45v-143h-45q-239 0 -364 128.5t-125 375.5v477h-467v-1049q0 -143 -38.5 -228.5t-109.5 -120t-186 -34.5q-68 0 -154 21l-10 123q85 -15 152 -15q101 0 154 55t53 179v1210h606v246h141v-870
q0 -175 88 -265t260 -90z" />
    <glyph glyph-name="uniFC73" unicode="&#xfc73;" horiz-adv-x="2109" arabic-form="final" 
d="M1516 1473q-53 0 -88 31.5t-35 84.5q0 51 35 83t88 32q52 0 87 -32.5t35 -82.5q0 -52 -35.5 -84t-86.5 -32zM1864 1473q-53 0 -88 31.5t-35 84.5q0 51 35 83t88 32q52 0 87.5 -32.5t35.5 -82.5q0 -52 -36 -84t-87 -32zM631 1241q-52 0 -88.5 32t-36.5 85q0 51 36.5 84
t88.5 33t87.5 -32.5t35.5 -84.5q0 -53 -36.5 -85t-86.5 -32zM2107 143h43v-143h-43q-241 0 -365 128t-124 376v338h-488v-1098h-432q-285 0 -432 137t-147 400v700h141v-684q0 -412 461 -412h270v1096h627v246h141v-729q0 -175 88 -265t260 -90z" />
    <glyph glyph-name="uniFC74" unicode="&#xfc74;" horiz-adv-x="2328" arabic-form="final" 
d="M1735 1614q-52 0 -87.5 32t-35.5 85q0 50 35 82t88 32q52 0 87.5 -32t35.5 -82q0 -52 -36 -84.5t-87 -32.5zM2083 1614q-52 0 -87.5 32t-35.5 85q0 50 35 82t88 32q52 0 87.5 -32t35.5 -82q0 -52 -36 -84.5t-87 -32.5zM2324 143h46v-143h-46q-239 0 -364 128.5
t-125 375.5v483h-276q-157 0 -240.5 -92.5t-83.5 -245.5v-905h-537q-579 0 -579 541v469h139v-455q0 -414 469 -414h367v766q0 231 121.5 351t340.5 120h279v246h141v-870q0 -175 88 -265t260 -90z" />
    <glyph glyph-name="uniFC75" unicode="&#xfc75;" horiz-adv-x="2328" arabic-form="final" 
d="M1735 1614q-52 0 -87.5 32t-35.5 85q0 50 35 82t88 32q52 0 87.5 -32t35.5 -82q0 -52 -36 -84.5t-87 -32.5zM2083 1614q-52 0 -87.5 32t-35.5 85q0 50 35 82t88 32q52 0 87.5 -32t35.5 -82q0 -52 -36 -84.5t-87 -32.5zM2324 143h46v-143h-46q-239 0 -364 128.5
t-125 375.5v483h-276q-157 0 -240.5 -92.5t-83.5 -245.5v-905h-537q-579 0 -579 541v469h139v-455q0 -414 469 -414h367v766q0 231 121.5 351t340.5 120h279v246h141v-870q0 -175 88 -265t260 -90zM651 -502q52 0 87.5 -33t35.5 -83q0 -51 -36 -83t-87 -32q-52 0 -87.5 32
t-35.5 83t35 83.5t88 32.5zM999 -502q52 0 87.5 -33t35.5 -83q0 -51 -36 -83t-87 -32q-52 0 -87 32t-35 83t34.5 83.5t87.5 32.5z" />
    <glyph glyph-name="uniFC76" unicode="&#xfc76;" horiz-adv-x="1421" arabic-form="final" 
d="M1001 1874q-46 0 -78 29t-32 77q0 44 31.5 73.5t78.5 29.5q46 0 78.5 -29.5t32.5 -73.5q0 -48 -32.5 -77t-78.5 -29zM827 1614q-49 0 -83.5 30.5t-34.5 81.5q0 49 33.5 81t84.5 32t86 -32t35 -81q0 -51 -35 -81.5t-86 -30.5zM1051 1726q0 49 34.5 81t85.5 32t85 -32
t34 -81q0 -51 -35 -81.5t-84 -30.5q-51 0 -85.5 30.5t-34.5 81.5zM1417 143h45v-143h-45q-239 0 -364 128.5t-125 375.5v477h-467v-1049q0 -143 -38.5 -228.5t-109.5 -120t-186 -34.5q-68 0 -154 21l-10 123q85 -15 152 -15q101 0 154 55t53 179v1210h606v246h141v-870
q0 -175 88 -265t260 -90z" />
    <glyph glyph-name="uniFC77" unicode="&#xfc77;" horiz-adv-x="1421" arabic-form="final" 
d="M1001 1874q-46 0 -78 29t-32 77q0 44 31.5 73.5t78.5 29.5q46 0 78.5 -29.5t32.5 -73.5q0 -48 -32.5 -77t-78.5 -29zM827 1614q-49 0 -83.5 30.5t-34.5 81.5q0 49 33.5 81t84.5 32t86 -32t35 -81q0 -51 -35 -81.5t-86 -30.5zM1051 1726q0 49 34.5 81t85.5 32t85 -32
t34 -81q0 -51 -35 -81.5t-84 -30.5q-51 0 -85.5 30.5t-34.5 81.5zM383 1382q-52 0 -88.5 32t-36.5 85q0 51 36.5 84t88.5 33t87.5 -32.5t35.5 -84.5q0 -53 -36.5 -85t-86.5 -32zM1417 143h45v-143h-45q-239 0 -364 128.5t-125 375.5v477h-467v-1049q0 -143 -38.5 -228.5
t-109.5 -120t-186 -34.5q-68 0 -154 21l-10 123q85 -15 152 -15q101 0 154 55t53 179v1210h606v246h141v-870q0 -175 88 -265t260 -90z" />
    <glyph glyph-name="uniFC79" unicode="&#xfc79;" horiz-adv-x="2109" arabic-form="final" 
d="M1690 1733q-46 0 -78.5 29t-32.5 77q0 44 32 73.5t79 29.5q46 0 78 -29.5t32 -73.5q0 -48 -32 -77t-78 -29zM1516 1473q-49 0 -84 30.5t-35 81.5q0 49 34 81t85 32t85.5 -32t34.5 -81q0 -51 -34.5 -81.5t-85.5 -30.5zM1739 1585q0 49 35 81t86 32t84.5 -32t33.5 -81
q0 -51 -34.5 -81.5t-83.5 -30.5q-51 0 -86 30.5t-35 81.5zM631 1241q-52 0 -88.5 32t-36.5 85q0 51 36.5 84t88.5 33t87.5 -32.5t35.5 -84.5q0 -53 -36.5 -85t-86.5 -32zM2107 143h43v-143h-43q-241 0 -365 128t-124 376v338h-488v-1098h-432q-285 0 -432 137t-147 400v700
h141v-684q0 -412 461 -412h270v1096h627v246h141v-729q0 -175 88 -265t260 -90z" />
    <glyph glyph-name="uniFC7A" unicode="&#xfc7a;" horiz-adv-x="2328" arabic-form="final" 
d="M1909 1874q-46 0 -78.5 29t-32.5 77q0 44 32 73.5t79 29.5q46 0 78 -29.5t32 -73.5q0 -48 -32 -77t-78 -29zM1735 1614q-49 0 -84 30.5t-35 81.5q0 49 34 81t85 32t85.5 -32t34.5 -81q0 -51 -34.5 -81.5t-85.5 -30.5zM1958 1726q0 49 35 81t86 32t85 -32t34 -81
q0 -51 -35 -81.5t-84 -30.5q-51 0 -86 30.5t-35 81.5zM2324 143h46v-143h-46q-239 0 -364 128.5t-125 375.5v483h-276q-157 0 -240.5 -92.5t-83.5 -245.5v-905h-537q-579 0 -579 541v469h139v-455q0 -414 469 -414h367v766q0 231 121.5 351t340.5 120h279v246h141v-870
q0 -175 88 -265t260 -90z" />
    <glyph glyph-name="uniFC7B" unicode="&#xfc7b;" horiz-adv-x="2328" arabic-form="final" 
d="M1909 1874q-46 0 -78.5 29t-32.5 77q0 44 32 73.5t79 29.5q46 0 78 -29.5t32 -73.5q0 -48 -32 -77t-78 -29zM1735 1614q-49 0 -84 30.5t-35 81.5q0 49 34 81t85 32t85.5 -32t34.5 -81q0 -51 -34.5 -81.5t-85.5 -30.5zM1958 1726q0 49 35 81t86 32t85 -32t34 -81
q0 -51 -35 -81.5t-84 -30.5q-51 0 -86 30.5t-35 81.5zM2324 143h46v-143h-46q-239 0 -364 128.5t-125 375.5v483h-276q-157 0 -240.5 -92.5t-83.5 -245.5v-905h-537q-579 0 -579 541v469h139v-455q0 -414 469 -414h367v766q0 231 121.5 351t340.5 120h279v246h141v-870
q0 -175 88 -265t260 -90zM651 -502q52 0 87.5 -33t35.5 -83q0 -51 -36 -83t-87 -32q-52 0 -87.5 32t-35.5 83t35 83.5t88 32.5zM999 -502q52 0 87.5 -33t35.5 -83q0 -51 -36 -83t-87 -32q-52 0 -87 32t-35 83t34.5 83.5t87.5 32.5z" />
    <glyph glyph-name="uniFC8A" unicode="&#xfc8a;" horiz-adv-x="1421" arabic-form="final" 
d="M1001 1628q-52 0 -88 31.5t-36 85.5q0 51 36 84t88 33t87.5 -32.5t35.5 -84.5q0 -53 -36.5 -85t-86.5 -32zM1417 143h45v-143h-45q-239 0 -364 128.5t-125 375.5v477h-467v-1049q0 -143 -38.5 -228.5t-109.5 -120t-186 -34.5q-68 0 -154 21l-10 123q85 -15 152 -15
q101 0 154 55t53 179v1210h606v246h141v-870q0 -175 88 -265t260 -90z" />
    <glyph glyph-name="uniFC8B" unicode="&#xfc8b;" horiz-adv-x="1421" arabic-form="final" 
d="M1001 1628q-52 0 -88 31.5t-36 85.5q0 51 36 84t88 33t87.5 -32.5t35.5 -84.5q0 -53 -36.5 -85t-86.5 -32zM383 1382q-52 0 -88.5 32t-36.5 85q0 51 36.5 84t88.5 33t87.5 -32.5t35.5 -84.5q0 -53 -36.5 -85t-86.5 -32zM1417 143h45v-143h-45q-239 0 -364 128.5
t-125 375.5v477h-467v-1049q0 -143 -38.5 -228.5t-109.5 -120t-186 -34.5q-68 0 -154 21l-10 123q85 -15 152 -15q101 0 154 55t53 179v1210h606v246h141v-870q0 -175 88 -265t260 -90z" />
    <glyph glyph-name="uniFC8D" unicode="&#xfc8d;" horiz-adv-x="2109" arabic-form="final" 
d="M1690 1487q-52 0 -88.5 32t-36.5 85q0 51 36.5 83.5t88.5 32.5t87 -32t35 -84q0 -53 -36 -85t-86 -32zM631 1241q-52 0 -88.5 32t-36.5 85q0 51 36.5 84t88.5 33t87.5 -32.5t35.5 -84.5q0 -53 -36.5 -85t-86.5 -32zM2107 143h43v-143h-43q-241 0 -365 128t-124 376v338
h-488v-1098h-432q-285 0 -432 137t-147 400v700h141v-684q0 -412 461 -412h270v1096h627v246h141v-729q0 -175 88 -265t260 -90z" />
    <glyph glyph-name="uniFC8E" unicode="&#xfc8e;" horiz-adv-x="2328" arabic-form="final" 
d="M1909 1628q-52 0 -88.5 32t-36.5 85q0 51 36.5 84t88.5 33t87.5 -32.5t35.5 -84.5q0 -53 -36.5 -85t-86.5 -32zM2324 143h46v-143h-46q-239 0 -364 128.5t-125 375.5v483h-276q-157 0 -240.5 -92.5t-83.5 -245.5v-905h-537q-579 0 -579 541v469h139v-455q0 -414 469 -414
h367v766q0 231 121.5 351t340.5 120h279v246h141v-870q0 -175 88 -265t260 -90z" />
    <glyph glyph-name="uniFC8F" unicode="&#xfc8f;" horiz-adv-x="2328" arabic-form="final" 
d="M1909 1628q-52 0 -88.5 32t-36.5 85q0 51 36.5 84t88.5 33t87.5 -32.5t35.5 -84.5q0 -53 -36.5 -85t-86.5 -32zM2324 143h46v-143h-46q-239 0 -364 128.5t-125 375.5v483h-276q-157 0 -240.5 -92.5t-83.5 -245.5v-905h-537q-579 0 -579 541v469h139v-455q0 -414 469 -414
h367v766q0 231 121.5 351t340.5 120h279v246h141v-870q0 -175 88 -265t260 -90zM651 -502q52 0 87.5 -33t35.5 -83q0 -51 -36 -83t-87 -32q-52 0 -87.5 32t-35.5 83t35 83.5t88 32.5zM999 -502q52 0 87.5 -33t35.5 -83q0 -51 -36 -83t-87 -32q-52 0 -87 32t-35 83t34.5 83.5
t87.5 32.5z" />
    <glyph glyph-name="uniFC91" unicode="&#xfc91;" horiz-adv-x="1421" arabic-form="final" 
d="M1417 143h45v-143h-45q-239 0 -364 128.5t-125 375.5v477h-467v-1049q0 -143 -38.5 -228.5t-109.5 -120t-186 -34.5q-68 0 -154 21l-10 123q85 -15 152 -15q101 0 154 55t53 179v1210h606v246h141v-870q0 -175 88 -265t260 -90zM723 -246q52 0 87.5 -33t35.5 -83
q0 -51 -36 -83t-87 -32q-52 0 -87.5 32t-35.5 83t35 83.5t88 32.5zM1071 -246q52 0 87.5 -33t35.5 -83q0 -51 -36 -83t-87 -32q-52 0 -87.5 32t-35.5 83t35 83.5t88 32.5z" />
    <glyph glyph-name="uniFC92" unicode="&#xfc92;" horiz-adv-x="1421" arabic-form="final" 
d="M383 1382q-52 0 -88.5 32t-36.5 85q0 51 36.5 84t88.5 33t87.5 -32.5t35.5 -84.5q0 -53 -36.5 -85t-86.5 -32zM1417 143h45v-143h-45q-239 0 -364 128.5t-125 375.5v477h-467v-1049q0 -143 -38.5 -228.5t-109.5 -120t-186 -34.5q-68 0 -154 21l-10 123q85 -15 152 -15
q101 0 154 55t53 179v1210h606v246h141v-870q0 -175 88 -265t260 -90zM723 -246q52 0 87.5 -33t35.5 -83q0 -51 -36 -83t-87 -32q-52 0 -87.5 32t-35.5 83t35 83.5t88 32.5zM1071 -246q52 0 87.5 -33t35.5 -83q0 -51 -36 -83t-87 -32q-52 0 -87.5 32t-35.5 83t35 83.5
t88 32.5z" />
    <glyph glyph-name="uniFC94" unicode="&#xfc94;" horiz-adv-x="2109" arabic-form="final" 
d="M631 1241q-52 0 -88.5 32t-36.5 85q0 51 36.5 84t88.5 33t87.5 -32.5t35.5 -84.5q0 -53 -36.5 -85t-86.5 -32zM2107 143h43v-143h-43q-241 0 -365 128t-124 376v338h-488v-1098h-432q-285 0 -432 137t-147 400v700h141v-684q0 -412 461 -412h270v1096h627v246h141v-729
q0 -175 88 -265t260 -90zM1372 -246q52 0 87.5 -33t35.5 -83q0 -51 -36 -83t-87 -32q-52 0 -87.5 32t-35.5 83t35 83.5t88 32.5zM1720 -246q52 0 87.5 -33t35.5 -83q0 -51 -36 -83t-87 -32q-52 0 -87.5 32t-35.5 83t35 83.5t88 32.5z" />
    <glyph glyph-name="uniFCFB" unicode="&#xfcfb;" horiz-adv-x="3702" arabic-form="isolated" 
d="M3439 1139h141v-656q0 -254 -121.5 -378.5t-351.5 -124.5q-311 0 -416 245q-93 -245 -436 -245q-238 0 -367 128.5t-129 374.5v750h-225q-146 0 -222.5 -86.5t-76.5 -228.5v-1174h-537q-579 0 -579 541v469h139v-455q0 -414 469 -414h367v1012q0 231 121.5 351t340.5 120
h345v-887q0 -174 90.5 -266t263.5 -92q170 0 264 90.5t94 267.5v500h142v-510q0 -172 86.5 -260t255.5 -88q164 0 253 87t89 261v668z" />
    <glyph glyph-name="uniFCFC" unicode="&#xfcfc;" horiz-adv-x="3702" arabic-form="isolated" 
d="M3439 1139h141v-656q0 -254 -121.5 -378.5t-351.5 -124.5q-311 0 -416 245q-93 -245 -436 -245q-238 0 -367 128.5t-129 374.5v750h-225q-146 0 -222.5 -86.5t-76.5 -228.5v-1174h-537q-579 0 -579 541v469h139v-455q0 -414 469 -414h367v1012q0 231 121.5 351t340.5 120
h345v-887q0 -174 90.5 -266t263.5 -92q170 0 264 90.5t94 267.5v500h142v-510q0 -172 86.5 -260t255.5 -88q164 0 253 87t89 261v668zM651 -502q52 0 87.5 -33t35.5 -83q0 -51 -36 -83t-87 -32q-52 0 -87.5 32t-35.5 83t35 83.5t88 32.5zM999 -502q52 0 87.5 -33t35.5 -83
q0 -51 -36 -83t-87 -32q-52 0 -87 32t-35 83t34.5 83.5t87.5 32.5z" />
    <glyph glyph-name="uniFCFD" unicode="&#xfcfd;" horiz-adv-x="3702" arabic-form="isolated" 
d="M2685 1487q-46 0 -78.5 29t-32.5 77q0 44 32 73.5t79 29.5q46 0 78.5 -29.5t32.5 -73.5q0 -48 -32.5 -77t-78.5 -29zM2511 1227q-49 0 -84 30.5t-35 81.5q0 49 34 81t85 32t86 -32t35 -81q0 -51 -35 -81.5t-86 -30.5zM2734 1339q0 49 35 81t86 32t85 -32t34 -81
q0 -51 -35 -81.5t-84 -30.5q-51 0 -86 30.5t-35 81.5zM3439 1139h141v-656q0 -254 -121.5 -378.5t-351.5 -124.5q-311 0 -416 245q-93 -245 -436 -245q-238 0 -367 128.5t-129 374.5v750h-225q-146 0 -222.5 -86.5t-76.5 -228.5v-1174h-537q-579 0 -579 541v469h139v-455
q0 -414 469 -414h367v1012q0 231 121.5 351t340.5 120h345v-887q0 -174 90.5 -266t263.5 -92q170 0 264 90.5t94 267.5v500h142v-510q0 -172 86.5 -260t255.5 -88q164 0 253 87t89 261v668z" />
    <glyph glyph-name="uniFCFE" unicode="&#xfcfe;" horiz-adv-x="3702" arabic-form="isolated" 
d="M2685 1487q-46 0 -78.5 29t-32.5 77q0 44 32 73.5t79 29.5q46 0 78.5 -29.5t32.5 -73.5q0 -48 -32.5 -77t-78.5 -29zM2511 1227q-49 0 -84 30.5t-35 81.5q0 49 34 81t85 32t86 -32t35 -81q0 -51 -35 -81.5t-86 -30.5zM2734 1339q0 49 35 81t86 32t85 -32t34 -81
q0 -51 -35 -81.5t-84 -30.5q-51 0 -86 30.5t-35 81.5zM3439 1139h141v-656q0 -254 -121.5 -378.5t-351.5 -124.5q-311 0 -416 245q-93 -245 -436 -245q-238 0 -367 128.5t-129 374.5v750h-225q-146 0 -222.5 -86.5t-76.5 -228.5v-1174h-537q-579 0 -579 541v469h139v-455
q0 -414 469 -414h367v1012q0 231 121.5 351t340.5 120h345v-887q0 -174 90.5 -266t263.5 -92q170 0 264 90.5t94 267.5v500h142v-510q0 -172 86.5 -260t255.5 -88q164 0 253 87t89 261v668zM651 -502q52 0 87.5 -33t35.5 -83q0 -51 -36 -83t-87 -32q-52 0 -87.5 32t-35.5 83
t35 83.5t88 32.5zM999 -502q52 0 87.5 -33t35.5 -83q0 -51 -36 -83t-87 -32q-52 0 -87 32t-35 83t34.5 83.5t87.5 32.5z" />
    <glyph glyph-name="uniFD05" unicode="&#xfd05;" horiz-adv-x="3260" arabic-form="isolated" 
d="M2560 1122q293 0 436.5 -135t141.5 -405v-582h-897q-236 0 -359 128.5t-123 375.5v729h-225q-146 0 -222.5 -86.5t-76.5 -228.5v-1174h-537q-579 0 -579 541v469h139v-455q0 -414 469 -414h367v1012q0 231 121.5 351t340.5 120h345v-246h659zM3004 602q1 195 -111 287
t-315 92h-677v-489q0 -172 86.5 -261.5t253.5 -89.5h763v461z" />
    <glyph glyph-name="uniFD06" unicode="&#xfd06;" horiz-adv-x="3260" arabic-form="isolated" 
d="M2560 1122q293 0 436.5 -135t141.5 -405v-582h-897q-236 0 -359 128.5t-123 375.5v729h-225q-146 0 -222.5 -86.5t-76.5 -228.5v-1174h-537q-579 0 -579 541v469h139v-455q0 -414 469 -414h367v1012q0 231 121.5 351t340.5 120h345v-246h659zM3004 602q1 195 -111 287
t-315 92h-677v-489q0 -172 86.5 -261.5t253.5 -89.5h763v461zM651 -502q52 0 87.5 -33t35.5 -83q0 -51 -36 -83t-87 -32q-52 0 -87.5 32t-35.5 83t35 83.5t88 32.5zM999 -502q52 0 87.5 -33t35.5 -83q0 -51 -36 -83t-87 -32q-52 0 -87 32t-35 83t34.5 83.5t87.5 32.5z" />
    <glyph glyph-name="uniFD07" unicode="&#xfd07;" horiz-adv-x="3260" arabic-form="isolated" 
d="M2513 1382q-52 0 -88.5 32t-36.5 85q0 51 36.5 84t88.5 33t87.5 -32.5t35.5 -84.5q0 -53 -36.5 -85t-86.5 -32zM2560 1122q293 0 436.5 -135t141.5 -405v-582h-897q-236 0 -359 128.5t-123 375.5v729h-225q-146 0 -222.5 -86.5t-76.5 -228.5v-1174h-537q-579 0 -579 541
v469h139v-455q0 -414 469 -414h367v1012q0 231 121.5 351t340.5 120h345v-246h659zM3004 602q1 195 -111 287t-315 92h-677v-489q0 -172 86.5 -261.5t253.5 -89.5h763v461z" />
    <glyph glyph-name="uniFD08" unicode="&#xfd08;" horiz-adv-x="3260" arabic-form="isolated" 
d="M2513 1382q-52 0 -88.5 32t-36.5 85q0 51 36.5 84t88.5 33t87.5 -32.5t35.5 -84.5q0 -53 -36.5 -85t-86.5 -32zM2560 1122q293 0 436.5 -135t141.5 -405v-582h-897q-236 0 -359 128.5t-123 375.5v729h-225q-146 0 -222.5 -86.5t-76.5 -228.5v-1174h-537q-579 0 -579 541
v469h139v-455q0 -414 469 -414h367v1012q0 231 121.5 351t340.5 120h345v-246h659zM3004 602q1 195 -111 287t-315 92h-677v-489q0 -172 86.5 -261.5t253.5 -89.5h763v461zM651 -502q52 0 87.5 -33t35.5 -83q0 -51 -36 -83t-87 -32q-52 0 -87.5 32t-35.5 83t35 83.5t88 32.5
zM999 -502q52 0 87.5 -33t35.5 -83q0 -51 -36 -83t-87 -32q-52 0 -87 32t-35 83t34.5 83.5t87.5 32.5z" />
    <glyph glyph-name="uniFD0D" unicode="&#xfd0d;" horiz-adv-x="2840" arabic-form="isolated" 
d="M1823 1487q-46 0 -78.5 29t-32.5 77q0 44 32 73.5t79 29.5q46 0 78 -29.5t32 -73.5q0 -48 -32 -77t-78 -29zM1649 1227q-49 0 -84 30.5t-35 81.5q0 49 34 81t85 32t85.5 -32t34.5 -81q0 -51 -34.5 -81.5t-85.5 -30.5zM1872 1339q0 49 35 81t86 32t84.5 -32t33.5 -81
q0 -51 -34.5 -81.5t-83.5 -30.5q-51 0 -86 30.5t-35 81.5zM2576 1139h142v-656q0 -503 -486 -503q-299 0 -407 231q-93 -231 -416 -231q-236 0 -358.5 128t-122.5 375v359h-467v-910q0 -143 -38.5 -228.5t-109.5 -120t-186 -34.5q-68 0 -154 21l-10 123q85 -15 152 -15
q101 0 154 55t53 179v1313h139v-244h608v-510q0 -172 86.5 -260t253.5 -88q164 0 253 88t89 260v510h141v-510q0 -171 87 -259.5t253 -88.5q164 0 254 88t90 260v668z" />
    <glyph glyph-name="uniFD0E" unicode="&#xfd0e;" horiz-adv-x="2840" arabic-form="isolated" 
d="M2576 1139h142v-656q0 -503 -486 -503q-299 0 -407 231q-93 -231 -416 -231q-236 0 -358.5 128t-122.5 375v359h-467v-910q0 -143 -38.5 -228.5t-109.5 -120t-186 -34.5q-68 0 -154 21l-10 123q85 -15 152 -15q101 0 154 55t53 179v1313h139v-244h608v-510
q0 -172 86.5 -260t253.5 -88q164 0 253 88t89 260v510h141v-510q0 -171 87 -259.5t253 -88.5q164 0 254 88t90 260v668z" />
    <glyph glyph-name="uniFD17" unicode="&#xfd17;" horiz-adv-x="3897" arabic-form="final" 
d="M3580 508q0 -367 358 -367v-141q-154 0 -258.5 58t-144.5 165q-102 -243 -428 -243q-311 0 -416 245q-93 -245 -436 -245q-238 0 -367 128.5t-129 374.5v750h-225q-146 0 -222.5 -86.5t-76.5 -228.5v-1174h-537q-579 0 -579 541v469h139v-455q0 -414 469 -414h367v1012
q0 231 121.5 351t340.5 120h345v-887q0 -174 90.5 -266t263.5 -92q170 0 264 90.5t94 267.5v500h142v-510q0 -172 86.5 -260t255.5 -88q164 0 253 87t89 261v668h141v-631z" />
    <glyph glyph-name="uniFD18" unicode="&#xfd18;" horiz-adv-x="3897" arabic-form="final" 
d="M3580 508q0 -367 358 -367v-141q-154 0 -258.5 58t-144.5 165q-102 -243 -428 -243q-311 0 -416 245q-93 -245 -436 -245q-238 0 -367 128.5t-129 374.5v750h-225q-146 0 -222.5 -86.5t-76.5 -228.5v-1174h-537q-579 0 -579 541v469h139v-455q0 -414 469 -414h367v1012
q0 231 121.5 351t340.5 120h345v-887q0 -174 90.5 -266t263.5 -92q170 0 264 90.5t94 267.5v500h142v-510q0 -172 86.5 -260t255.5 -88q164 0 253 87t89 261v668h141v-631zM651 -502q52 0 87.5 -33t35.5 -83q0 -51 -36 -83t-87 -32q-52 0 -87.5 32t-35.5 83t35 83.5t88 32.5
zM999 -502q52 0 87.5 -33t35.5 -83q0 -51 -36 -83t-87 -32q-52 0 -87 32t-35 83t34.5 83.5t87.5 32.5z" />
    <glyph glyph-name="uniFD19" unicode="&#xfd19;" horiz-adv-x="3897" arabic-form="final" 
d="M2685 1487q-46 0 -78.5 29t-32.5 77q0 44 32 73.5t79 29.5q46 0 78.5 -29.5t32.5 -73.5q0 -48 -32.5 -77t-78.5 -29zM2511 1227q-49 0 -84 30.5t-35 81.5q0 49 34 81t85 32t86 -32t35 -81q0 -51 -35 -81.5t-86 -30.5zM2734 1339q0 49 35 81t86 32t85 -32t34 -81
q0 -51 -35 -81.5t-84 -30.5q-51 0 -86 30.5t-35 81.5zM3580 508q0 -367 358 -367v-141q-154 0 -258.5 58t-144.5 165q-102 -243 -428 -243q-311 0 -416 245q-93 -245 -436 -245q-238 0 -367 128.5t-129 374.5v750h-225q-146 0 -222.5 -86.5t-76.5 -228.5v-1174h-537
q-579 0 -579 541v469h139v-455q0 -414 469 -414h367v1012q0 231 121.5 351t340.5 120h345v-887q0 -174 90.5 -266t263.5 -92q170 0 264 90.5t94 267.5v500h142v-510q0 -172 86.5 -260t255.5 -88q164 0 253 87t89 261v668h141v-631z" />
    <glyph glyph-name="uniFD1A" unicode="&#xfd1a;" horiz-adv-x="3897" arabic-form="final" 
d="M2685 1487q-46 0 -78.5 29t-32.5 77q0 44 32 73.5t79 29.5q46 0 78.5 -29.5t32.5 -73.5q0 -48 -32.5 -77t-78.5 -29zM2511 1227q-49 0 -84 30.5t-35 81.5q0 49 34 81t85 32t86 -32t35 -81q0 -51 -35 -81.5t-86 -30.5zM2734 1339q0 49 35 81t86 32t85 -32t34 -81
q0 -51 -35 -81.5t-84 -30.5q-51 0 -86 30.5t-35 81.5zM3580 508q0 -367 358 -367v-141q-154 0 -258.5 58t-144.5 165q-102 -243 -428 -243q-311 0 -416 245q-93 -245 -436 -245q-238 0 -367 128.5t-129 374.5v750h-225q-146 0 -222.5 -86.5t-76.5 -228.5v-1174h-537
q-579 0 -579 541v469h139v-455q0 -414 469 -414h367v1012q0 231 121.5 351t340.5 120h345v-887q0 -174 90.5 -266t263.5 -92q170 0 264 90.5t94 267.5v500h142v-510q0 -172 86.5 -260t255.5 -88q164 0 253 87t89 261v668h141v-631zM651 -502q52 0 87.5 -33t35.5 -83
q0 -51 -36 -83t-87 -32q-52 0 -87.5 32t-35.5 83t35 83.5t88 32.5zM999 -502q52 0 87.5 -33t35.5 -83q0 -51 -36 -83t-87 -32q-52 0 -87 32t-35 83t34.5 83.5t87.5 32.5z" />
    <glyph glyph-name="uniFD21" unicode="&#xfd21;" horiz-adv-x="3354" arabic-form="final" 
d="M3138 141h258v-141h-1155q-236 0 -359 128.5t-123 375.5v729h-225q-146 0 -222.5 -86.5t-76.5 -228.5v-1174h-537q-579 0 -579 541v469h139v-455q0 -414 469 -414h367v1012q0 231 121.5 351t340.5 120h345v-246h659q293 0 436.5 -135t141.5 -405v-441zM3004 602
q1 195 -111 287t-315 92h-677v-489q0 -172 86.5 -261.5t253.5 -89.5h763v461z" />
    <glyph glyph-name="uniFD22" unicode="&#xfd22;" horiz-adv-x="3354" arabic-form="final" 
d="M3138 141h258v-141h-1155q-236 0 -359 128.5t-123 375.5v729h-225q-146 0 -222.5 -86.5t-76.5 -228.5v-1174h-537q-579 0 -579 541v469h139v-455q0 -414 469 -414h367v1012q0 231 121.5 351t340.5 120h345v-246h659q293 0 436.5 -135t141.5 -405v-441zM3004 602
q1 195 -111 287t-315 92h-677v-489q0 -172 86.5 -261.5t253.5 -89.5h763v461zM651 -502q52 0 87.5 -33t35.5 -83q0 -51 -36 -83t-87 -32q-52 0 -87.5 32t-35.5 83t35 83.5t88 32.5zM999 -502q52 0 87.5 -33t35.5 -83q0 -51 -36 -83t-87 -32q-52 0 -87 32t-35 83t34.5 83.5
t87.5 32.5z" />
    <glyph glyph-name="uniFD23" unicode="&#xfd23;" horiz-adv-x="3354" arabic-form="final" 
d="M2513 1382q-52 0 -88.5 32t-36.5 85q0 51 36.5 84t88.5 33t87.5 -32.5t35.5 -84.5q0 -53 -36.5 -85t-86.5 -32zM3138 141h258v-141h-1155q-236 0 -359 128.5t-123 375.5v729h-225q-146 0 -222.5 -86.5t-76.5 -228.5v-1174h-537q-579 0 -579 541v469h139v-455
q0 -414 469 -414h367v1012q0 231 121.5 351t340.5 120h345v-246h659q293 0 436.5 -135t141.5 -405v-441zM3004 602q1 195 -111 287t-315 92h-677v-489q0 -172 86.5 -261.5t253.5 -89.5h763v461z" />
    <glyph glyph-name="uniFD24" unicode="&#xfd24;" horiz-adv-x="3354" arabic-form="final" 
d="M2513 1382q-52 0 -88.5 32t-36.5 85q0 51 36.5 84t88.5 33t87.5 -32.5t35.5 -84.5q0 -53 -36.5 -85t-86.5 -32zM3138 141h258v-141h-1155q-236 0 -359 128.5t-123 375.5v729h-225q-146 0 -222.5 -86.5t-76.5 -228.5v-1174h-537q-579 0 -579 541v469h139v-455
q0 -414 469 -414h367v1012q0 231 121.5 351t340.5 120h345v-246h659q293 0 436.5 -135t141.5 -405v-441zM3004 602q1 195 -111 287t-315 92h-677v-489q0 -172 86.5 -261.5t253.5 -89.5h763v461zM651 -502q52 0 87.5 -33t35.5 -83q0 -51 -36 -83t-87 -32q-52 0 -87.5 32
t-35.5 83t35 83.5t88 32.5zM999 -502q52 0 87.5 -33t35.5 -83q0 -51 -36 -83t-87 -32q-52 0 -87 32t-35 83t34.5 83.5t87.5 32.5z" />
    <glyph glyph-name="uniFD29" unicode="&#xfd29;" horiz-adv-x="3035" arabic-form="final" 
d="M1823 1487q-46 0 -78.5 29t-32.5 77q0 44 32 73.5t79 29.5q46 0 78 -29.5t32 -73.5q0 -48 -32 -77t-78 -29zM1649 1227q-49 0 -84 30.5t-35 81.5q0 49 34 81t85 32t85.5 -32t34.5 -81q0 -51 -34.5 -81.5t-85.5 -30.5zM1872 1339q0 49 35 81t86 32t84.5 -32t33.5 -81
q0 -51 -34.5 -81.5t-83.5 -30.5q-51 0 -86 30.5t-35 81.5zM2718 508q0 -367 358 -367v-141q-154 0 -258.5 58t-144.5 165q-102 -243 -441 -243q-299 0 -407 231q-93 -231 -416 -231q-236 0 -358.5 128t-122.5 375v359h-467v-910q0 -143 -38.5 -228.5t-109.5 -120t-186 -34.5
q-68 0 -154 21l-10 123q85 -15 152 -15q101 0 154 55t53 179v1313h139v-244h608v-510q0 -172 86.5 -260t253.5 -88q164 0 253 88t89 260v510h141v-510q0 -171 87 -259.5t253 -88.5q164 0 254 88t90 260v668h142v-631z" />
    <glyph glyph-name="uniFD2A" unicode="&#xfd2a;" horiz-adv-x="3035" arabic-form="final" 
d="M2718 508q0 -367 358 -367v-141q-154 0 -258.5 58t-144.5 165q-102 -243 -441 -243q-299 0 -407 231q-93 -231 -416 -231q-236 0 -358.5 128t-122.5 375v359h-467v-910q0 -143 -38.5 -228.5t-109.5 -120t-186 -34.5q-68 0 -154 21l-10 123q85 -15 152 -15q101 0 154 55
t53 179v1313h139v-244h608v-510q0 -172 86.5 -260t253.5 -88q164 0 253 88t89 260v510h141v-510q0 -171 87 -259.5t253 -88.5q164 0 254 88t90 260v668h142v-631z" />
    <glyph glyph-name="uniFE82" unicode="&#x622;" horiz-adv-x="655" arabic-form="final" 
d="M436 1860v-97h-358v97h358zM328 141h368v-141h-510v1663h142v-1522z" />
    <glyph glyph-name="uniFE84" unicode="&#x623;" horiz-adv-x="655" arabic-form="final" 
d="M406 1677v-88h-297v129q0 97 50.5 154t145.5 57h33v-82h-39q-102 0 -102 -123v-47h209zM328 141h368v-141h-510v1415h142v-1274z" />
    <glyph glyph-name="uniFE86" unicode="&#x624;" horiz-adv-x="1243" arabic-form="final" 
d="M918 1382v-110h-406v223q0 103 56 159t159 56h109v-86h-101q-129 0 -129 -125v-117h312zM1284 141v-141h-258v-29q0 -225 -106 -323.5t-318 -98.5q-164 0 -346 68l-25 150q205 -76 365 -76q136 0 212.5 62t76.5 194v53h-146q-282 0 -454 152.5t-172 402.5v2
q0 255 176.5 410t466.5 155h270v-981h258zM729 141h156v840h-156q-216 0 -348.5 -115.5t-132.5 -308.5v-2q0 -187 133 -300.5t348 -113.5z" />
    <glyph glyph-name="uniFE88" unicode="&#x625;" horiz-adv-x="655" arabic-form="final" 
d="M328 141h368v-141h-510v1663h142v-1522zM338 -348v-49h221v-86h-309v129q0 96 51 153.5t145 57.5h46v-82h-52q-102 0 -102 -123z" />
    <glyph glyph-name="uniFE8A" unicode="&#x626;" horiz-adv-x="2131" arabic-form="final" 
d="M1786 1386v-110h-406v223q0 103 56 159t159 56h109v-86h-100q-129 0 -129 -125v-117h311zM1915 141h258v-141h-397v987h-240q-146 0 -224.5 -87t-76.5 -228v-928h-537q-579 0 -579 541v469h139v-455q0 -414 469 -414h367v766q-1 231 121 351t341 120h359v-981z" />
    <glyph glyph-name="uniFE8B" unicode="&#x626;" horiz-adv-x="501" arabic-form="initial" 
d="M109 1296v129q0 97 50.5 154t145.5 57h33v-82h-39q-102 0 -102 -122v-48h209v-88h-297zM0 0v141h217v981h141v-1122h-358z" />
    <glyph glyph-name="uniFE8C" unicode="&#x626;" horiz-adv-x="575" arabic-form="medial" 
d="M436 1384v-88h-297v129q0 97 51 154t146 57h33v-82h-39q-103 0 -103 -122v-48h209zM358 141h258v-141h-616v141h217v981h141v-981z" />
    <glyph glyph-name="uniFE8E" unicode="&#x627;" horiz-adv-x="655" arabic-form="final" 
d="M328 141h368v-141h-510v1663h142v-1522z" />
    <glyph glyph-name="uniFE90" unicode="&#x628;" horiz-adv-x="1662" arabic-form="final" 
d="M1446 141h258v-141h-1006q-579 0 -579 541v393h139v-379q0 -414 469 -414h578v981h141v-981zM874 -246q52 0 87.5 -32.5t35.5 -83.5q0 -53 -36.5 -85t-86.5 -32q-52 0 -88 31.5t-36 85.5q0 51 36 83.5t88 32.5z" />
    <glyph glyph-name="uniFE91" unicode="&#x628;" horiz-adv-x="501" arabic-form="initial" 
d="M0 0v141h217v981h141v-1122h-358zM176 -479q-52 0 -88.5 32t-36.5 85q0 51 36.5 83.5t88.5 32.5t87.5 -32.5t35.5 -83.5q0 -53 -36.5 -85t-86.5 -32z" />
    <glyph glyph-name="uniFE92" unicode="&#x628;" horiz-adv-x="575" arabic-form="medial" 
d="M358 141h258v-141h-616v141h217v981h141v-981zM291 -248q52 0 87.5 -32.5t35.5 -84.5q0 -53 -36.5 -84.5t-86.5 -31.5q-52 0 -88.5 31.5t-36.5 84.5q0 51 36.5 84t88.5 33z" />
    <glyph glyph-name="uniFE94" unicode="&#x629;" horiz-adv-x="1243" arabic-form="final" 
d="M569 1395q-53 0 -88 31.5t-35 84.5q0 51 35 83t88 32q52 0 87.5 -32.5t35.5 -82.5q0 -52 -36 -84t-87 -32zM918 1395q-53 0 -88 31.5t-35 84.5q0 51 35 83t88 32q52 0 87 -32.5t35 -82.5q0 -52 -35.5 -84t-86.5 -32zM1026 141h258v-141h-399h-146q-282 0 -454 152.5
t-172 402.5v2q0 255 176.5 410t466.5 155h129v103h141v-1084zM885 141v840h-156q-216 0 -348.5 -115.5t-132.5 -308.5v-2q0 -187 133 -300.5t348 -113.5h156z" />
    <glyph glyph-name="uniFE96" unicode="&#x62a;" horiz-adv-x="1662" arabic-form="final" 
d="M629 1264q-53 0 -88 31.5t-35 84.5q0 51 35 83t88 32q52 0 87.5 -32.5t35.5 -82.5q0 -52 -36 -84t-87 -32zM977 1264q-53 0 -88 31.5t-35 84.5q0 51 35 83t88 32q52 0 87.5 -32.5t35.5 -82.5q0 -52 -36 -84t-87 -32zM1446 141h258v-141h-1006q-579 0 -579 541v393h139
v-379q0 -414 469 -414h578v981h141v-981z" />
    <glyph glyph-name="uniFE97" unicode="&#x62a;" horiz-adv-x="825" arabic-form="initial" 
d="M307 1366q-52 0 -87.5 32t-35.5 85q0 50 35 82t88 32q52 0 87.5 -32t35.5 -82q0 -52 -36 -84.5t-87 -32.5zM655 1366q-52 0 -87.5 32t-35.5 85q0 50 35 82t88 32q52 0 87.5 -32t35.5 -82q0 -52 -36 -84.5t-87 -32.5zM0 0v141h395v981h142v-1122h-537z" />
    <glyph glyph-name="uniFE98" unicode="&#x62a;" horiz-adv-x="800" arabic-form="medial" 
d="M231 1368q-52 0 -87 32t-35 85q0 51 34.5 82.5t87.5 31.5q52 0 87.5 -32t35.5 -82q0 -52 -36 -84.5t-87 -32.5zM580 1368q-52 0 -87.5 32t-35.5 85q0 50 35 82t88 32q52 0 87 -32t35 -82q0 -53 -35.5 -85t-86.5 -32zM842 141v-141h-842v141h330v981h141v-981h371z" />
    <glyph glyph-name="uniFE9A" unicode="&#x62b;" horiz-adv-x="1662" arabic-form="final" 
d="M803 1524q-46 0 -78.5 29t-32.5 77q0 44 32 73.5t79 29.5q46 0 78 -29.5t32 -73.5q0 -48 -32 -77t-78 -29zM629 1264q-49 0 -84 30.5t-35 81.5q0 49 34 81t85 32t86 -32t35 -81q0 -51 -35 -81.5t-86 -30.5zM852 1376q0 49 35 81t86 32t85 -32t34 -81q0 -51 -35 -81.5
t-84 -30.5q-51 0 -86 30.5t-35 81.5zM1446 141h258v-141h-1006q-579 0 -579 541v393h139v-379q0 -414 469 -414h578v981h141v-981z" />
    <glyph glyph-name="uniFE9B" unicode="&#x62b;" horiz-adv-x="819" arabic-form="initial" 
d="M483 1661q-46 0 -78 29t-32 77q0 44 31.5 73.5t78.5 29.5q46 0 78.5 -29.5t32.5 -73.5q0 -48 -32.5 -77t-78.5 -29zM309 1401q-49 0 -84 30.5t-35 81.5q0 49 34 81t85 32t86 -32t35 -81q0 -51 -35 -81.5t-86 -30.5zM653 1401q-51 0 -86 30.5t-35 81.5q0 49 35 81t86 32
t85 -32t34 -81q0 -51 -35 -81.5t-84 -30.5zM0 0v141h395v981h142v-1122h-537z" />
    <glyph glyph-name="uniFE9C" unicode="&#x62b;" horiz-adv-x="800" arabic-form="medial" 
d="M406 1628q-46 0 -78.5 29.5t-32.5 77.5q0 44 32 73t79 29q46 0 78 -29t32 -73q0 -48 -32 -77.5t-78 -29.5zM231 1368q-49 0 -83.5 31t-34.5 82q0 49 33.5 80.5t84.5 31.5q52 0 86.5 -31.5t34.5 -80.5q0 -51 -35 -82t-86 -31zM455 1481q0 49 34.5 80.5t85.5 31.5t85 -31.5
t34 -80.5q0 -51 -35 -82t-84 -31q-51 0 -85.5 31t-34.5 82zM842 141v-141h-842v141h330v981h141v-981h371z" />
    <glyph glyph-name="uniFE9E" unicode="&#x62c;" horiz-adv-x="1277" arabic-form="final" 
d="M1055 141h264v-141h-770q-98 0 -156.5 -43t-99.5 -145l-113 -279l-129 49l121 297q57 141 140.5 201.5t224.5 60.5h376q54 221 54 422q0 204 -106 320t-292 116q-91 0 -164.5 -21t-171.5 -77l-51 127q116 61 207.5 88t190.5 27q250 0 386 -155.5t136 -432.5
q0 -179 -47 -414zM653 -305q52 0 87.5 -32.5t35.5 -82.5q0 -53 -36.5 -85t-86.5 -32q-52 0 -88.5 32t-36.5 85q0 50 36.5 82.5t88.5 32.5z" />
    <glyph glyph-name="uniFE9F" unicode="&#x62c;" horiz-adv-x="1159" arabic-form="initial" 
d="M518 1143q250 0 386 -155.5t136 -432.5q0 -124 -22.5 -276.5t-56.5 -278.5h-961v141h852q53 217 53 422q0 204 -105.5 320t-291.5 116q-91 0 -164.5 -21t-171.5 -77l-51 127q117 61 207.5 88t189.5 27zM543 -246q52 0 87.5 -32.5t35.5 -83.5q0 -53 -36.5 -85t-86.5 -32
q-52 0 -88.5 32t-36.5 85q0 51 36.5 83.5t88.5 32.5z" />
    <glyph glyph-name="uniFEA0" unicode="&#x62c;" horiz-adv-x="1216" arabic-form="medial" 
d="M993 141h264v-141h-1257v141h852q53 217 53 422q0 204 -105.5 320t-291.5 116q-91 0 -164.5 -21t-171.5 -77l-51 127q117 61 207.5 88t189.5 27q250 0 386 -155.5t136 -432.5q0 -179 -47 -414zM543 -246q52 0 87.5 -32.5t35.5 -83.5q0 -53 -36.5 -85t-86.5 -32
q-52 0 -88.5 32t-36.5 85q0 51 36.5 83.5t88.5 32.5z" />
    <glyph glyph-name="uniFEA2" unicode="&#x62d;" horiz-adv-x="1277" arabic-form="final" 
d="M1055 141h264v-141h-770q-98 0 -156.5 -43t-99.5 -145l-113 -279l-129 49l121 297q57 141 140.5 201.5t224.5 60.5h376q54 221 54 422q0 204 -106 320t-292 116q-91 0 -164.5 -21t-171.5 -77l-51 127q116 61 207.5 88t190.5 27q250 0 386 -155.5t136 -432.5
q0 -179 -47 -414z" />
    <glyph glyph-name="uniFEA3" unicode="&#x62d;" horiz-adv-x="1159" arabic-form="initial" 
d="M518 1143q250 0 386 -155.5t136 -432.5q0 -124 -22.5 -276.5t-56.5 -278.5h-961v141h852q53 217 53 422q0 204 -105.5 320t-291.5 116q-91 0 -164.5 -21t-171.5 -77l-51 127q117 61 207.5 88t189.5 27z" />
    <glyph glyph-name="uniFEA4" unicode="&#x62d;" horiz-adv-x="1216" arabic-form="medial" 
d="M993 141h264v-141h-1257v141h852q53 217 53 422q0 204 -105.5 320t-291.5 116q-91 0 -164.5 -21t-171.5 -77l-51 127q117 61 207.5 88t189.5 27q250 0 386 -155.5t136 -432.5q0 -179 -47 -414z" />
    <glyph glyph-name="uniFEA6" unicode="&#x62e;" horiz-adv-x="1277" arabic-form="final" 
d="M618 1403q-52 0 -88 31.5t-36 85.5q0 51 36 83.5t88 32.5t87.5 -32.5t35.5 -83.5q0 -53 -36.5 -85t-86.5 -32zM1055 141h264v-141h-770q-98 0 -156.5 -43t-99.5 -145l-113 -279l-129 49l121 297q57 141 140.5 201.5t224.5 60.5h376q54 221 54 422q0 204 -106 320
t-292 116q-91 0 -164.5 -21t-171.5 -77l-51 127q116 61 207.5 88t190.5 27q250 0 386 -155.5t136 -432.5q0 -179 -47 -414z" />
    <glyph glyph-name="uniFEA7" unicode="&#x62e;" horiz-adv-x="1159" arabic-form="initial" 
d="M532 1403q-52 0 -88 31.5t-36 85.5q0 51 36 83.5t88 32.5t87.5 -32.5t35.5 -83.5q0 -53 -36.5 -85t-86.5 -32zM518 1143q250 0 386 -155.5t136 -432.5q0 -124 -22.5 -276.5t-56.5 -278.5h-961v141h852q53 217 53 422q0 204 -105.5 320t-291.5 116q-91 0 -164.5 -21
t-171.5 -77l-51 127q117 61 207.5 88t189.5 27z" />
    <glyph glyph-name="uniFEA8" unicode="&#x62e;" horiz-adv-x="1216" arabic-form="medial" 
d="M532 1403q-52 0 -88 31.5t-36 85.5q0 51 36 83.5t88 32.5t87.5 -32.5t35.5 -83.5q0 -53 -36.5 -85t-86.5 -32zM993 141h264v-141h-1257v141h852q53 217 53 422q0 204 -105.5 320t-291.5 116q-91 0 -164.5 -21t-171.5 -77l-51 127q117 61 207.5 88t189.5 27
q250 0 386 -155.5t136 -432.5q0 -179 -47 -414z" />
    <glyph glyph-name="uniFEAA" unicode="&#x62f;" horiz-adv-x="1165" arabic-form="final" 
d="M948 141h258v-141h-1145v141h754v510q0 330 -321 330h-70v141h51q473 0 473 -477v-504z" />
    <glyph glyph-name="uniFEAC" unicode="&#x630;" horiz-adv-x="1165" arabic-form="final" 
d="M506 1382q-52 0 -88.5 32t-36.5 85q0 51 36.5 84t88.5 33t87.5 -32.5t35.5 -84.5q0 -53 -36.5 -85t-86.5 -32zM948 141h258v-141h-1145v141h754v510q0 330 -321 330h-70v141h51q473 0 473 -477v-504z" />
    <glyph glyph-name="uniFEAE" unicode="&#x631;" horiz-adv-x="673" arabic-form="final" 
d="M715 141v-141h-254v-68q0 -143 -38.5 -228.5t-109.5 -120t-186 -34.5q-68 0 -154 21l-10 123q85 -15 152 -15q101 0 154 55t53 179v1210h139v-981h254z" />
    <glyph glyph-name="uniFEB0" unicode="&#x632;" horiz-adv-x="673" arabic-form="final" 
d="M391 1382q-52 0 -88.5 32t-36.5 85q0 51 36.5 84t88.5 33t87.5 -32.5t35.5 -84.5q0 -53 -36.5 -85t-86.5 -32zM715 141v-141h-254v-68q0 -143 -38.5 -228.5t-109.5 -120t-186 -34.5q-68 0 -154 21l-10 123q85 -15 152 -15q101 0 154 55t53 179v1210h139v-981h254z" />
    <glyph glyph-name="uniFEB2" unicode="&#x633;" horiz-adv-x="2990" arabic-form="final" 
d="M2673 508q0 -367 358 -367v-141q-154 0 -258.5 58t-144.5 165q-104 -243 -439 -243q-156 0 -270.5 73.5t-149.5 198.5q-42 -121 -142 -186.5t-249 -65.5h-248v-256h-432q-285 0 -432 137t-147 400v700h141v-684q0 -412 461 -412h270v1096h139v-840h248q144 0 237 85.5
t93 240.5v514h141v-532q0 -149 93 -237.5t247 -88.5q164 0 254 88t90 260v668h140v-631z" />
    <glyph glyph-name="uniFEB3" unicode="&#x633;" horiz-adv-x="2086" arabic-form="initial" 
d="M1825 1139h139v-656q0 -503 -483 -503q-156 0 -270.5 73.5t-149.5 198.5q-42 -121 -142 -186.5t-249 -65.5h-670v141h285v840h141v-840h244q144 0 236.5 85t92.5 241v514h142v-532q0 -149 93 -237.5t247 -88.5q164 0 254 88t90 260v668z" />
    <glyph glyph-name="uniFEB4" unicode="&#x633;" horiz-adv-x="2281" arabic-form="medial" 
d="M1964 508q0 -367 358 -367v-141q-154 0 -258.5 58t-144.5 165q-104 -243 -438 -243q-156 0 -270.5 73.5t-149.5 198.5q-42 -121 -142 -186.5t-249 -65.5h-670v141h285v840h141v-840h244q144 0 236.5 85t92.5 241v514h142v-532q0 -149 93 -237.5t247 -88.5q164 0 254 88
t90 260v668h139v-631z" />
    <glyph glyph-name="uniFEB6" unicode="&#x634;" horiz-adv-x="2990" arabic-form="final" 
d="M1780 1487q-46 0 -78.5 29t-32.5 77q0 44 32 73.5t79 29.5q46 0 78 -29.5t32 -73.5q0 -48 -32 -77t-78 -29zM1606 1227q-49 0 -84 30.5t-35 81.5q0 49 34 81t85 32t85.5 -32t34.5 -81q0 -51 -34.5 -81.5t-85.5 -30.5zM1829 1339q0 49 35 81t86 32t84.5 -32t33.5 -81
q0 -51 -34.5 -81.5t-83.5 -30.5q-51 0 -86 30.5t-35 81.5zM2673 508q0 -367 358 -367v-141q-154 0 -258.5 58t-144.5 165q-104 -243 -439 -243q-156 0 -270.5 73.5t-149.5 198.5q-42 -121 -142 -186.5t-249 -65.5h-248v-256h-432q-285 0 -432 137t-147 400v700h141v-684
q0 -412 461 -412h270v1096h139v-840h248q144 0 237 85.5t93 240.5v514h141v-532q0 -149 93 -237.5t247 -88.5q164 0 254 88t90 260v668h140v-631z" />
    <glyph glyph-name="uniFEB7" unicode="&#x634;" horiz-adv-x="2086" arabic-form="initial" 
d="M1069 1487q-46 0 -78.5 29t-32.5 77q0 44 32 73.5t79 29.5q46 0 78.5 -29.5t32.5 -73.5q0 -48 -32.5 -77t-78.5 -29zM895 1227q-49 0 -84 30.5t-35 81.5q0 49 34 81t85 32t86 -32t35 -81q0 -51 -35 -81.5t-86 -30.5zM1118 1339q0 49 35 81t86 32t85 -32t34 -81
q0 -51 -35 -81.5t-84 -30.5q-51 0 -86 30.5t-35 81.5zM1825 1139h139v-656q0 -503 -483 -503q-156 0 -270.5 73.5t-149.5 198.5q-42 -121 -142 -186.5t-249 -65.5h-670v141h285v840h141v-840h244q144 0 236.5 85t92.5 241v514h142v-532q0 -149 93 -237.5t247 -88.5
q164 0 254 88t90 260v668z" />
    <glyph glyph-name="uniFEB8" unicode="&#x634;" horiz-adv-x="2281" arabic-form="medial" 
d="M1069 1487q-46 0 -78.5 29t-32.5 77q0 44 32 73.5t79 29.5q46 0 78.5 -29.5t32.5 -73.5q0 -48 -32.5 -77t-78.5 -29zM895 1227q-49 0 -84 30.5t-35 81.5q0 49 34 81t85 32t86 -32t35 -81q0 -51 -35 -81.5t-86 -30.5zM1118 1339q0 49 35 81t86 32t85 -32t34 -81
q0 -51 -35 -81.5t-84 -30.5q-51 0 -86 30.5t-35 81.5zM1964 508q0 -367 358 -367v-141q-154 0 -258.5 58t-144.5 165q-104 -243 -438 -243q-156 0 -270.5 73.5t-149.5 198.5q-42 -121 -142 -186.5t-249 -65.5h-670v141h285v840h141v-840h244q144 0 236.5 85t92.5 241v514
h142v-532q0 -149 93 -237.5t247 -88.5q164 0 254 88t90 260v668h139v-631z" />
    <glyph glyph-name="uniFEBA" unicode="&#x635;" horiz-adv-x="2459" arabic-form="final" 
d="M2245 141h256v-141h-1371v-256h-432q-285 0 -432 137t-147 400v700h141v-684q0 -412 461 -412h270v1344h142v-107h534q286 -1 433 -138.5t145 -401.5v-441zM2103 602q1 195 -111 286t-315 93h-544v-840h970v461z" />
    <glyph glyph-name="uniFEBB" unicode="&#x635;" horiz-adv-x="1595" arabic-form="initial" 
d="M893 1122q286 -1 432.5 -138.5t144.5 -401.5v-582h-1470v141h217v1088h141v-107h535zM1329 602q1 195 -111 286t-315 93h-545v-840h971v461z" />
    <glyph glyph-name="uniFEBC" unicode="&#x635;" horiz-adv-x="1687" arabic-form="medial" 
d="M1470 141h259v-141h-1729v141h217v1088h141v-107h535q286 -1 432.5 -138.5t144.5 -401.5v-441zM1329 602q1 195 -111 286t-315 93h-545v-840h971v461z" />
    <glyph glyph-name="uniFEBE" unicode="&#x636;" horiz-adv-x="2459" arabic-form="final" 
d="M1647 1382q-52 0 -88.5 32t-36.5 85q0 51 36.5 84t88.5 33t87 -32.5t35 -84.5q0 -53 -36 -85t-86 -32zM2245 141h256v-141h-1371v-256h-432q-285 0 -432 137t-147 400v700h141v-684q0 -412 461 -412h270v1344h142v-107h534q286 -1 433 -138.5t145 -401.5v-441zM2103 602
q1 195 -111 286t-315 93h-544v-840h970v461z" />
    <glyph glyph-name="uniFEBF" unicode="&#x636;" horiz-adv-x="1595" arabic-form="initial" 
d="M823 1382q-52 0 -88.5 32t-36.5 85q0 51 36.5 84t88.5 33t87.5 -32.5t35.5 -84.5q0 -53 -36.5 -85t-86.5 -32zM893 1122q286 -1 432.5 -138.5t144.5 -401.5v-582h-1470v141h217v1088h141v-107h535zM1329 602q1 195 -111 286t-315 93h-545v-840h971v461z" />
    <glyph glyph-name="uniFEC0" unicode="&#x636;" horiz-adv-x="1687" arabic-form="medial" 
d="M823 1382q-52 0 -88.5 32t-36.5 85q0 51 36.5 84t88.5 33t87.5 -32.5t35.5 -84.5q0 -53 -36.5 -85t-86.5 -32zM1470 141h259v-141h-1729v141h217v1088h141v-107h535q286 -1 432.5 -138.5t144.5 -401.5v-441zM1329 602q1 195 -111 286t-315 93h-545v-840h971v461z" />
    <glyph glyph-name="uniFEC2" unicode="&#x637;" horiz-adv-x="1804" arabic-form="final" 
d="M1587 141h258v-141h-1784l31 141h242v297h-2v1225h141v-434h2v-107h535q286 -1 432.5 -138.5t144.5 -401.5v-441zM1446 602q1 195 -111 286t-315 93h-545v-840h971v461z" />
    <glyph glyph-name="uniFEC3" unicode="&#x637;" horiz-adv-x="1599" arabic-form="initial" 
d="M899 1122q286 -1 433 -138.5t145 -401.5v-582h-1477v141h223v1540h142v-559h534zM1335 602q1 195 -111 286t-315 93h-544v-840h970v461z" />
    <glyph glyph-name="uniFEC4" unicode="&#x637;" horiz-adv-x="1693" arabic-form="medial" 
d="M1477 141h258v-141h-1735v141h223v1540h142v-559h534q286 -1 433 -138.5t145 -401.5v-441zM1335 602q1 195 -111 286t-315 93h-544v-840h970v461z" />
    <glyph glyph-name="uniFEC6" unicode="&#x638;" horiz-adv-x="1804" arabic-form="final" 
d="M1587 141h258v-141h-1784l31 141h242v297h-2v1225h141v-434h2v-107h535q286 -1 432.5 -138.5t144.5 -401.5v-441zM1004 1382q-52 0 -88.5 32t-36.5 85q0 51 36.5 84t88.5 33t87 -32.5t35 -84.5q0 -53 -36 -85t-86 -32zM1446 602q1 195 -111 286t-315 93h-545v-840h971
v461z" />
    <glyph glyph-name="uniFEC7" unicode="&#x638;" horiz-adv-x="1599" arabic-form="initial" 
d="M899 1122q286 -1 433 -138.5t145 -401.5v-582h-1477v141h223v1540h142v-559h534zM893 1382q-52 0 -88.5 32t-36.5 85q0 51 36.5 84t88.5 33t87.5 -32.5t35.5 -84.5q0 -53 -36.5 -85t-86.5 -32zM1335 602q1 195 -111 286t-315 93h-544v-840h970v461z" />
    <glyph glyph-name="uniFEC8" unicode="&#x638;" horiz-adv-x="1693" arabic-form="medial" 
d="M1477 141h258v-141h-1735v141h223v1540h142v-559h534q286 -1 433 -138.5t145 -401.5v-441zM893 1382q-52 0 -88.5 32t-36.5 85q0 51 36.5 84t88.5 33t87.5 -32.5t35.5 -84.5q0 -53 -36.5 -85t-86.5 -32zM1335 602q1 195 -111 286t-315 93h-544v-840h970v461z" />
    <glyph glyph-name="uniFECA" unicode="&#x639;" horiz-adv-x="1454" arabic-form="final" 
d="M1495 141v-141h-936q-98 0 -156.5 -43t-99.5 -145l-113 -279l-129 49l121 297q51 127 121.5 187.5t183.5 72.5l-290 764q287 240 587 240q294 0 586 -240l-293 -762h418zM938 141l276 690q-207 168 -430 168q-220 0 -430 -165l267 -693h317z" />
    <glyph glyph-name="uniFECB" unicode="&#x639;" horiz-adv-x="1247" arabic-form="initial" 
d="M1130 141v-141h-1130v141h293q-127 279 -127 471q0 250 138 390.5t370 140.5q164 0 405 -107l-47 -129q-216 94 -348 94q-174 0 -278.5 -109t-104.5 -300q0 -100 41.5 -218.5t116.5 -232.5h671z" />
    <glyph glyph-name="uniFECC" unicode="&#x639;" horiz-adv-x="1347" arabic-form="medial" 
d="M1389 141v-141h-1389v141h373l-291 762q287 240 588 240q293 0 585 -240l-292 -762h426zM823 141l277 690q-207 168 -430 168q-220 0 -430 -165l266 -693h317z" />
    <glyph glyph-name="uniFECE" unicode="&#x63a;" horiz-adv-x="1454" arabic-form="final" 
d="M782 1403q-52 0 -88.5 32t-36.5 85q0 51 36.5 83.5t88.5 32.5t87.5 -32.5t35.5 -83.5q0 -53 -36.5 -85t-86.5 -32zM1495 141v-141h-936q-98 0 -156.5 -43t-99.5 -145l-113 -279l-129 49l121 297q51 127 121.5 187.5t183.5 72.5l-290 764q287 240 587 240q294 0 586 -240
l-293 -762h418zM938 141l276 690q-207 168 -430 168q-220 0 -430 -165l267 -693h317z" />
    <glyph glyph-name="uniFECF" unicode="&#x63a;" horiz-adv-x="1247" arabic-form="initial" 
d="M674 1403q-52 0 -88.5 32t-36.5 85q0 51 36.5 83.5t88.5 32.5t87.5 -32.5t35.5 -83.5q0 -53 -36.5 -85t-86.5 -32zM1130 141v-141h-1130v141h293q-127 279 -127 471q0 250 138 390.5t370 140.5q164 0 405 -107l-47 -129q-216 94 -348 94q-174 0 -278.5 -109t-104.5 -300
q0 -100 41.5 -218.5t116.5 -232.5h671z" />
    <glyph glyph-name="uniFED0" unicode="&#x63a;" horiz-adv-x="1347" arabic-form="medial" 
d="M674 1403q-52 0 -88.5 32t-36.5 85q0 51 36.5 83.5t88.5 32.5t87.5 -32.5t35.5 -83.5q0 -53 -36.5 -85t-86.5 -32zM1389 141v-141h-1389v141h373l-291 762q287 240 588 240q293 0 585 -240l-292 -762h426zM823 141l277 690q-207 168 -430 168q-220 0 -430 -165l266 -693
h317z" />
    <glyph glyph-name="uniFED2" unicode="&#x641;" horiz-adv-x="2064" arabic-form="final" 
d="M1485 1382q-52 0 -88.5 32t-36.5 85q0 51 36.5 84t88.5 33t87.5 -32.5t35.5 -84.5q0 -53 -36.5 -85t-86.5 -32zM1847 141h258v-141h-266h-12h-266h-863q-579 0 -579 541v393h139v-379q0 -414 469 -414h393q-186 153 -186 414v2q0 255 176.5 410t466.5 155h270v-981z
M1550 141h156v840h-156q-216 0 -348.5 -115.5t-132.5 -308.5v-2q0 -187 133 -300.5t348 -113.5z" />
    <glyph glyph-name="uniFED3" unicode="&#x641;" horiz-adv-x="1234" arabic-form="initial" 
d="M829 1382q-52 0 -88 31.5t-36 85.5q0 51 36 84t88 33t87.5 -32.5t35.5 -84.5q0 -53 -36.5 -85t-86.5 -32zM821 1122h271v-1122h-9h-278h-805v141h365q-187 154 -187 414v2q0 255 176.5 410t466.5 155zM795 141h155v840h-155q-216 0 -349 -115.5t-133 -308.5v-2
q0 -187 133.5 -300.5t348.5 -113.5z" />
    <glyph glyph-name="uniFED4" unicode="&#x641;" horiz-adv-x="1308" arabic-form="medial" 
d="M829 1382q-52 0 -88 31.5t-36 85.5q0 51 36 84t88 33t87.5 -32.5t35.5 -84.5q0 -53 -36.5 -85t-86.5 -32zM1092 141h258v-141h-267h-12h-266h-805v141h365q-187 154 -187 414v2q0 255 176.5 410t466.5 155h271v-981zM795 141h155v840h-155q-216 0 -349 -115.5
t-133 -308.5v-2q0 -187 133.5 -300.5t348.5 -113.5z" />
    <glyph glyph-name="uniFED6" unicode="&#x642;" horiz-adv-x="1751" arabic-form="final" 
d="M1047 1368q-52 0 -87.5 32t-35.5 85q0 50 35 82t88 32q52 0 87 -32t35 -82q0 -53 -35.5 -85t-86.5 -32zM1395 1368q-52 0 -87.5 32t-35.5 85q0 50 35 82t88 32q52 0 87.5 -32t35.5 -82q0 -52 -36 -84.5t-87 -32.5zM1792 141v-141h-258v-451h-836q-579 0 -579 541v469h139
v-455q0 -413 469 -413h666v329h-146q-283 0 -454.5 144.5t-171.5 390.5v2q0 255 176.5 410t466.5 155h270v-981h258zM1237 141h156v840h-156q-216 0 -348.5 -115.5t-132.5 -308.5v-2q0 -187 133 -300.5t348 -113.5z" />
    <glyph glyph-name="uniFED7" unicode="&#x642;" horiz-adv-x="1234" arabic-form="initial" 
d="M655 1368q-52 0 -87.5 32t-35.5 85q0 50 35 82t88 32q52 0 87.5 -32t35.5 -82q0 -52 -36 -84.5t-87 -32.5zM1004 1599q52 0 87 -32t35 -82q0 -53 -35.5 -85t-86.5 -32q-52 0 -87.5 32t-35.5 85q0 50 35 82t88 32zM178 557q0 255 176.5 410t466.5 155h271v-1122h-9h-278
h-805v141h365q-187 154 -187 414v2zM950 141v840h-155q-216 0 -349 -115.5t-133 -308.5v-2q0 -187 133.5 -300.5t348.5 -113.5h155z" />
    <glyph glyph-name="uniFED8" unicode="&#x642;" horiz-adv-x="1308" arabic-form="medial" 
d="M655 1368q-52 0 -87.5 32t-35.5 85q0 50 35 82t88 32q52 0 87.5 -32t35.5 -82q0 -52 -36 -84.5t-87 -32.5zM1004 1368q-52 0 -87.5 32t-35.5 85q0 50 35 82t88 32q52 0 87 -32t35 -82q0 -53 -35.5 -85t-86.5 -32zM1092 141h258v-141h-267h-12h-266h-805v141h365
q-187 154 -187 414v2q0 255 176.5 410t466.5 155h271v-981zM795 141h155v840h-155q-216 0 -349 -115.5t-133 -308.5v-2q0 -187 133.5 -300.5t348.5 -113.5z" />
    <glyph glyph-name="uniFEDA" unicode="&#x643;" horiz-adv-x="1654" arabic-form="final" 
d="M1446 141h250v-141h-998q-579 0 -579 541v393h139v-379q0 -414 469 -414h578v1520h141v-1520zM1016 1028v-110h-406v223q0 103 56 159t159 56h109v-86h-100q-129 0 -129 -125v-117h311z" />
    <glyph glyph-name="uniFEDB" unicode="&#x643;" horiz-adv-x="1320" arabic-form="initial" 
d="M0 0v141h1055v412q0 319 -316 319h-561q-47 58 -53 142l330 647h172l-342 -647h440q473 0 473 -477v-537h-1198z" />
    <glyph glyph-name="uniFEDC" unicode="&#x643;" horiz-adv-x="1415" arabic-form="medial" 
d="M1198 141h258v-141h-1456v141h1055v412q0 319 -316 319h-561q-47 58 -53 142l330 647h172l-342 -647h440q473 0 473 -477v-396z" />
    <glyph glyph-name="uniFEDE" unicode="&#x644;" horiz-adv-x="1347" arabic-form="final" 
d="M1389 141v-141h-259v-256h-432q-285 0 -432 137t-147 400v700h141v-684q0 -412 461 -412h270v553h-2v1225h141v-1522h259z" />
    <glyph glyph-name="uniFEDF" unicode="&#x644;" horiz-adv-x="655" arabic-form="initial" 
d="M328 1661h141v-1661h-500v141h359v1520z" />
    <glyph glyph-name="uniFEE0" unicode="&#x644;" horiz-adv-x="606" arabic-form="medial" 
d="M389 141h258v-141h-647v141h248v1520h141v-1520z" />
    <glyph glyph-name="uniFEE2" unicode="&#x645;" horiz-adv-x="1839" arabic-form="final" 
d="M1880 141v-141h-297q-71 -105 -185 -163t-255 -58h-2q-231 0 -380 144t-169 384q-162 -7 -247 -113.5t-85 -297.5v-347h-141v369q0 250 123.5 387.5t349.5 143.5q22 243 170.5 387.5t378.5 144.5h2q246 0 396.5 -165.5t150.5 -438.5v-2q0 -130 -37 -234h227zM1548 379v2
q0 206 -111 332.5t-294 126.5h-2q-184 0 -296 -126.5t-112 -332.5v-2q0 -206 112 -331.5t296 -125.5h2q182 0 293.5 126t111.5 331z" />
    <glyph glyph-name="uniFEE3" unicode="&#x645;" horiz-adv-x="1382" arabic-form="initial" 
d="M737 981q246 0 396.5 -165.5t150.5 -438.5v-2q0 -266 -151 -431t-396 -165h-2q-143 0 -257 57.5t-187 163.5h-291v141h221q-37 104 -37 234v2q0 273 151.5 438.5t399.5 165.5h2zM1143 379v2q0 206 -111.5 332.5t-294.5 126.5h-2q-184 0 -295.5 -126.5t-111.5 -332.5v-2
q0 -206 111.5 -331.5t295.5 -125.5h2q183 0 294.5 126.5t111.5 330.5z" />
    <glyph glyph-name="uniFEE4" unicode="&#x645;" horiz-adv-x="1447" arabic-form="medial" 
d="M1489 141v-141h-311q-71 -105 -185.5 -163t-255.5 -58h-2q-143 0 -257 57.5t-187 163.5h-291v141h221q-37 104 -37 234v2q0 273 151.5 438.5t399.5 165.5h2q246 0 396.5 -165.5t150.5 -438.5v-2q0 -130 -37 -234h242zM1143 379v2q0 206 -111.5 332.5t-294.5 126.5h-2
q-184 0 -295.5 -126.5t-111.5 -332.5v-2q0 -206 111.5 -331.5t295.5 -125.5h2q183 0 294.5 126.5t111.5 330.5z" />
    <glyph glyph-name="uniFEE6" unicode="&#x646;" horiz-adv-x="1347" arabic-form="final" 
d="M631 1241q-52 0 -88.5 32t-36.5 85q0 51 36.5 84t88.5 33t87.5 -32.5t35.5 -84.5q0 -53 -36.5 -85t-86.5 -32zM1389 141v-141h-259v-256h-432q-285 0 -432 137t-147 400v700h141v-684q0 -412 461 -412h270v1096h139v-840h259z" />
    <glyph glyph-name="uniFEE7" unicode="&#x646;" horiz-adv-x="501" arabic-form="initial" 
d="M291 1382q-52 0 -88.5 32t-36.5 85q0 51 36.5 84t88.5 33t87.5 -32.5t35.5 -84.5q0 -53 -36.5 -85t-86.5 -32zM0 0v141h217v981h141v-1122h-358z" />
    <glyph glyph-name="uniFEE8" unicode="&#x646;" horiz-adv-x="575" arabic-form="medial" 
d="M289 1382q-52 0 -88.5 32t-36.5 85q0 51 36.5 84t88.5 33t87.5 -32.5t35.5 -84.5q0 -53 -36.5 -85t-86.5 -32zM358 141h258v-141h-616v141h217v981h141v-981z" />
    <glyph glyph-name="uniFEE9" unicode="&#x647;" horiz-adv-x="1703" arabic-form="isolated" 
d="M836 1341q171 0 313.5 -55t245.5 -158.5t160 -261.5t57 -356q0 -200 -56 -510h-1495l31 141h268q-32 128 -32 258q0 219 120 353.5t310 134.5q189 0 307.5 -133.5t118.5 -350.5q0 -127 -33 -262h285q32 222 32 359q0 335 -175.5 516.5t-477.5 181.5q-127 0 -240.5 -31
t-238.5 -98l-51 127q289 145 551 145zM756 743q-129 0 -208 -98.5t-79 -259.5q0 -123 31 -244h514q28 109 28 244q0 161 -78.5 259.5t-207.5 98.5z" />
    <glyph glyph-name="uniFEEA" unicode="&#x647;" horiz-adv-x="1243" arabic-form="final" 
d="M1026 141h258v-141h-399h-146q-282 0 -454 152.5t-172 402.5v2q0 255 176.5 410t466.5 155h129v103h141v-1084zM885 141v840h-156q-216 0 -348.5 -115.5t-132.5 -308.5v-2q0 -187 133 -300.5t348 -113.5h156z" />
    <glyph glyph-name="uniFEEB" unicode="&#x647;" horiz-adv-x="1636" arabic-form="initial" 
d="M743 1341q171 0 313.5 -55t245.5 -158.5t160.5 -261.5t57.5 -356q0 -200 -56 -510h-1464v141h268q-32 128 -32 258q0 219 120 353.5t310 134.5q189 0 307.5 -133.5t118.5 -350.5q0 -127 -33 -262h284q33 229 33 359q0 335 -175.5 516.5t-477.5 181.5q-127 0 -240.5 -31
t-238.5 -98l-51 127q289 145 550 145zM377 385q0 -123 31 -244h514q28 109 28 244q0 161 -78.5 259.5t-207.5 98.5t-208 -98.5t-79 -259.5z" />
    <glyph glyph-name="uniFEEC" unicode="&#x647;" horiz-adv-x="1742" arabic-form="medial" 
d="M1487 141h297v-141h-1784v141h268q-32 128 -32 258q0 219 120 353.5t310 134.5q189 0 307.5 -133.5t118.5 -350.5q0 -127 -33 -262h284q33 229 33 359q0 335 -175.5 516.5t-477.5 181.5q-127 0 -240.5 -31t-238.5 -98l-51 127q289 145 550 145q171 0 313.5 -55
t245.5 -158.5t160.5 -261.5t57.5 -356q0 -158 -33 -369zM377 385q0 -123 31 -244h514q28 109 28 244q0 161 -78.5 259.5t-207.5 98.5t-208 -98.5t-79 -259.5z" />
    <glyph glyph-name="uniFEEE" unicode="&#x648;" horiz-adv-x="1243" arabic-form="final" 
d="M1284 141v-141h-258v-29q0 -225 -106 -323.5t-318 -98.5q-164 0 -346 68l-25 150q205 -76 365 -76q136 0 212.5 62t76.5 194v53h-146q-282 0 -454 152.5t-172 402.5v2q0 255 176.5 410t466.5 155h270v-981h258zM729 141h156v840h-156q-216 0 -348.5 -115.5t-132.5 -308.5
v-2q0 -187 133 -300.5t348 -113.5z" />
    <glyph glyph-name="uniFEF0" unicode="&#x649;" horiz-adv-x="2131" arabic-form="final" 
d="M1915 141h258v-141h-397v987h-240q-146 0 -224.5 -87t-76.5 -228v-928h-537q-579 0 -579 541v469h139v-455q0 -414 469 -414h367v766q-1 231 121 351t341 120h359v-981z" />
    <glyph glyph-name="uniFEF2" unicode="&#x64a;" horiz-adv-x="2131" arabic-form="final" 
d="M1915 141h258v-141h-397v987h-240q-146 0 -224.5 -87t-76.5 -228v-928h-537q-579 0 -579 541v469h139v-455q0 -414 469 -414h367v766q-1 231 121 351t341 120h359v-981zM651 -502q52 0 87.5 -33t35.5 -83q0 -51 -36 -83t-87 -32q-52 0 -87.5 32t-35.5 83t35 83.5t88 32.5
zM999 -502q52 0 87.5 -33t35.5 -83q0 -51 -36 -83t-87 -32q-52 0 -87 32t-35 83t34.5 83.5t87.5 32.5z" />
    <glyph glyph-name="uniFEF3" unicode="&#x64a;" horiz-adv-x="679" arabic-form="initial" 
d="M0 0v141h395v981h142v-1122h-537zM106 -477q-52 0 -87 32t-35 83t34.5 83.5t87.5 32.5q52 0 87.5 -33t35.5 -83q0 -51 -36 -83t-87 -32zM455 -477q-52 0 -87.5 32t-35.5 83t35 83.5t88 32.5q52 0 87.5 -33t35.5 -83q0 -51 -36 -83t-87 -32z" />
    <glyph glyph-name="uniFEF4" unicode="&#x64a;" horiz-adv-x="800" arabic-form="medial" 
d="M842 141v-141h-842v141h330v981h141v-981h371zM229 -246q52 0 87.5 -33t35.5 -83q0 -51 -36 -83t-87 -32q-52 0 -87.5 32t-35.5 83t35 83.5t88 32.5zM578 -246q52 0 87 -33t35 -83q0 -51 -35.5 -83t-86.5 -32q-52 0 -87.5 32t-35.5 83t35 83.5t88 32.5z" />
    <glyph glyph-name=".notdef" horiz-adv-x="1024" 
 />
    <glyph glyph-name=".null" horiz-adv-x="1024" 
 />
    <glyph glyph-name="nonmarkingreturn" horiz-adv-x="682" 
 />
    <glyph glyph-name="CR" unicode="&#xd;" horiz-adv-x="1024" 
 />
    <glyph glyph-name="space" unicode=" " horiz-adv-x="385" 
 />
    <glyph glyph-name="exclam" unicode="!" horiz-adv-x="550" 
d="M205 465v1196h141v-1196h-141zM276 -16q-52 0 -88 31.5t-36 84.5q0 50 36 82.5t88 32.5t87.5 -32.5t35.5 -82.5q0 -53 -36.5 -84.5t-86.5 -31.5z" />
    <glyph glyph-name="quotedbl" unicode="&#x22;" horiz-adv-x="878" 
d="M221 1051l-22 612h139l-27 -612h-90zM567 1051l-22 612h139l-27 -612h-90z" />
    <glyph glyph-name="numbersign" unicode="#" horiz-adv-x="2027" 
d="M522 0l66 489h-352l14 115h354l66 486h-351l15 112h352l64 463h137l-64 -463h475l66 463h137l-61 -463h352l-12 -112h-357l-65 -486h350l-12 -115h-353l-65 -489h-139l65 489h-479l-66 -489h-137zM741 604h480l65 486h-479z" />
    <glyph glyph-name="dollar" unicode="$" horiz-adv-x="1447" 
d="M803 911q255 -76 367 -185t112 -277v-5q-1 -193 -130 -316t-355 -146v-228h-144v223q-133 6 -257.5 46.5t-221.5 111.5l57 119q188 -136 422 -145v702l-43 12q-215 68 -310 172.5t-95 278.5v4q2 170 120.5 279t327.5 126v226h144v-226q259 -19 434 -139l-55 -119
q-154 109 -379 129v-641q1 0 3 -1t3 -1zM348 1280q0 -69 18.5 -119.5t60.5 -88t93.5 -63t132.5 -53.5v596q-149 -15 -227 -87.5t-78 -180.5v-4zM1137 440v4q0 116 -75.5 187.5t-264.5 134.5v-653q160 23 250 110.5t90 216.5z" />
    <glyph glyph-name="percent" unicode="%" horiz-adv-x="2703" 
d="M868 0l873 1661h149l-872 -1661h-150zM541 588q-221 0 -345 129.5t-124 359.5v2q0 233 123.5 362.5t345.5 129.5q220 0 343.5 -129.5t123.5 -362.5v-2q0 -230 -123.5 -359.5t-343.5 -129.5zM541 702q152 0 237.5 99t85.5 276v2q0 178 -85 276.5t-238 98.5
q-154 0 -240 -98.5t-86 -276.5v-2q0 -177 86 -276t240 -99zM2165 -27q-221 0 -345 130t-124 360v2q0 233 123.5 362t345.5 129q220 0 343.5 -129t123.5 -362v-2q0 -230 -123.5 -360t-343.5 -130zM2165 88q152 0 237.5 99t85.5 276v2q0 178 -85 276.5t-238 98.5
q-154 0 -240 -98.5t-86 -276.5v-2q0 -177 86 -276t240 -99z" />
    <glyph glyph-name="ampersand" unicode="&#x26;" horiz-adv-x="1634" 
d="M1528 0h-185l-172 195q-224 -218 -518 -218q-251 0 -397.5 123.5t-146.5 333.5v4q0 163 105.5 278.5t324.5 203.5q-112 132 -156.5 221t-44.5 207v2q0 147 121.5 241.5t314.5 94.5q189 0 299.5 -97t110.5 -252v-2q0 -135 -99 -246.5t-333 -203.5l428 -492
q63 102 88.5 192.5t58.5 286.5h131q-27 -154 -45 -231t-54 -164.5t-95 -175.5zM477 1343v-2q0 -87 39 -155t141 -193q11 -13 17 -20q207 80 295 167t88 189v4q0 106 -77 169t-210 63q-132 0 -212.5 -61t-80.5 -161zM254 436q0 -152 112 -245t300 -93q233 0 428 185l-478 548
q-187 -72 -274.5 -164t-87.5 -225v-6z" />
    <glyph glyph-name="quotesingle" unicode="'" horiz-adv-x="534" 
d="M221 1051l-22 612h139l-27 -612h-90z" />
    <glyph glyph-name="parenleft" unicode="(" horiz-adv-x="651" 
d="M444 -451q-118 191 -203 475.5t-85 583.5q0 298 85 579.5t203 473.5h148q-127 -224 -205 -494t-78 -559t78.5 -561.5t204.5 -497.5h-148z" />
    <glyph glyph-name="parenright" unicode=")" horiz-adv-x="651" 
d="M29 -451q127 223 205.5 496t78.5 563t-78.5 560.5t-205.5 492.5h147q119 -193 205 -474t86 -579t-86 -582.5t-205 -476.5h-147z" />
    <glyph glyph-name="asterisk" unicode="*" horiz-adv-x="870" 
d="M227 967l-71 49l184 258l-303 106l29 80l303 -106v309h88v-307l307 102l31 -82l-308 -102l187 -254l-70 -53l-190 260z" />
    <glyph glyph-name="plus" unicode="+" horiz-adv-x="1388" 
d="M623 -2v514h-490v129h490v481h143v-481h489v-129h-489v-514h-143z" />
    <glyph glyph-name="comma" unicode="," horiz-adv-x="413" 
d="M-6 -340l196 559h152l-227 -559h-121z" />
    <glyph glyph-name="hyphen" unicode="-" horiz-adv-x="1069" 
d="M133 512v109h803v-109h-803z" />
    <glyph glyph-name="period" unicode="." horiz-adv-x="329" 
d="M166 -20q-52 0 -88.5 31.5t-36.5 84.5q0 50 36.5 82.5t88.5 32.5t87.5 -32.5t35.5 -82.5q0 -53 -36.5 -84.5t-86.5 -31.5z" />
    <glyph glyph-name="slash" unicode="/" horiz-adv-x="1187" 
d="M-47 -307l1110 1968h156l-1108 -1968h-158z" />
    <glyph glyph-name="zero" unicode="0" horiz-adv-x="1558" 
d="M780 -23q-302 0 -474.5 223.5t-172.5 626.5v2q0 406 173 632.5t474 226.5q300 0 472.5 -226.5t172.5 -632.5v-2q0 -403 -172.5 -626.5t-472.5 -223.5zM780 113q233 0 365.5 187.5t132.5 526.5v2q0 342 -132.5 532.5t-365.5 190.5q-234 0 -366.5 -190t-132.5 -533v-2
q0 -339 132 -526.5t367 -187.5z" />
    <glyph glyph-name="one" unicode="1" horiz-adv-x="806" 
d="M428 0v1516l-381 -107v131l524 129v-1669h-143z" />
    <glyph glyph-name="two" unicode="2" horiz-adv-x="1398" 
d="M94 0v129q257 187 428 327t299.5 274t187 250.5t58.5 229.5v4q0 157 -111.5 244.5t-306.5 87.5q-241 0 -432 -145l-65 125q223 160 516 160q253 0 399.5 -115t146.5 -328v-4q0 -254 -201 -499t-698 -607h942v-133h-1163z" />
    <glyph glyph-name="three" unicode="3" horiz-adv-x="1339" 
d="M864 870q168 -36 258 -144.5t90 -268.5v-8q0 -217 -167.5 -343t-460.5 -126q-143 0 -281 40.5t-246 116.5l68 123q191 -145 440 -145q225 0 360.5 88.5t135.5 245.5v8q0 167 -139 251.5t-394 84.5h-30v139h30q221 0 358.5 79.5t137.5 231.5v6q0 142 -116.5 220.5
t-313.5 78.5q-255 0 -444 -141l-68 121q107 76 247 117t281 41q262 0 409.5 -108t147.5 -304v-8q0 -139 -80 -245.5t-223 -150.5z" />
    <glyph glyph-name="four" unicode="4" horiz-adv-x="1515" 
d="M1010 0v440h-934v135l895 1086h180v-1086h311v-135h-311v-440h-141zM236 575h774v934z" />
    <glyph glyph-name="five" unicode="5" horiz-adv-x="1437" 
d="M698 1075q126 0 234.5 -36.5t190.5 -105.5t128.5 -176t46.5 -239v-4q0 -254 -171 -395.5t-463 -141.5q-304 0 -549 158l65 127q96 -71 218 -109t249 -38q235 0 370 106t136 295v2q0 206 -142 313t-390 107q-194 0 -418 -78l92 801h924v-137h-789l-57 -484q136 35 325 35z
" />
    <glyph glyph-name="six" unicode="6" horiz-adv-x="1484" 
d="M770 1137q259 0 423.5 -158.5t164.5 -403.5v-6q0 -270 -166 -430.5t-447 -161.5q-285 0 -452 158t-168 432v6q0 207 164 431q113 162 481 657h162q-27 -36 -186 -250.5t-242 -323.5q105 50 266 50zM1212 549v4q0 206 -127.5 330t-341.5 125q-215 0 -344 -124t-129 -331
v-4q0 -201 129 -322t344 -121q214 1 341.5 122t127.5 321z" />
    <glyph glyph-name="seven" unicode="7" horiz-adv-x="1275" 
d="M180 0l877 1528h-1008v133h1168v-133l-865 -1528h-172z" />
    <glyph glyph-name="eight" unicode="8" horiz-adv-x="1486" 
d="M743 -23q-106 0 -198.5 18t-170 55t-133 90.5t-86 128.5t-30.5 165q0 175 99.5 293.5t258.5 155.5q-130 31 -218.5 134t-88.5 251q0 202 156.5 310t410.5 108q166 0 291.5 -45.5t200 -141t74.5 -231.5q0 -149 -88 -251.5t-220 -133.5q159 -37 259 -155.5t100 -293.5
q0 -90 -31 -165t-86 -128.5t-132.5 -90.5t-170 -55t-197.5 -18zM743 944q192 0 306 82t114 231q0 145 -111 224.5t-309 79.5q-201 0 -312.5 -79.5t-111.5 -224.5q0 -149 115 -231t309 -82zM743 98q221 0 345 91t124 260q0 177 -127 273.5t-342 96.5q-216 0 -343.5 -96.5
t-127.5 -273.5q0 -168 125 -259.5t346 -91.5z" />
    <glyph glyph-name="nine" unicode="9" horiz-adv-x="1499" 
d="M754 1683q285 0 452 -157.5t168 -431.5v-7q0 -206 -164 -430q-113 -162 -481 -657h-162q44 59 131 176t160.5 215.5t136.5 181.5q-103 -49 -266 -49q-259 0 -423.5 158t-164.5 403v7q0 270 166 429.5t447 161.5zM1229 1108v4q0 201 -129 321.5t-344 120.5
q-214 -1 -341.5 -121.5t-127.5 -320.5v-4q0 -206 127.5 -330t341.5 -125q215 0 344 124t129 331z" />
    <glyph glyph-name="colon" unicode=":" horiz-adv-x="376" 
d="M166 782q-52 0 -88.5 32t-36.5 85q0 50 36.5 82.5t88.5 32.5t87.5 -32.5t35.5 -82.5q0 -53 -36.5 -85t-86.5 -32zM166 -20q-52 0 -88.5 31.5t-36.5 84.5q0 50 36.5 82.5t88.5 32.5t87.5 -32.5t35.5 -82.5q0 -53 -36.5 -84.5t-86.5 -31.5z" />
    <glyph glyph-name="semicolon" unicode=";" horiz-adv-x="458" 
d="M244 782q-52 0 -88.5 32t-36.5 85q0 50 36.5 82.5t88.5 32.5t87.5 -32.5t35.5 -82.5q0 -53 -36.5 -85t-86.5 -32zM-6 -340l196 559h152l-227 -559h-121z" />
    <glyph glyph-name="less" unicode="&#x3c;" horiz-adv-x="1425" 
d="M1323 0l-1223 498v120l1223 504v-139l-1044 -426l1044 -418v-139z" />
    <glyph glyph-name="equal" unicode="=" horiz-adv-x="1359" 
d="M133 715v133h1073v-133h-1073zM133 264v133h1073v-133h-1073z" />
    <glyph glyph-name="greater" unicode="&#x3e;" horiz-adv-x="1425" 
d="M102 0v139l1045 418l-1045 426v139l1223 -504v-120z" />
    <glyph glyph-name="question" unicode="?" horiz-adv-x="1089" 
d="M383 496l-2 340q109 30 184 61.5t138.5 77.5t94.5 110t31 148v14q0 299 -354 299q-188 0 -366 -78l24 144q168 71 373 71q230 0 351.5 -103.5t121.5 -307.5v-17q0 -99 -33.5 -180.5t-96 -142t-143 -104.5t-184.5 -78v-254h-139zM451 -16q-52 0 -88.5 31.5t-36.5 84.5
q0 50 36.5 82.5t88.5 32.5t87 -32.5t35 -82.5q0 -53 -36 -84.5t-86 -31.5z" />
    <glyph glyph-name="at" unicode="@" horiz-adv-x="2072" 
d="M1094 1679q192 0 353.5 -53t276 -149.5t178 -237t62.5 -309.5q0 -78 -8.5 -149.5t-27 -142t-50 -127.5t-74.5 -101.5t-104.5 -69.5t-136.5 -25q-138 0 -208.5 55t-84.5 165q-104 -218 -357 -218q-222 0 -336.5 137.5t-80.5 360.5q39 242 204 367t430 125
q76 0 183.5 -15.5t175.5 -38.5l-78 -532q-24 -166 10.5 -230.5t139.5 -62.5q73 1 128 44t85.5 117t45 161t13.5 186q-5 302 -195 464.5t-540 162.5q-385 0 -616 -205t-240 -572q-6 -229 87.5 -396.5t262 -253t391.5 -85.5q143 0 256 22.5t240 67.5l51 -114
q-142 -52 -268.5 -72.5t-274.5 -20.5q-208 0 -376.5 62t-280 174t-169 270.5t-50.5 347.5q14 411 277 651t706 240zM1282 766l64 403q-127 27 -228 27q-201 0 -331.5 -100.5t-159.5 -286.5q-28 -189 53.5 -284t243.5 -95q302 0 358 336z" />
    <glyph glyph-name="A" unicode="A" horiz-adv-x="1552" 
d="M1352 0l-203 532h-748l-200 -532h-148l633 1661h172l643 -1661h-149zM768 1503l-322 -841h656l-324 841l-6 15z" />
    <glyph glyph-name="B" unicode="B" horiz-adv-x="1505" 
d="M999 877q185 -26 283 -130.5t98 -279.5v-2q0 -121 -43.5 -212t-123.5 -145.5t-185 -81t-235 -26.5h-557v1661h509q564 0 564 -399v-2q0 -151 -82 -250.5t-228 -132.5zM748 1526h-369v-608h371q204 0 309.5 78.5t105.5 234.5v2q0 80 -29 137.5t-85.5 91t-130.5 49
t-172 15.5zM1235 477v2q0 163 -112 243.5t-310 80.5h-434v-666h432q207 0 315.5 89t108.5 251z" />
    <glyph glyph-name="C" unicode="C" horiz-adv-x="1603" 
d="M965 -23q-243 0 -438 108t-306 303t-112 441v2q0 246 111 442t306.5 304.5t438.5 108.5h2q289 0 526 -164l-57 -123q-214 147 -463 147h-2q-141 0 -268 -48.5t-225 -137t-156 -226t-58 -303.5v-2q1 -166 59 -302.5t155.5 -225t224 -136.5t266.5 -48h2q256 0 465 143
l57 -121q-232 -162 -526 -162h-2z" />
    <glyph glyph-name="D" unicode="D" horiz-adv-x="1681" 
d="M688 1661q199 0 363 -58.5t277.5 -165.5t176 -261t62.5 -340v-2q-1 -188 -64 -343.5t-176.5 -263.5t-277.5 -167.5t-361 -59.5h-452v1661h452zM1411 834v2q0 320 -189.5 506t-516.5 186h-326v-1393h326q326 0 516 188.5t190 510.5z" />
    <glyph glyph-name="E" unicode="E" horiz-adv-x="1388" 
d="M236 0v1661h974v-133h-831v-600h751v-135h-751v-658h842v-135h-985z" />
    <glyph glyph-name="F" unicode="F" horiz-adv-x="1347" 
d="M236 0v1661h960v-133h-817v-602h733v-133h-733v-793h-143z" />
    <glyph glyph-name="G" unicode="G" horiz-adv-x="1646" 
d="M870 829h656v-688q-112 -78 -260 -121t-301 -43q-244 0 -439 108.5t-305.5 303t-111.5 440.5v2q0 185 64.5 344t177.5 271t272 176t342 64q297 0 548 -164l-57 -129q-211 153 -485 153q-112 0 -216.5 -30t-194 -90.5t-156 -145t-104.5 -200t-38 -249.5v-2
q1 -165 59 -301.5t156.5 -225t225.5 -137t268 -48.5q240 0 420 123v456h-521v133z" />
    <glyph glyph-name="H" unicode="H" horiz-adv-x="1718" 
d="M236 0v1661h143v-735h960v735h144v-1661h-144v791h-960v-791h-143z" />
    <glyph glyph-name="I" unicode="I" horiz-adv-x="612" 
d="M236 0v1661h143v-1661h-143z" />
    <glyph glyph-name="J" unicode="J" horiz-adv-x="923" 
d="M326 -23q-157 0 -303 66l53 123q111 -49 221 -49q250 0 250 295v1249h143v-1274q0 -199 -94.5 -304.5t-269.5 -105.5z" />
    <glyph glyph-name="K" unicode="K" horiz-adv-x="1497" 
d="M543 836l876 -836h-200l-842 795v-795h-141v1661h141v-807l799 807h178z" />
    <glyph glyph-name="L" unicode="L" horiz-adv-x="1335" 
d="M236 0v1661h143v-1526h788v-135h-931z" />
    <glyph glyph-name="M" unicode="M" horiz-adv-x="2002" 
d="M1587 1661h180v-1661h-141v1432l-24 -78l-533 -1354h-135l-537 1356l-20 67v-1423h-141v1661h178l516 -1307l71 -219l70 217z" />
    <glyph glyph-name="N" unicode="N" horiz-adv-x="1716" 
d="M1337 1661h142v-1661h-168l-934 1456v-1456h-141v1661h165l936 -1456v1456z" />
    <glyph glyph-name="O" unicode="O" horiz-adv-x="1828" 
d="M913 -23q-181 0 -333 68t-254 184.5t-159 272.5t-58 332v2q0 177 56.5 332.5t158.5 270t254.5 181t334.5 66.5h2q182 0 334.5 -66.5t255 -181t159 -270t56.5 -332.5v-2q0 -175 -57 -331.5t-159.5 -273t-255 -184.5t-333.5 -68h-2zM913 117h5q192 0 343 95t233.5 258.5
t82.5 365.5v4q0 152 -48 283t-133 224t-208.5 146t-269.5 53h-5q-195 0 -346 -91t-232 -251t-81 -364v-4q1 -202 82.5 -365.5t232.5 -258.5t344 -95z" />
    <glyph glyph-name="P" unicode="P" horiz-adv-x="1447" 
d="M762 1661q152 0 265.5 -36.5t180.5 -103.5t99 -153t32 -192v-2q-1 -248 -152 -378t-423 -130h-385v-666h-143v1661h526zM1194 1169v2q0 357 -434 357h-381v-727h381q434 0 434 368z" />
    <glyph glyph-name="Q" unicode="Q" horiz-adv-x="1900" 
d="M1792 -102l-96 -95l-314 318q-203 -144 -467 -144h-2q-181 0 -333 68t-254 184.5t-159 272.5t-58 332v2q0 177 56.5 332.5t158.5 270t254.5 181t334.5 66.5h2q182 0 334.5 -66.5t255 -181t159 -270t56.5 -332.5v-2q0 -184 -61.5 -345t-175.5 -280zM918 117q203 0 362 106
l-227 230l96 94l233 -236q93 98 144 233.5t51 291.5v4q0 152 -48 283t-133 224t-208.5 146t-269.5 53h-5q-195 0 -346 -91t-232 -251t-81 -364v-4q1 -202 82.5 -365.5t232.5 -258.5t344 -95h5z" />
    <glyph glyph-name="R" unicode="R" horiz-adv-x="1568" 
d="M1298 0l-467 705h-452v-705h-143v1661h614q279 0 428 -123.5t149 -341.5v-2q0 -195 -117.5 -322.5t-328.5 -158.5l479 -713h-162zM379 1528v-697h491q188 0 300 95.5t112 261.5v2q0 163 -111 250.5t-301 87.5h-491z" />
    <glyph glyph-name="S" unicode="S" horiz-adv-x="1447" 
d="M698 -23q-144 0 -281.5 40.5t-242.5 117.5l57 119q97 -71 218 -109.5t245 -38.5q204 0 323.5 92t119.5 242v4q0 123 -86.5 196.5t-305.5 141.5q-59 18 -135 41q-215 68 -310 172.5t-95 278.5v4q2 185 139.5 296.5t376.5 111.5q140 0 275 -37t235 -105l-55 -119
q-91 64 -209 97.5t-242 33.5q-182 0 -279.5 -75.5t-97.5 -196.5v-4q0 -57 14 -101.5t37.5 -77t65.5 -60t87.5 -47t113.5 -42.5q60 -19 137 -41q255 -76 367 -185t112 -277v-5q-2 -214 -159 -340.5t-425 -126.5z" />
    <glyph glyph-name="T" unicode="T" horiz-adv-x="1386" 
d="M623 0v1528h-564v133h1268v-133h-561v-1528h-143z" />
    <glyph glyph-name="U" unicode="U" horiz-adv-x="1808" 
d="M903 -23q-349 0 -508 166.5t-159 499.5v1018h143v-979q0 -298 124.5 -431.5t399.5 -133.5q276 0 401.5 133.5t125.5 431.5v979h143v-1018q0 -333 -160 -499.5t-510 -166.5z" />
    <glyph glyph-name="V" unicode="V" horiz-adv-x="1521" 
d="M1300 1661h152l-596 -1661h-199l-587 1661h153l535 -1516z" />
    <glyph glyph-name="W" unicode="W" horiz-adv-x="2174" 
d="M1929 1661h150l-430 -1661h-191l-371 1505l-370 -1505h-191l-430 1661h150l381 -1501l368 1501h187l366 -1501z" />
    <glyph glyph-name="X" unicode="X" horiz-adv-x="1499" 
d="M68 0l598 836l-592 825h168l510 -713l512 713h161l-591 -821l600 -840h-170l-516 725l-523 -725h-157z" />
    <glyph glyph-name="Y" unicode="Y" horiz-adv-x="1480" 
d="M1260 1661h159l-608 -1004v-657h-141v657l-609 1004h162l518 -873z" />
    <glyph glyph-name="Z" unicode="Z" horiz-adv-x="1374" 
d="M1292 1661v-131l-1038 -1395h1032v-135h-1208v133l1038 1395h-969v135z" />
    <glyph glyph-name="bracketleft" unicode="[" horiz-adv-x="657" 
d="M219 -453v2116h373v-104h-238v-1907h238v-105h-373z" />
    <glyph glyph-name="backslash" unicode="\" horiz-adv-x="1187" 
d="M1219 -307h-158l-1108 1968h156z" />
    <glyph glyph-name="bracketright" unicode="]" horiz-adv-x="657" 
d="M41 -453v105h235v1907h-235v104h373v-2116h-373z" />
    <glyph glyph-name="asciicircum" unicode="^" horiz-adv-x="1095" 
d="M18 799l459 864h141l461 -864h-127l-405 774l-404 -774h-125z" />
    <glyph glyph-name="underscore" unicode="_" horiz-adv-x="1236" 
d="M96 -131v131h1043v-131h-1043z" />
    <glyph glyph-name="grave" unicode="`" horiz-adv-x="524" 
d="M455 1313h-140l-247 291h163z" />
    <glyph glyph-name="a" unicode="a" horiz-adv-x="1265" 
d="M594 1155q238 0 361.5 -106t123.5 -312v-680q-82 -30 -209.5 -53.5t-246.5 -23.5q-257 0 -393 93.5t-136 270.5v2q0 174 133 268.5t381 94.5q111 0 330 -29v53q0 295 -377 295q-209 0 -377 -82l25 131q159 78 385 78zM621 111q70 0 162 13t155 34v391q-39 8 -143.5 19.5
t-173.5 11.5q-381 0 -381 -232q0 -237 381 -237z" />
    <glyph glyph-name="b" unicode="b" horiz-adv-x="1333" 
d="M602 1145q290 0 462.5 -155t172.5 -431v-2q0 -271 -168.5 -429.5t-466.5 -158.5q-194 0 -403 64v1628h143v-543q152 27 260 27zM1098 557v2q0 206 -129.5 330.5t-360.5 124.5q-123 0 -266 -35v-850q128 -29 266 -29q225 0 357.5 121t132.5 336z" />
    <glyph glyph-name="c" unicode="c" horiz-adv-x="1116" 
d="M680 -23q-262 0 -419.5 160t-160.5 428v2q3 264 162.5 425t417.5 161q208 0 373 -80l-58 -121q-136 68 -313 68q-196 0 -315.5 -123.5t-122.5 -329.5v-2q3 -206 122.5 -330t317.5 -124q182 0 311 69l58 -121q-169 -82 -373 -82z" />
    <glyph glyph-name="d" unicode="d" horiz-adv-x="1333" 
d="M991 1661h144v-1628q-209 -64 -404 -64q-298 0 -466.5 158.5t-168.5 429.5v2q0 276 172.5 431t462.5 155q108 0 260 -27v543zM725 100q138 0 266 29v850q-143 35 -266 35q-231 0 -360 -124.5t-129 -330.5v-2q0 -215 132 -336t357 -121z" />
    <glyph glyph-name="e" unicode="e" horiz-adv-x="1308" 
d="M1210 600v-74h-968q12 -194 132 -308t316 -114q211 0 377 93l59 -115q-195 -105 -446 -105q-261 0 -422.5 162t-161.5 424v2q0 265 159 426.5t419 161.5q241 0 388.5 -152t147.5 -401zM672 1028q-181 0 -293.5 -101t-134.5 -278h827q-6 173 -114 276t-285 103z" />
    <glyph glyph-name="f" unicode="f" horiz-adv-x="974" 
d="M289 0v987h-228v135h228v166q0 109 26.5 182.5t82.5 115t132 58.5t187 17h178v-123h-172q-150 0 -220.5 -62t-70.5 -214v-140h459v-135h-459v-987h-143z" />
    <glyph glyph-name="g" unicode="g" horiz-adv-x="1341" 
d="M735 1149q78 0 197.5 -17t214.5 -42v-1123q0 -215 -129 -324.5t-354 -109.5q-212 0 -363 66l-22 131q152 -70 356 -70q183 0 278 73.5t95 239.5v54q-148 -23 -260 -23h-7q-312 0 -477.5 154t-165.5 426v2q0 262 171 412.5t464 150.5h2zM1004 176v795q-139 39 -263 39h-2
q-233 0 -363 -109t-130 -319v-2q0 -209 130.5 -322t366.5 -113h7q132 0 254 31z" />
    <glyph glyph-name="h" unicode="h" horiz-adv-x="1349" 
d="M1153 -2h-143v711q0 159 -86 229t-248 70q-138 0 -334 -33v-975h-143v1661h143v-545q229 31 344 31q465 0 465 -412q0 -123 1 -368.5t1 -368.5z" />
    <glyph glyph-name="i" unicode="i" horiz-adv-x="538" 
d="M270 1286q-52 0 -87.5 31t-35.5 84q0 50 35.5 82.5t87.5 32.5q50 0 85.5 -32.5t35.5 -82.5q0 -53 -35.5 -84t-85.5 -31zM199 0v1122h143v-1122h-143z" />
    <glyph glyph-name="j" unicode="j" horiz-adv-x="589" 
d="M319 1286q-52 0 -87 31t-35 84q0 50 35 82.5t87 32.5q50 0 85.5 -32.5t35.5 -82.5q0 -53 -35.5 -84t-85.5 -31zM78 -467q-51 0 -96 10l-21 129q45 -10 86 -10q116 0 158.5 62.5t42.5 232.5v1165h143v-1153q0 -249 -67 -342.5t-246 -93.5z" />
    <glyph glyph-name="k" unicode="k" horiz-adv-x="1144" 
d="M1102 0h-189l-571 549v-549h-143v1661h143v-1092l539 553h172l-539 -553z" />
    <glyph glyph-name="l" unicode="l" horiz-adv-x="538" 
d="M199 0v1661h143v-1661h-143z" />
    <glyph glyph-name="m" unicode="m" horiz-adv-x="1998" 
d="M1800 731q0 -122 1 -365.5t1 -365.5h-143q0 119 -1 354.5t-1 354.5q0 73 -14.5 126t-49 93.5t-97 61t-153.5 20.5q-72 0 -152.5 -25.5t-141.5 -69.5q30 -80 30 -188q0 -123 1 -364t1 -363h-143q0 119 -1 354.5t-1 354.5q0 160 -83.5 230.5t-238.5 70.5q-120 0 -272 -35
v-975h-143v1096q276 53 426 53q231 0 346 -115q171 115 381 115q227 0 337.5 -103t110.5 -315z" />
    <glyph glyph-name="n" unicode="n" horiz-adv-x="1349" 
d="M199 0v1098q303 51 485 51q467 0 467 -412q0 -123 1 -368.5t1 -368.5h-143q0 119 -1 355.5t-1 355.5q0 159 -85.5 229t-248.5 70q-136 0 -332 -33v-977h-143z" />
    <glyph glyph-name="o" unicode="o" horiz-adv-x="1374" 
d="M686 -25q-250 0 -420 168.5t-172 417.5v2q0 165 78 300.5t213.5 213.5t300.5 78h2q124 -1 234 -47t188.5 -124.5t124 -188t45.5 -232.5v-2q0 -164 -77.5 -298t-213 -210.5t-301.5 -77.5h-2zM686 111h2q195 0 321 130.5t126 319.5v2q0 125 -56.5 229t-159.5 165.5
t-231 62.5h-2q-128 0 -231 -61.5t-159 -166t-56 -229.5v-2q0 -123 56 -226t159 -163.5t231 -60.5z" />
    <glyph glyph-name="p" unicode="p" horiz-adv-x="1333" 
d="M602 1145q290 0 462.5 -155t172.5 -431v-2q0 -271 -168.5 -429.5t-466.5 -158.5q-118 0 -260 29v-451h-143v1543h26q196 55 377 55zM1098 557v2q0 206 -129.5 330.5t-360.5 124.5q-123 0 -266 -35v-850q128 -29 266 -29q225 0 357.5 121t132.5 336z" />
    <glyph glyph-name="q" unicode="q" horiz-adv-x="1333" 
d="M1108 1090h27v-1543h-144v451q-142 -29 -260 -29q-298 0 -466.5 158.5t-168.5 429.5v2q0 276 172.5 431t462.5 155q181 0 377 -55zM725 100q138 0 266 29v850q-143 35 -266 35q-231 0 -360 -124.5t-129 -330.5v-2q0 -215 132 -336t357 -121z" />
    <glyph glyph-name="r" unicode="r" horiz-adv-x="839" 
d="M172 0v1061q183 61 391 61h187v-137q-32 0 -84.5 1t-90.5 1q-187 0 -262 -37v-950h-141z" />
    <glyph glyph-name="s" unicode="s" horiz-adv-x="1073" 
d="M510 -23q-237 0 -434 89l39 116q182 -80 383 -80q344 0 344 187q0 62 -22.5 98t-82 63.5t-182.5 57.5q-11 3 -46 12t-54 12q-192 47 -276.5 125t-84.5 207q0 134 113.5 211.5t306.5 77.5q245 0 422 -86l-41 -117q-173 78 -365 78q-286 0 -286 -164q0 -84 59.5 -124.5
t222.5 -80.5l88 -20q203 -52 287 -130.5t84 -211.5q0 -155 -122 -237.5t-353 -82.5z" />
    <glyph glyph-name="t" unicode="t" horiz-adv-x="962" 
d="M674 0q-112 0 -187.5 21.5t-119 67.5t-62 108.5t-18.5 152.5v641h-228v131h228v414h141v-414h459v-131h-459v-598q0 -147 70 -203.5t219 -56.5h172v-133h-215z" />
    <glyph glyph-name="u" unicode="u" horiz-adv-x="1349" 
d="M1153 1122v-1091q-294 -56 -487 -56q-242 0 -353.5 104t-111.5 312q0 123 -1 366t-1 365h143q0 -119 1 -353t1 -353q0 -87 22.5 -146.5t67.5 -92.5t103 -46.5t139 -13.5q150 0 334 35v970h143z" />
    <glyph glyph-name="v" unicode="v" horiz-adv-x="1150" 
d="M946 1122h150l-426 -1122h-185l-430 1122h152l371 -993z" />
    <glyph glyph-name="w" unicode="w" horiz-adv-x="1701" 
d="M1495 1122h150l-310 -1122h-184l-299 983l-301 -983h-182l-314 1122h152l262 -968l295 968h174l295 -964z" />
    <glyph glyph-name="x" unicode="x" horiz-adv-x="1175" 
d="M1114 0h-168l-362 469l-363 -469h-160l443 575l-416 547h166l336 -438l336 438h161l-415 -542z" />
    <glyph glyph-name="y" unicode="y" horiz-adv-x="1333" 
d="M1141 88h-2v-121q0 -215 -129.5 -324.5t-354.5 -109.5q-211 0 -362 66l-23 131q152 -70 357 -70q182 0 277 73.5t95 239.5v72q-161 -41 -344 -41q-241 0 -348.5 103.5t-107.5 314.5v700h143v-678q0 -166 82.5 -233.5t243.5 -67.5q175 0 331 45v934h140v-1032z" />
    <glyph glyph-name="z" unicode="z" horiz-adv-x="1183" 
d="M307 133h752v-133h-932v123l741 866h-704v133h880v-121z" />
    <glyph glyph-name="braceleft" unicode="{" horiz-adv-x="727" 
d="M426 944q0 -147 -48.5 -231t-135.5 -105v-2q87 -24 135.5 -108.5t48.5 -229.5v-411q0 -69 5.5 -105t25.5 -61.5t55.5 -33t99.5 -7.5h35v-103h-57q-93 0 -147.5 11.5t-90.5 46t-48.5 90t-12.5 149.5v408q0 143 -40 217t-130 86v102q91 13 130.5 87.5t39.5 218.5v403
q0 93 12.5 148.5t48 90t90.5 46.5t148 12h57v-102h-35q-64 0 -99.5 -7.5t-55.5 -33.5t-25.5 -62t-5.5 -106v-408z" />
    <glyph glyph-name="bar" unicode="|" horiz-adv-x="567" 
d="M225 -451v2112h121v-2112h-121z" />
    <glyph glyph-name="braceright" unicode="}" horiz-adv-x="727" 
d="M436 963q0 -144 39.5 -218.5t130.5 -87.5v-102q-90 -12 -130 -86t-40 -217v-408q0 -94 -12.5 -149.5t-48.5 -90t-90.5 -46t-147.5 -11.5h-57v103h35q64 0 99.5 7.5t55.5 33t25.5 61.5t5.5 105v411q0 145 48.5 229.5t135.5 108.5v2q-87 21 -135.5 105t-48.5 231v408
q0 70 -5.5 106t-25.5 62t-55.5 33.5t-99.5 7.5h-35v102h57q93 0 148 -12t90.5 -46.5t48 -90t12.5 -148.5v-403z" />
    <glyph glyph-name="asciitilde" unicode="~" horiz-adv-x="1388" 
d="M133 397q12 145 92.5 219t220.5 74q69 0 138.5 -25.5t118 -56.5t110 -56.5t115.5 -25.5q160 0 190 162h137q-14 -131 -96 -211t-217 -80q-63 0 -130 25.5t-116 55.5t-113 55.5t-122 25.5q-84 0 -131 -40t-62 -122h-135z" />
    <glyph glyph-name="exclamdown" unicode="&#xa1;" horiz-adv-x="550" 
d="M252 1235q50 0 86.5 -32t36.5 -85q0 -50 -35.5 -82t-87.5 -32t-88.5 32t-36.5 82q0 53 36.5 85t88.5 32zM205 745h141v-1196h-141v1196z" />
    <glyph glyph-name="cent" unicode="&#xa2;" horiz-adv-x="1116" 
d="M995 180l58 -121q-140 -70 -320 -79v-187h-137v189q-227 26 -360 182t-136 401v2q3 242 137.5 399t358.5 183v182h139v-180q181 -9 318 -78l-58 -121q-117 60 -260 66l-2 -905q149 6 262 67zM244 565q3 -181 97.5 -300.5t254.5 -147.5v897q-160 -26 -254.5 -145.5
t-97.5 -301.5v-2z" />
    <glyph glyph-name="sterling" unicode="&#xa3;" horiz-adv-x="1435" 
d="M1282 162l45 -129q-144 -56 -283 -56q-85 0 -247 45.5t-258 45.5q-169 0 -342 -80l-60 131q338 208 346 493q3 92 -34 174h-312v125h242q-3 5 -26.5 39.5t-28.5 43t-24 40t-24.5 45.5t-18.5 43.5t-17 50.5t-8.5 49.5t-4.5 57.5q0 191 156.5 298.5t417.5 107.5
q279 0 493 -117l-57 -123q-91 49 -203 75.5t-221 26.5q-199 0 -314.5 -75.5t-115.5 -210.5q0 -34 7.5 -68t16 -59.5t28 -60.5t31 -53t37 -56.5t34.5 -53.5h475v-125h-410q25 -73 25 -133q-3 -287 -281 -495l33 8q100 35 219 35q81 0 230 -41t231 -41q116 0 223 43z" />
    <glyph glyph-name="currency" unicode="&#xa4;" horiz-adv-x="1257" 
d="M1149 662q-3 -189 -133 -326l139 -139l-45 -50l-141 140q-141 -131 -338 -131q-198 0 -342 131l-139 -137l-48 47l140 137q-126 139 -129 325v3q-1 98 32 184.5t91 148.5l-134 135l48 48l135 -134q137 125 346 125q98 0 187.5 -31.5t154.5 -90.5l135 131l47 -48
l-131 -131q60 -66 93 -153t32 -182v-2zM631 262q167 0 285.5 114.5t123.5 280.5v2q2 113 -52 206.5t-148.5 147t-208.5 52.5q-177 -3 -295 -120.5t-115 -285.5v-2q3 -109 58.5 -199.5t148.5 -143t203 -52.5z" />
    <glyph glyph-name="yen" unicode="&#xa5;" horiz-adv-x="1626" 
d="M1491 1661l-559 -922h405v-125h-454v-135h454v-123h-454v-356h-142v356h-452v123h452v135h-452v125h403l-559 922h162l518 -873l518 873h160z" />
    <glyph glyph-name="brokenbar" unicode="&#xa6;" horiz-adv-x="567" 
d="M225 842v819h121v-819h-121zM225 -451v820h121v-820h-121z" />
    <glyph glyph-name="section" unicode="&#xa7;" horiz-adv-x="1693" 
d="M1049 911q255 -76 367 -185t112 -277v-5q-1 -129 -64.5 -223t-181.5 -145v-72v-6q0 -214 -158 -339.5t-426 -125.5q-143 0 -280.5 40.5t-243.5 115.5l57 121q97 -71 218 -110.5t245 -39.5q204 0 323.5 92t119.5 242v4q0 123 -86.5 196.5t-305.5 143.5q-59 18 -135 41
q-215 68 -310 172t-95 278v5q0 120 64 209t182 133v98v4q2 185 139.5 296.5t376.5 111.5q140 0 275 -37t235 -105l-56 -119q-91 64 -209 97.5t-241 33.5q-182 0 -279.5 -75.5t-97.5 -196.5v-4q0 -71 19 -122t63 -88.5t97 -63t138 -54.5q54 -17 138 -41zM1382 440v4
q0 122 -88.5 196t-302.5 142q-103 32 -264 80q-121 38 -179 79.5t-79 102.5q-121 -72 -121 -206v-4q0 -70 19 -121t61.5 -88.5t96 -64t137.5 -54.5q140 -46 292 -88q152 -43 221.5 -89.5t92.5 -113.5q114 83 114 225z" />
    <glyph glyph-name="dieresis" unicode="&#xa8;" horiz-adv-x="688" 
d="M176 1350q-52 0 -87.5 31t-35.5 83t35.5 84.5t87.5 32.5q51 0 87 -33t36 -84q0 -52 -36.5 -83t-86.5 -31zM512 1350q-53 0 -89 31t-36 83t36 84.5t89 32.5q51 0 86 -33t35 -84q0 -52 -36 -83t-85 -31z" />
    <glyph glyph-name="copyright" unicode="&#xa9;" horiz-adv-x="1939" 
d="M971 -49q-182 0 -343 65t-276.5 179t-182.5 276.5t-67 349.5q0 186 67.5 349.5t183.5 279t276.5 182t341.5 66.5q180 0 340.5 -66.5t276.5 -181.5t183.5 -279t67.5 -350q0 -187 -67 -349.5t-183 -276.5t-276.5 -179t-341.5 -65zM971 20q226 0 407 102t283 285.5
t102 415.5t-102 416t-283 286.5t-407 102.5q-169 0 -316.5 -60.5t-252.5 -166t-165.5 -255.5t-60.5 -323t60.5 -323t165.5 -255t252.5 -165t316.5 -60zM1010 285q-237 0 -382 148t-145 392v2q2 243 146.5 391t380.5 148q186 0 338 -76l-33 -73q-135 69 -301 69
q-196 0 -318 -124.5t-123 -334.5v-2q1 -211 123 -335.5t318 -124.5q164 0 301 67l33 -72q-150 -75 -338 -75z" />
    <glyph glyph-name="ordfeminine" unicode="&#xaa;" horiz-adv-x="872" 
d="M442 1563q340 0 340 -291v-473q-50 -20 -143 -35.5t-178 -15.5q-373 0 -373 245v2q0 117 92 176.5t264 59.5q104 -4 234 -21v62q0 100 -59.5 150.5t-200.5 50.5q-139 0 -260 -56l18 90q115 56 266 56zM195 993q1 -85 66 -120t200 -35q49 0 114.5 9t102.5 23v252
q-23 5 -97.5 13t-119.5 8q-136 0 -201 -33t-65 -115v-2z" />
    <glyph glyph-name="guillemotleft" unicode="&#xab;" horiz-adv-x="1157" 
d="M438 51l-344 527l342 524h144l-332 -522l334 -529h-144zM922 51l-344 527l342 524h143l-332 -522l334 -529h-143z" />
    <glyph glyph-name="logicalnot" unicode="&#xac;" horiz-adv-x="1150" 
d="M1018 840v-541h-115v432h-770v109h885z" />
    <glyph glyph-name="registered" unicode="&#xae;" horiz-adv-x="1939" 
d="M971 1698q180 0 340.5 -66.5t276.5 -181.5t183.5 -279t67.5 -350q0 -187 -67 -349.5t-183 -276.5t-276.5 -179t-341.5 -65q-182 0 -343 65t-276.5 179t-182.5 276.5t-67 349.5q0 186 67.5 349.5t183.5 279t276.5 182t341.5 66.5zM971 18q226 0 407 102t283 285.5
t102 415.5t-102 416.5t-283 287.5t-407 103q-169 0 -316.5 -60.5t-252.5 -166t-165.5 -256t-60.5 -324.5q0 -172 60.5 -322t165.5 -255.5t252.5 -165.5t316.5 -60zM1372 1075q0 -122 -77.5 -203.5t-209.5 -101.5l314 -457h-92l-312 451h-299v-451h-84v1057h398
q171 0 266.5 -79t95.5 -216zM696 1290v-452h320q121 0 195.5 62t74.5 169t-74.5 164t-195.5 57h-320z" />
    <glyph glyph-name="macron" unicode="&#xaf;" horiz-adv-x="729" 
d="M61 1395v86h607v-86h-607z" />
    <glyph glyph-name="degree" unicode="&#xb0;" horiz-adv-x="866" 
d="M432 963q-150 0 -255 105t-105 255q0 152 105 257.5t255 105.5q153 0 259 -105t106 -258q0 -152 -106 -256t-259 -104zM432 1042q121 0 200 82t79 199q0 119 -79 201t-200 82q-119 0 -196.5 -82.5t-77.5 -200.5q0 -117 77.5 -199t196.5 -82z" />
    <glyph glyph-name="plusminus" unicode="&#xb1;" horiz-adv-x="1390" 
d="M625 176v514h-490v129h490v481h143v-481h489v-129h-489v-514h-143zM150 -23v134h1073v-134h-1073z" />
    <glyph glyph-name="uni00B2" unicode="&#xb2;" horiz-adv-x="886" 
d="M76 760v86q163 96 263.5 161t178.5 129.5t111 119t33 110.5v2q0 70 -58.5 107.5t-163.5 37.5q-152 0 -282 -73l-47 90q154 88 344 88q158 0 247 -64.5t89 -179.5v-2q0 -125 -129.5 -247t-389.5 -265l545 2v-102h-741z" />
    <glyph glyph-name="uni00B3" unicode="&#xb3;" horiz-adv-x="860" 
d="M580 1200q105 -22 160 -78.5t55 -142.5q0 -111 -107 -172.5t-293 -61.5q-91 0 -181.5 24t-154.5 65l56 94q126 -78 280 -78q273 0 273 145v2q0 81 -70.5 114.5t-216.5 33.5h-29v102h25q134 0 198 31t64 104v4q0 59 -60 92t-167 33q-151 0 -283 -75l-51 92q152 86 344 86
q163 0 254.5 -55.5t91.5 -155.5q0 -76 -48.5 -128.5t-139.5 -74.5z" />
    <glyph glyph-name="acute" unicode="&#xb4;" horiz-adv-x="509" 
d="M61 1313l224 291h164l-248 -291h-140z" />
    <glyph glyph-name="uni00B5" unicode="&#xb5;" horiz-adv-x="1429" 
d="M1145 395q0 -278 235 -278v-140q-232 0 -319 136q-112 -136 -389 -136q-216 0 -330 84v-512h-143v1573h143q0 -119 1 -353.5t1 -352.5q0 -87 22.5 -146.5t67 -92.5t101.5 -46.5t137 -13.5q163 0 245 65t82 234v706h146v-727z" />
    <glyph glyph-name="paragraph" unicode="&#xb6;" horiz-adv-x="1443" 
d="M526 -170v1008q-125 1 -226.5 48.5t-163.5 141t-62 217.5q0 193 139 304.5t381 111.5h752v-1831h-142v1692h-534v-1692h-144z" />
    <glyph glyph-name="periodcentered" unicode="&#xb7;" horiz-adv-x="329" 
d="M166 668q-52 0 -88.5 31.5t-36.5 84.5q0 51 36.5 84t88.5 33t87.5 -32.5t35.5 -84.5q0 -53 -36.5 -84.5t-86.5 -31.5z" />
    <glyph glyph-name="cedilla" unicode="&#xb8;" horiz-adv-x="505" 
d="M205 -451q-83 0 -156 23l-8 82q83 -27 154 -27q159 0 159 92q0 80 -131 80q-59 0 -129 -26l-18 26l123 201h82l-80 -127q12 4 51 4q79 0 135.5 -40t56.5 -111q0 -85 -65.5 -131t-173.5 -46z" />
    <glyph glyph-name="uni00B9" unicode="&#xb9;" horiz-adv-x="548" 
d="M293 762v721l-246 -49v104l367 64v-840h-121z" />
    <glyph glyph-name="ordmasculine" unicode="&#xba;" horiz-adv-x="987" 
d="M492 748q-177 0 -290.5 114.5t-113.5 292.5q0 180 113.5 295t290.5 115h2q178 0 290.5 -115t112.5 -295q0 -179 -112.5 -292.5t-290.5 -114.5h-2zM492 870h2q121 0 196.5 80.5t75.5 204.5q0 125 -75.5 206t-196.5 81h-2q-120 0 -196.5 -81t-76.5 -206q0 -124 77 -204.5
t196 -80.5z" />
    <glyph glyph-name="guillemotright" unicode="&#xbb;" horiz-adv-x="1157" 
d="M96 51l334 529l-334 522h144l342 -524l-342 -527h-144zM575 51l334 529l-334 522h144l342 -524l-342 -527h-144z" />
    <glyph glyph-name="onequarter" unicode="&#xbc;" horiz-adv-x="2191" 
d="M410 0l872 1661h150l-873 -1661h-149zM332 612v815l-279 -55v117l416 74v-951h-137zM1806 0v244h-608l-2 100l610 600h142l2 -584h209v-116h-211v-244h-142zM1378 360h428v424z" />
    <glyph glyph-name="onehalf" unicode="&#xbd;" horiz-adv-x="2168" 
d="M410 0l872 1661h150l-873 -1661h-149zM332 612v815l-279 -55v117l416 74v-951h-137zM1251 -10v98q364 212 513 339t149 249v2q0 79 -65.5 122.5t-184.5 43.5q-77 0 -163 -22.5t-157 -61.5l-53 102q181 99 389 99q179 0 279 -73t100 -202v-2q0 -143 -145.5 -281
t-439.5 -299l616 2v-116h-838z" />
    <glyph glyph-name="threequarters" unicode="&#xbe;" horiz-adv-x="2543" 
d="M1634 1661h150l-873 -1661h-149zM899 852q0 -125 -121 -193.5t-332 -68.5q-103 0 -204.5 26t-173.5 72l61 107q143 -88 317 -88q310 0 310 165v2q0 91 -80 128.5t-246 37.5h-31v117h27q152 0 224.5 35t72.5 117v4q0 67 -67.5 104t-190.5 37q-170 0 -320 -84l-57 103
q78 45 181 71.5t208 26.5q185 0 288 -63t103 -175q0 -87 -55 -145.5t-160 -83.5q120 -25 183 -88.5t63 -161.5v-2zM2302 360h209v-116h-211v-244h-141v244h-609l-2 100l611 600h141zM2159 360v424l-428 -424h428z" />
    <glyph glyph-name="questiondown" unicode="&#xbf;" horiz-adv-x="1122" 
d="M668 1237q52 0 88.5 -32t36.5 -85q0 -50 -36.5 -82t-88.5 -32t-87.5 32t-35.5 82q0 53 36.5 85t86.5 32zM709 723l2 -340q-86 -24 -149.5 -47.5t-122.5 -57.5t-96 -74t-59 -95t-22 -123v-15q0 -299 354 -299q189 0 367 78l-25 -143q-170 -72 -372 -72q-229 0 -351 104
t-122 308v16q0 99 33 181t96 142.5t143 104.5t184 78v254h140z" />
    <glyph glyph-name="Agrave" unicode="&#xc0;" horiz-adv-x="1552" 
d="M893 1796h-98l-269 301h172zM1352 0l-203 532h-748l-200 -532h-148l633 1661h172l643 -1661h-149zM768 1503l-322 -841h656l-324 841l-6 15z" />
    <glyph glyph-name="Aacute" unicode="&#xc1;" horiz-adv-x="1552" 
d="M1083 2095l-268 -293h-143l243 293h168zM1352 0l-203 532h-748l-200 -532h-148l633 1661h172l643 -1661h-149zM768 1503l-322 -841h656l-324 841l-6 15z" />
    <glyph glyph-name="Acircumflex" unicode="&#xc2;" horiz-adv-x="1552" 
d="M778 2015l-200 -215h-144l275 291h139l276 -291h-143zM1352 0l-203 532h-748l-200 -532h-148l633 1661h172l643 -1661h-149zM768 1503l-322 -841h656l-324 841l-6 15z" />
    <glyph glyph-name="Atilde" unicode="&#xc3;" horiz-adv-x="1552" 
d="M639 1898q-44 0 -67.5 -25t-34.5 -81h-111q12 110 58.5 164.5t133.5 54.5q47 0 91 -17t72.5 -37t67 -37t75.5 -17q43 0 65.5 25t34.5 81h111q-12 -111 -56.5 -164t-134.5 -53q-45 0 -88.5 16.5t-72.5 36.5t-68 36.5t-76 16.5zM1352 0l-203 532h-748l-200 -532h-148
l633 1661h172l643 -1661h-149zM768 1503l-322 -841h656l-324 841l-6 15z" />
    <glyph glyph-name="Adieresis" unicode="&#xc4;" horiz-adv-x="1552" 
d="M612 1796q-50 0 -85.5 30.5t-34.5 82.5q1 49 35.5 79.5t84.5 30.5q49 0 83 -31t34 -79q0 -52 -34.5 -82.5t-82.5 -30.5zM940 1796q-50 0 -86 30.5t-35 82.5q0 48 35 79t86 31q48 0 81.5 -30.5t33.5 -79.5q0 -52 -34 -82.5t-81 -30.5zM1352 0l-203 532h-748l-200 -532
h-148l633 1661h172l643 -1661h-149zM768 1503l-322 -841h656l-324 841l-6 15z" />
    <glyph glyph-name="Aring" unicode="&#xc5;" horiz-adv-x="1552" 
d="M782 1794q-93 0 -158 62t-65 153t63 150t158 59q91 0 155 -62.5t64 -152.5q0 -92 -61.5 -150.5t-155.5 -58.5zM782 2134q-61 0 -100 -35.5t-37 -91.5q-3 -56 37 -92.5t98 -36.5q61 0 98 36t37 93q-2 56 -39 91.5t-94 35.5zM1352 0l-203 532h-748l-200 -532h-148l633 1661
h172l643 -1661h-149zM768 1503l-322 -841h656l-324 841l-6 15z" />
    <glyph glyph-name="AE" unicode="&#xc6;" horiz-adv-x="2260" 
d="M1251 135h842v-135h-985v512h-600l-324 -512h-159l1075 1661h983v-133h-832v-600h752v-135h-752v-658zM1108 1468l-530 -827h530v827z" />
    <glyph glyph-name="Ccedilla" unicode="&#xc7;" horiz-adv-x="1603" 
d="M1493 139q-223 -156 -502 -162l-65 -104q12 4 51 4q79 0 135.5 -40t56.5 -111q0 -85 -65.5 -131t-173.5 -46q-83 0 -156 23l-8 82q83 -27 154 -27q159 0 159 92q0 80 -131 80q-59 0 -129 -26l-18 26l110 181q-173 9 -321 76t-254 177t-166 264t-61 332v2q0 246 111 442
t306.5 304.5t438.5 108.5h2q289 0 526 -164l-57 -123q-214 147 -463 147h-2q-141 0 -268 -48.5t-225 -137t-156 -226t-58 -303.5v-2q1 -166 59 -302.5t155.5 -225t224 -136.5t266.5 -48h2q256 0 465 143z" />
    <glyph glyph-name="Egrave" unicode="&#xc8;" horiz-adv-x="1388" 
d="M764 1796l-268 301h172l194 -301h-98zM236 0v1661h974v-133h-831v-600h751v-135h-751v-658h842v-135h-985z" />
    <glyph glyph-name="Eacute" unicode="&#xc9;" horiz-adv-x="1388" 
d="M641 1802l244 293h168l-269 -293h-143zM236 0v1661h974v-133h-831v-600h751v-135h-751v-658h842v-135h-985z" />
    <glyph glyph-name="Ecircumflex" unicode="&#xca;" horiz-adv-x="1388" 
d="M403 1800l275 291h139l277 -291h-144l-202 215l-201 -215h-144zM236 0v1661h974v-133h-831v-600h751v-135h-751v-658h842v-135h-985z" />
    <glyph glyph-name="Edieresis" unicode="&#xcb;" horiz-adv-x="1388" 
d="M582 1796q-50 0 -86 30.5t-35 82.5q1 49 36 79.5t85 30.5q48 0 82 -31t34 -79q0 -52 -34 -82.5t-82 -30.5zM909 1796q-50 0 -86 30.5t-35 82.5q0 48 35 79t86 31q48 0 81.5 -30.5t33.5 -79.5q0 -52 -34 -82.5t-81 -30.5zM236 0v1661h974v-133h-831v-600h751v-135h-751
v-658h842v-135h-985z" />
    <glyph glyph-name="Igrave" unicode="&#xcc;" horiz-adv-x="612" 
d="M324 1796l-269 301h172l195 -301h-98zM236 0v1661h143v-1661h-143z" />
    <glyph glyph-name="Iacute" unicode="&#xcd;" horiz-adv-x="612" 
d="M201 1802l243 293h168l-268 -293h-143zM236 0v1661h143v-1661h-143z" />
    <glyph glyph-name="Icircumflex" unicode="&#xce;" horiz-adv-x="612" 
d="M-37 1800l275 291h139l276 -291h-143l-203 215l-201 -215h-143zM236 0v1661h143v-1661h-143z" />
    <glyph glyph-name="Idieresis" unicode="&#xcf;" horiz-adv-x="612" 
d="M141 1796q-50 0 -86 30.5t-35 82.5q1 49 36 79.5t85 30.5q49 0 83 -31t34 -79q0 -52 -34.5 -82.5t-82.5 -30.5zM469 1796q-50 0 -86 30.5t-35 82.5q0 48 35 79t86 31q48 0 81.5 -30.5t33.5 -79.5q0 -52 -34 -82.5t-81 -30.5zM236 0v1661h143v-1661h-143z" />
    <glyph glyph-name="Eth" unicode="&#xd0;" horiz-adv-x="1681" 
d="M688 1661q199 0 363 -58.5t277.5 -165.5t176 -261t62.5 -340v-2q-1 -188 -64 -343.5t-176.5 -263.5t-277.5 -167.5t-361 -59.5h-452v791h-181v114h181v756h452zM1411 834v2q0 320 -189.5 506t-516.5 186h-326v-623h233v-114h-233v-656h326q326 0 516 188.5t190 510.5z
" />
    <glyph glyph-name="Ntilde" unicode="&#xd1;" horiz-adv-x="1716" 
d="M684 1898q-44 0 -67.5 -25t-34.5 -81h-111q12 110 58.5 164.5t134.5 54.5q47 0 91 -17t72.5 -37t66.5 -37t75 -17q43 0 65.5 25t34.5 81h111q-12 -111 -56.5 -164t-134.5 -53q-45 0 -88.5 16.5t-72.5 36.5t-68 36.5t-76 16.5zM1337 1661h142v-1661h-168l-934 1456v-1456
h-141v1661h165l936 -1456v1456z" />
    <glyph glyph-name="Ograve" unicode="&#xd2;" horiz-adv-x="1828" 
d="M909 1796l-268 301h172l195 -301h-99zM913 -23q-181 0 -333 68t-254 184.5t-159 272.5t-58 332v2q0 177 56.5 332.5t158.5 270t254.5 181t334.5 66.5h2q182 0 334.5 -66.5t255 -181t159 -270t56.5 -332.5v-2q0 -175 -57 -331.5t-159.5 -273t-255 -184.5t-333.5 -68h-2z
M913 117h5q192 0 343 95t233.5 258.5t82.5 365.5v4q0 152 -48 283t-133 224t-208.5 146t-269.5 53h-5q-195 0 -346 -91t-232 -251t-81 -364v-4q1 -202 82.5 -365.5t232.5 -258.5t344 -95z" />
    <glyph glyph-name="Oacute" unicode="&#xd3;" horiz-adv-x="1828" 
d="M786 1802l244 293h168l-268 -293h-144zM913 -23q-181 0 -333 68t-254 184.5t-159 272.5t-58 332v2q0 177 56.5 332.5t158.5 270t254.5 181t334.5 66.5h2q182 0 334.5 -66.5t255 -181t159 -270t56.5 -332.5v-2q0 -175 -57 -331.5t-159.5 -273t-255 -184.5t-333.5 -68h-2z
M913 117h5q192 0 343 95t233.5 258.5t82.5 365.5v4q0 152 -48 283t-133 224t-208.5 146t-269.5 53h-5q-195 0 -346 -91t-232 -251t-81 -364v-4q1 -202 82.5 -365.5t232.5 -258.5t344 -95z" />
    <glyph glyph-name="Ocircumflex" unicode="&#xd4;" horiz-adv-x="1828" 
d="M549 1800l274 291h140l276 -291h-143l-203 215l-201 -215h-143zM913 -23q-181 0 -333 68t-254 184.5t-159 272.5t-58 332v2q0 177 56.5 332.5t158.5 270t254.5 181t334.5 66.5h2q182 0 334.5 -66.5t255 -181t159 -270t56.5 -332.5v-2q0 -175 -57 -331.5t-159.5 -273
t-255 -184.5t-333.5 -68h-2zM913 117h5q192 0 343 95t233.5 258.5t82.5 365.5v4q0 152 -48 283t-133 224t-208.5 146t-269.5 53h-5q-195 0 -346 -91t-232 -251t-81 -364v-4q1 -202 82.5 -365.5t232.5 -258.5t344 -95z" />
    <glyph glyph-name="Otilde" unicode="&#xd5;" horiz-adv-x="1828" 
d="M541 1792q12 110 58.5 164.5t133.5 54.5q47 0 91 -17t72.5 -37t66.5 -37t75 -17q43 0 66 25t35 81h110q-12 -111 -56 -164t-134 -53q-45 0 -88.5 16.5t-72.5 36.5t-68 36.5t-76 16.5q-44 0 -68 -25t-35 -81h-110zM913 -23q-181 0 -333 68t-254 184.5t-159 272.5t-58 332
v2q0 177 56.5 332.5t158.5 270t254.5 181t334.5 66.5h2q182 0 334.5 -66.5t255 -181t159 -270t56.5 -332.5v-2q0 -175 -57 -331.5t-159.5 -273t-255 -184.5t-333.5 -68h-2zM913 117h5q192 0 343 95t233.5 258.5t82.5 365.5v4q0 152 -48 283t-133 224t-208.5 146t-269.5 53
h-5q-195 0 -346 -91t-232 -251t-81 -364v-4q1 -202 82.5 -365.5t232.5 -258.5t344 -95z" />
    <glyph glyph-name="Odieresis" unicode="&#xd6;" horiz-adv-x="1828" 
d="M727 1796q-50 0 -86 30.5t-35 82.5q1 49 36 79.5t85 30.5q49 0 83 -31t34 -79q0 -52 -34.5 -82.5t-82.5 -30.5zM1055 1796q-50 0 -86 30.5t-35 82.5q0 48 35 79t86 31q48 0 81 -30.5t33 -79.5q0 -52 -33.5 -82.5t-80.5 -30.5zM913 -23q-181 0 -333 68t-254 184.5
t-159 272.5t-58 332v2q0 177 56.5 332.5t158.5 270t254.5 181t334.5 66.5h2q182 0 334.5 -66.5t255 -181t159 -270t56.5 -332.5v-2q0 -175 -57 -331.5t-159.5 -273t-255 -184.5t-333.5 -68h-2zM913 117h5q192 0 343 95t233.5 258.5t82.5 365.5v4q0 152 -48 283t-133 224
t-208.5 146t-269.5 53h-5q-195 0 -346 -91t-232 -251t-81 -364v-4q1 -202 82.5 -365.5t232.5 -258.5t344 -95z" />
    <glyph glyph-name="multiply" unicode="&#xd7;" horiz-adv-x="1312" 
d="M219 29l-86 84l440 438l-440 438l86 84l438 -436l439 436l84 -84l-439 -438l439 -438l-84 -84l-439 438z" />
    <glyph glyph-name="Oslash" unicode="&#xd8;" horiz-adv-x="1828" 
d="M1729 1704l-228 -262q106 -116 162.5 -272t56.5 -334v-2q0 -175 -57 -331.5t-159.5 -273t-255 -184.5t-333.5 -68h-2q-305 0 -518 187l-211 -244l-125 55l244 281q-94 116 -144 264.5t-50 313.5v2q0 177 56.5 332.5t158.5 270t254.5 181t334.5 66.5h2q285 0 492 -158
l197 227zM254 836q0 -270 145 -467l914 1052q-166 125 -395 125h-5q-195 0 -346 -91t-232 -251t-81 -364v-4zM1577 840q0 298 -170 493l-918 -1061q176 -155 424 -155h5q192 0 343 95t233.5 258.5t82.5 365.5v4z" />
    <glyph glyph-name="Ugrave" unicode="&#xd9;" horiz-adv-x="1808" 
d="M920 1796l-269 301h172l195 -301h-98zM903 -23q-349 0 -508 166.5t-159 499.5v1018h143v-979q0 -298 124.5 -431.5t399.5 -133.5q276 0 401.5 133.5t125.5 431.5v979h143v-1018q0 -333 -160 -499.5t-510 -166.5z" />
    <glyph glyph-name="Uacute" unicode="&#xda;" horiz-adv-x="1808" 
d="M797 1802l243 293h168l-268 -293h-143zM903 -23q-349 0 -508 166.5t-159 499.5v1018h143v-979q0 -298 124.5 -431.5t399.5 -133.5q276 0 401.5 133.5t125.5 431.5v979h143v-1018q0 -333 -160 -499.5t-510 -166.5z" />
    <glyph glyph-name="Ucircumflex" unicode="&#xdb;" horiz-adv-x="1808" 
d="M559 1800l275 291h139l276 -291h-143l-203 215l-201 -215h-143zM903 -23q-349 0 -508 166.5t-159 499.5v1018h143v-979q0 -298 124.5 -431.5t399.5 -133.5q276 0 401.5 133.5t125.5 431.5v979h143v-1018q0 -333 -160 -499.5t-510 -166.5z" />
    <glyph glyph-name="Udieresis" unicode="&#xdc;" horiz-adv-x="1808" 
d="M737 1796q-50 0 -86 30.5t-35 82.5q1 49 36 79.5t85 30.5q49 0 83 -31t34 -79q0 -52 -34.5 -82.5t-82.5 -30.5zM1065 1796q-50 0 -86 30.5t-35 82.5q0 48 35 79t86 31q48 0 81.5 -30.5t33.5 -79.5q0 -52 -34 -82.5t-81 -30.5zM903 -23q-349 0 -508 166.5t-159 499.5v1018
h143v-979q0 -298 124.5 -431.5t399.5 -133.5q276 0 401.5 133.5t125.5 431.5v979h143v-1018q0 -333 -160 -499.5t-510 -166.5z" />
    <glyph glyph-name="Yacute" unicode="&#xdd;" horiz-adv-x="1480" 
d="M1047 2095l-269 -293h-143l244 293h168zM1260 1661h159l-608 -1004v-657h-141v657l-609 1004h162l518 -873z" />
    <glyph glyph-name="Thorn" unicode="&#xde;" horiz-adv-x="1402" 
d="M717 1321q152 0 265.5 -36.5t180.5 -103.5t99 -153t32 -192q-1 -249 -152 -379.5t-423 -130.5h-377v-326h-143v1661h143v-340h375zM715 461q434 0 434 370q0 357 -434 357h-373v-727h373z" />
    <glyph glyph-name="germandbls" unicode="&#xdf;" horiz-adv-x="1511" 
d="M1030 920q190 -33 296 -147.5t106 -297.5v-8q-3 -231 -158.5 -360.5t-431.5 -129.5q-99 0 -219 19l24 135q88 -14 176 -14q215 0 338 93.5t123 264.5v10q0 174 -127 260t-362 86h-50l-4 140h52q181 0 272.5 76t91.5 210v9q0 133 -101 206.5t-284 73.5q-226 0 -328 -106
t-102 -344v-1096h-143v1102q0 305 144.5 444.5t434.5 139.5q242 0 385.5 -107.5t143.5 -288.5v-10q0 -137 -78 -236t-199 -124z" />
    <glyph glyph-name="agrave" unicode="&#xe0;" horiz-adv-x="1265" 
d="M725 1290h-98l-269 301h172zM594 1155q238 0 361.5 -106t123.5 -312v-680q-82 -30 -209.5 -53.5t-246.5 -23.5q-257 0 -393 93.5t-136 270.5v2q0 174 133 268.5t381 94.5q111 0 330 -29v53q0 295 -377 295q-209 0 -377 -82l25 131q159 78 385 78zM621 111q70 0 162 13
t155 34v391q-39 8 -143.5 19.5t-173.5 11.5q-381 0 -381 -232q0 -237 381 -237z" />
    <glyph glyph-name="aacute" unicode="&#xe1;" horiz-adv-x="1265" 
d="M915 1589l-268 -293h-143l244 293h167zM594 1155q238 0 361.5 -106t123.5 -312v-680q-82 -30 -209.5 -53.5t-246.5 -23.5q-257 0 -393 93.5t-136 270.5v2q0 174 133 268.5t381 94.5q111 0 330 -29v53q0 295 -377 295q-209 0 -377 -82l25 131q159 78 385 78zM621 111
q70 0 162 13t155 34v391q-39 8 -143.5 19.5t-173.5 11.5q-381 0 -381 -232q0 -237 381 -237z" />
    <glyph glyph-name="acircumflex" unicode="&#xe2;" horiz-adv-x="1265" 
d="M610 1509l-200 -215h-144l275 291h139l276 -291h-143zM594 1155q238 0 361.5 -106t123.5 -312v-680q-82 -30 -209.5 -53.5t-246.5 -23.5q-257 0 -393 93.5t-136 270.5v2q0 174 133 268.5t381 94.5q111 0 330 -29v53q0 295 -377 295q-209 0 -377 -82l25 131q159 78 385 78
zM621 111q70 0 162 13t155 34v391q-39 8 -143.5 19.5t-173.5 11.5q-381 0 -381 -232q0 -237 381 -237z" />
    <glyph glyph-name="atilde" unicode="&#xe3;" horiz-adv-x="1265" 
d="M471 1393q-44 0 -67.5 -25.5t-34.5 -81.5h-111q12 110 58.5 164.5t134.5 54.5q47 0 91 -17t72.5 -37t66.5 -37t75 -17q43 0 65.5 25t34.5 81h111q-12 -111 -56.5 -164t-134.5 -53q-45 0 -88.5 16.5t-72.5 37t-68 37t-76 16.5zM594 1155q238 0 361.5 -106t123.5 -312v-680
q-82 -30 -209.5 -53.5t-246.5 -23.5q-257 0 -393 93.5t-136 270.5v2q0 174 133 268.5t381 94.5q111 0 330 -29v53q0 295 -377 295q-209 0 -377 -82l25 131q159 78 385 78zM621 111q70 0 162 13t155 34v391q-39 8 -143.5 19.5t-173.5 11.5q-381 0 -381 -232q0 -237 381 -237z
" />
    <glyph glyph-name="adieresis" unicode="&#xe4;" horiz-adv-x="1265" 
d="M444 1290q-50 0 -85.5 30.5t-34.5 82.5q1 49 35.5 79.5t84.5 30.5q49 0 83 -31t34 -79q0 -52 -34.5 -82.5t-82.5 -30.5zM772 1290q-50 0 -86 30.5t-35 82.5q0 48 35 79t86 31q48 0 81.5 -30.5t33.5 -79.5q0 -52 -34 -82.5t-81 -30.5zM594 1155q238 0 361.5 -106
t123.5 -312v-680q-82 -30 -209.5 -53.5t-246.5 -23.5q-257 0 -393 93.5t-136 270.5v2q0 174 133 268.5t381 94.5q111 0 330 -29v53q0 295 -377 295q-209 0 -377 -82l25 131q159 78 385 78zM621 111q70 0 162 13t155 34v391q-39 8 -143.5 19.5t-173.5 11.5q-381 0 -381 -232
q0 -237 381 -237z" />
    <glyph glyph-name="aring" unicode="&#xe5;" horiz-adv-x="1265" 
d="M614 1288q-93 0 -158 62t-65 153t63 150t158 59q91 0 155 -62.5t64 -152.5q0 -92 -61.5 -150.5t-155.5 -58.5zM614 1628q-61 0 -100 -35.5t-37 -91.5q-3 -56 37 -92.5t98 -36.5q61 0 98.5 36t37.5 93q-1 55 -39 91t-95 36zM594 1155q238 0 361.5 -106t123.5 -312v-680
q-82 -30 -209.5 -53.5t-246.5 -23.5q-257 0 -393 93.5t-136 270.5v2q0 174 133 268.5t381 94.5q111 0 330 -29v53q0 295 -377 295q-209 0 -377 -82l25 131q159 78 385 78zM621 111q70 0 162 13t155 34v391q-39 8 -143.5 19.5t-173.5 11.5q-381 0 -381 -232q0 -237 381 -237z
" />
    <glyph glyph-name="ae" unicode="&#xe6;" horiz-adv-x="2148" 
d="M2050 598v-74h-969q12 -194 132.5 -308t316.5 -114q211 0 377 93l59 -115q-195 -105 -446 -105q-137 0 -250.5 47t-190.5 134v-99q-82 -30 -209.5 -53.5t-246.5 -23.5q-257 0 -393 93.5t-136 270.5v2q0 174 133 268.5t381 94.5q111 0 330 -29v53q0 295 -377 295
q-209 0 -377 -82l25 131q159 78 385 78q351 0 450 -225q76 106 196.5 163.5t272.5 57.5q242 0 389.5 -152t147.5 -401zM1511 1026q-181 0 -293.5 -101t-134.5 -278h828q-6 173 -114.5 276t-285.5 103zM938 158v348q-2 14 -2 43q-46 9 -147 20t-168 11q-381 0 -381 -232
q0 -237 381 -237q70 0 162 13t155 34z" />
    <glyph glyph-name="ccedilla" unicode="&#xe7;" horiz-adv-x="1116" 
d="M1053 59q-143 -70 -324 -79l-65 -107q12 4 51 4q79 0 135.5 -40t56.5 -111q0 -85 -65.5 -131t-173.5 -46q-83 0 -156 23l-8 82q83 -27 153 -27q160 0 160 92q0 80 -131 80q-59 0 -129 -26l-18 26l108 178q-249 10 -396.5 169t-150.5 419v2q3 264 162.5 425t417.5 161
q208 0 373 -80l-58 -121q-136 68 -313 68q-196 0 -315.5 -123.5t-122.5 -329.5v-2q3 -206 122.5 -330t317.5 -124q182 0 311 69z" />
    <glyph glyph-name="egrave" unicode="&#xe8;" horiz-adv-x="1308" 
d="M788 1298h-98l-268 301h172zM1210 600v-74h-968q12 -194 132 -308t316 -114q211 0 377 93l59 -115q-195 -105 -446 -105q-261 0 -422.5 162t-161.5 424v2q0 265 159 426.5t419 161.5q241 0 388.5 -152t147.5 -401zM672 1028q-181 0 -293.5 -101t-134.5 -278h827
q-6 173 -114 276t-285 103z" />
    <glyph glyph-name="eacute" unicode="&#xe9;" horiz-adv-x="1308" 
d="M979 1597l-268 -292h-144l244 292h168zM1210 600v-74h-968q12 -194 132 -308t316 -114q211 0 377 93l59 -115q-195 -105 -446 -105q-261 0 -422.5 162t-161.5 424v2q0 265 159 426.5t419 161.5q241 0 388.5 -152t147.5 -401zM672 1028q-181 0 -293.5 -101t-134.5 -278
h827q-6 173 -114 276t-285 103z" />
    <glyph glyph-name="ecircumflex" unicode="&#xea;" horiz-adv-x="1308" 
d="M674 1518l-201 -215h-143l274 290h139l277 -290h-143zM1210 600v-74h-968q12 -194 132 -308t316 -114q211 0 377 93l59 -115q-195 -105 -446 -105q-261 0 -422.5 162t-161.5 424v2q0 265 159 426.5t419 161.5q241 0 388.5 -152t147.5 -401zM672 1028q-181 0 -293.5 -101
t-134.5 -278h827q-6 173 -114 276t-285 103z" />
    <glyph glyph-name="edieresis" unicode="&#xeb;" horiz-adv-x="1308" 
d="M508 1298q-50 0 -86 30.5t-35 82.5q1 49 36 80t85 31q48 0 82.5 -31.5t34.5 -79.5q0 -52 -34.5 -82.5t-82.5 -30.5zM836 1298q-50 0 -86 30.5t-35 82.5q0 49 35 80t86 31q48 0 81 -31t33 -80q0 -52 -33.5 -82.5t-80.5 -30.5zM1210 600v-74h-968q12 -194 132 -308
t316 -114q211 0 377 93l59 -115q-195 -105 -446 -105q-261 0 -422.5 162t-161.5 424v2q0 265 159 426.5t419 161.5q241 0 388.5 -152t147.5 -401zM672 1028q-181 0 -293.5 -101t-134.5 -278h827q-6 173 -114 276t-285 103z" />
    <glyph glyph-name="igrave" unicode="&#xec;" horiz-adv-x="538" 
d="M287 1288l-269 301h172l195 -301h-98zM199 0v1122h143v-1122h-143z" />
    <glyph glyph-name="iacute" unicode="&#xed;" horiz-adv-x="538" 
d="M164 1294l244 293h167l-268 -293h-143zM199 0v1122h143v-1122h-143z" />
    <glyph glyph-name="icircumflex" unicode="&#xee;" horiz-adv-x="538" 
d="M-74 1292l275 291h139l276 -291h-143l-203 215l-200 -215h-144zM199 0v1122h143v-1122h-143z" />
    <glyph glyph-name="idieresis" unicode="&#xef;" horiz-adv-x="538" 
d="M104 1288q-50 0 -85.5 30.5t-34.5 82.5q1 49 35.5 79.5t84.5 30.5q49 0 83 -31t34 -79q0 -52 -34.5 -82.5t-82.5 -30.5zM432 1288q-50 0 -86 30.5t-35 82.5q0 48 35 79t86 31q48 0 81.5 -30.5t33.5 -79.5q0 -52 -34 -82.5t-81 -30.5zM199 0v1122h143v-1122h-143z" />
    <glyph glyph-name="eth" unicode="&#xf0;" horiz-adv-x="1374" 
d="M1139 952q141 -163 141 -389v-2q0 -164 -77.5 -298t-213 -210.5t-301.5 -77.5h-2q-250 0 -420 168.5t-172 417.5v2q0 165 78 300.5t213.5 213.5t300.5 78h2q83 0 166 -22l-178 245l-223 -80l-54 93l213 75l-139 193h156l108 -150l195 70l53 -92l-184 -66zM1135 561v2
q0 125 -56.5 229t-159.5 165.5t-231 62.5h-2q-128 0 -231 -61.5t-159 -166t-56 -229.5v-2q0 -123 56 -226t159 -163.5t231 -60.5h2q195 0 321 130.5t126 319.5z" />
    <glyph glyph-name="ntilde" unicode="&#xf1;" horiz-adv-x="1349" 
d="M326 1294q12 110 58.5 164.5t133.5 54.5q47 0 91 -17t72.5 -37t66.5 -37t75 -17q43 0 66 25t35 81h110q-12 -111 -56 -164t-134 -53q-45 0 -88.5 16.5t-72.5 37t-68 37t-76 16.5q-44 0 -68 -25.5t-35 -81.5h-110zM199 0v1098q303 51 485 51q467 0 467 -412
q0 -123 1 -368.5t1 -368.5h-143q0 119 -1 355.5t-1 355.5q0 159 -85.5 229t-248.5 70q-136 0 -332 -33v-977h-143z" />
    <glyph glyph-name="ograve" unicode="&#xf2;" horiz-adv-x="1374" 
d="M705 1298l-269 301h172l195 -301h-98zM686 -25q-250 0 -420 168.5t-172 417.5v2q0 165 78 300.5t213.5 213.5t300.5 78h2q124 -1 234 -47t188.5 -124.5t124 -188t45.5 -232.5v-2q0 -164 -77.5 -298t-213 -210.5t-301.5 -77.5h-2zM686 111h2q195 0 321 130.5t126 319.5v2
q0 125 -56.5 229t-159.5 165.5t-231 62.5h-2q-128 0 -231 -61.5t-159 -166t-56 -229.5v-2q0 -123 56 -226t159 -163.5t231 -60.5z" />
    <glyph glyph-name="oacute" unicode="&#xf3;" horiz-adv-x="1374" 
d="M582 1305l243 292h168l-268 -292h-143zM686 -25q-250 0 -420 168.5t-172 417.5v2q0 165 78 300.5t213.5 213.5t300.5 78h2q124 -1 234 -47t188.5 -124.5t124 -188t45.5 -232.5v-2q0 -164 -77.5 -298t-213 -210.5t-301.5 -77.5h-2zM686 111h2q195 0 321 130.5t126 319.5v2
q0 125 -56.5 229t-159.5 165.5t-231 62.5h-2q-128 0 -231 -61.5t-159 -166t-56 -229.5v-2q0 -123 56 -226t159 -163.5t231 -60.5z" />
    <glyph glyph-name="ocircumflex" unicode="&#xf4;" horiz-adv-x="1374" 
d="M344 1303l274 290h140l276 -290h-143l-203 215l-201 -215h-143zM686 -25q-250 0 -420 168.5t-172 417.5v2q0 165 78 300.5t213.5 213.5t300.5 78h2q124 -1 234 -47t188.5 -124.5t124 -188t45.5 -232.5v-2q0 -164 -77.5 -298t-213 -210.5t-301.5 -77.5h-2zM686 111h2
q195 0 321 130.5t126 319.5v2q0 125 -56.5 229t-159.5 165.5t-231 62.5h-2q-128 0 -231 -61.5t-159 -166t-56 -229.5v-2q0 -123 56 -226t159 -163.5t231 -60.5z" />
    <glyph glyph-name="otilde" unicode="&#xf5;" horiz-adv-x="1374" 
d="M336 1294q12 110 58.5 164.5t133.5 54.5q47 0 91 -17t72.5 -37t67 -37t75.5 -17q43 0 65.5 25t34.5 81h110q-12 -111 -56 -164t-134 -53q-45 0 -88.5 16.5t-72.5 37t-68 37t-76 16.5q-44 0 -68 -25.5t-35 -81.5h-110zM686 -25q-250 0 -420 168.5t-172 417.5v2
q0 165 78 300.5t213.5 213.5t300.5 78h2q124 -1 234 -47t188.5 -124.5t124 -188t45.5 -232.5v-2q0 -164 -77.5 -298t-213 -210.5t-301.5 -77.5h-2zM686 111h2q195 0 321 130.5t126 319.5v2q0 125 -56.5 229t-159.5 165.5t-231 62.5h-2q-128 0 -231 -61.5t-159 -166
t-56 -229.5v-2q0 -123 56 -226t159 -163.5t231 -60.5z" />
    <glyph glyph-name="odieresis" unicode="&#xf6;" horiz-adv-x="1374" 
d="M522 1298q-50 0 -86 30.5t-35 82.5q1 49 36 80t85 31q48 0 82.5 -31.5t34.5 -79.5q0 -52 -34.5 -82.5t-82.5 -30.5zM850 1298q-50 0 -86 30.5t-35 82.5q0 49 35 80t86 31q48 0 81.5 -31t33.5 -80q0 -52 -34 -82.5t-81 -30.5zM686 -25q-250 0 -420 168.5t-172 417.5v2
q0 165 78 300.5t213.5 213.5t300.5 78h2q124 -1 234 -47t188.5 -124.5t124 -188t45.5 -232.5v-2q0 -164 -77.5 -298t-213 -210.5t-301.5 -77.5h-2zM686 111h2q195 0 321 130.5t126 319.5v2q0 125 -56.5 229t-159.5 165.5t-231 62.5h-2q-128 0 -231 -61.5t-159 -166
t-56 -229.5v-2q0 -123 56 -226t159 -163.5t231 -60.5z" />
    <glyph glyph-name="divide" unicode="&#xf7;" horiz-adv-x="1359" 
d="M672 797q-52 0 -87.5 30.5t-35.5 83.5q0 50 35.5 82.5t87.5 32.5q50 0 85.5 -32.5t35.5 -82.5q0 -53 -35.5 -83.5t-85.5 -30.5zM133 494v131h1073v-131h-1073zM672 92q-52 0 -87.5 31t-35.5 84q0 50 35.5 82.5t87.5 32.5q50 0 85.5 -32.5t35.5 -82.5q0 -53 -35.5 -84
t-85.5 -31z" />
    <glyph glyph-name="oslash" unicode="&#xf8;" horiz-adv-x="1374" 
d="M1337 1092l-174 -170q117 -155 117 -359v-2q0 -164 -77.5 -298t-213 -210.5t-301.5 -77.5h-2q-211 0 -369 123l-165 -161l-115 79l184 179q-127 159 -127 366v2q0 165 78 300.5t213.5 213.5t300.5 78h2q217 0 381 -135l154 149zM240 561q0 -147 82 -266l647 629
q-120 96 -281 96h-2q-128 0 -231 -61.5t-159 -166t-56 -229.5v-2zM1135 563q0 141 -74 258l-643 -624q120 -86 268 -86h2q195 0 321 130.5t126 319.5v2z" />
    <glyph glyph-name="ugrave" unicode="&#xf9;" horiz-adv-x="1349" 
d="M692 1298l-268 301h172l195 -301h-99zM1153 1122v-1091q-294 -56 -487 -56q-242 0 -353.5 104t-111.5 312q0 123 -1 366t-1 365h143q0 -119 1 -353t1 -353q0 -87 22.5 -146.5t67.5 -92.5t103 -46.5t139 -13.5q150 0 334 35v970h143z" />
    <glyph glyph-name="uacute" unicode="&#xfa;" horiz-adv-x="1349" 
d="M569 1305l244 292h168l-268 -292h-144zM1153 1122v-1091q-294 -56 -487 -56q-242 0 -353.5 104t-111.5 312q0 123 -1 366t-1 365h143q0 -119 1 -353t1 -353q0 -87 22.5 -146.5t67.5 -92.5t103 -46.5t139 -13.5q150 0 334 35v970h143z" />
    <glyph glyph-name="ucircumflex" unicode="&#xfb;" horiz-adv-x="1349" 
d="M332 1303l274 290h139l277 -290h-143l-203 215l-201 -215h-143zM1153 1122v-1091q-294 -56 -487 -56q-242 0 -353.5 104t-111.5 312q0 123 -1 366t-1 365h143q0 -119 1 -353t1 -353q0 -87 22.5 -146.5t67.5 -92.5t103 -46.5t139 -13.5q150 0 334 35v970h143z" />
    <glyph glyph-name="udieresis" unicode="&#xfc;" horiz-adv-x="1349" 
d="M510 1298q-50 0 -86 30.5t-35 82.5q1 49 36 80t85 31q48 0 82.5 -31.5t34.5 -79.5q0 -52 -34.5 -82.5t-82.5 -30.5zM838 1298q-50 0 -86 30.5t-35 82.5q0 49 35 80t86 31q48 0 81 -31t33 -80q0 -52 -33.5 -82.5t-80.5 -30.5zM1153 1122v-1091q-294 -56 -487 -56
q-242 0 -353.5 104t-111.5 312q0 123 -1 366t-1 365h143q0 -119 1 -353t1 -353q0 -87 22.5 -146.5t67.5 -92.5t103 -46.5t139 -13.5q150 0 334 35v970h143z" />
    <glyph glyph-name="yacute" unicode="&#xfd;" horiz-adv-x="1333" 
d="M975 1587l-268 -293h-144l244 293h168zM1141 88h-2v-121q0 -215 -129.5 -324.5t-354.5 -109.5q-211 0 -362 66l-23 131q152 -70 357 -70q182 0 277 73.5t95 239.5v72q-161 -41 -344 -41q-241 0 -348.5 103.5t-107.5 314.5v700h143v-678q0 -166 82.5 -233.5t243.5 -67.5
q175 0 331 45v934h140v-1032z" />
    <glyph glyph-name="thorn" unicode="&#xfe;" horiz-adv-x="1333" 
d="M602 1145q290 0 462.5 -155t172.5 -431v-2q0 -271 -168.5 -429.5t-466.5 -158.5q-118 0 -260 29v-449h-143v2112h143v-543q152 27 260 27zM1098 557v2q0 206 -129.5 330.5t-360.5 124.5q-126 0 -266 -37v-848q130 -29 266 -29q225 0 357.5 121t132.5 336z" />
    <glyph glyph-name="ydieresis" unicode="&#xff;" horiz-adv-x="1333" 
d="M504 1288q-50 0 -86 30.5t-35 82.5q1 49 36 79.5t85 30.5q49 0 83 -31t34 -79q0 -52 -34.5 -82.5t-82.5 -30.5zM831 1288q-50 0 -85.5 30.5t-34.5 82.5q0 49 34.5 79.5t85.5 30.5q48 0 81.5 -30.5t33.5 -79.5q0 -52 -34 -82.5t-81 -30.5zM1141 88h-2v-121
q0 -215 -129.5 -324.5t-354.5 -109.5q-211 0 -362 66l-23 131q152 -70 357 -70q182 0 277 73.5t95 239.5v72q-161 -41 -344 -41q-241 0 -348.5 103.5t-107.5 314.5v700h143v-678q0 -166 82.5 -233.5t243.5 -67.5q175 0 331 45v934h140v-1032z" />
    <glyph glyph-name="Amacron" unicode="&#x100;" horiz-adv-x="1552" 
d="M1069 1901v-105h-580v105h580zM1352 0l-203 532h-748l-200 -532h-148l633 1661h172l643 -1661h-149zM768 1503l-322 -841h656l-324 841l-6 15z" />
    <glyph glyph-name="amacron" unicode="&#x101;" horiz-adv-x="1265" 
d="M901 1395v-105h-579v105h579zM594 1155q238 0 361.5 -106t123.5 -312v-680q-82 -30 -209.5 -53.5t-246.5 -23.5q-257 0 -393 93.5t-136 270.5v2q0 174 133 268.5t381 94.5q111 0 330 -29v53q0 295 -377 295q-209 0 -377 -82l25 131q159 78 385 78zM621 111q70 0 162 13
t155 34v391q-39 8 -143.5 19.5t-173.5 11.5q-381 0 -381 -232q0 -237 381 -237z" />
    <glyph glyph-name="Abreve" unicode="&#x102;" horiz-adv-x="1552" 
d="M782 1794q-154 0 -232 68.5t-95 212.5h96q17 -110 69.5 -156.5t161.5 -46.5t162 46.5t70 156.5h96q-17 -144 -95.5 -212.5t-232.5 -68.5zM1352 0l-203 532h-748l-200 -532h-148l633 1661h172l643 -1661h-149zM768 1503l-322 -841h656l-324 841l-6 15z" />
    <glyph glyph-name="abreve" unicode="&#x103;" horiz-adv-x="1265" 
d="M614 1288q-154 0 -232 68.5t-95 212.5h96q17 -110 69.5 -156.5t161.5 -46.5t162 46.5t70 156.5h96q-17 -144 -95.5 -212.5t-232.5 -68.5zM594 1155q238 0 361.5 -106t123.5 -312v-680q-82 -30 -209.5 -53.5t-246.5 -23.5q-257 0 -393 93.5t-136 270.5v2q0 174 133 268.5
t381 94.5q111 0 330 -29v53q0 295 -377 295q-209 0 -377 -82l25 131q159 78 385 78zM621 111q70 0 162 13t155 34v391q-39 8 -143.5 19.5t-173.5 11.5q-381 0 -381 -232q0 -237 381 -237z" />
    <glyph glyph-name="Aogonek" unicode="&#x104;" horiz-adv-x="1552" 
d="M1442 -383q33 0 69 8v-71q-36 -9 -94 -9q-117 0 -199 55.5t-83 155.5q-2 78 46.5 135t168.5 115l-201 526h-748l-200 -532h-148l633 1661h172l643 -1661q-133 -57 -187.5 -109t-53.5 -120q3 -72 53.5 -113t128.5 -41zM768 1503l-322 -841h656l-324 841l-6 15z" />
    <glyph glyph-name="aogonek" unicode="&#x105;" horiz-adv-x="1265" 
d="M594 1155q238 0 361.5 -106t123.5 -312v-680q-132 -59 -189.5 -104.5t-60.5 -104.5q-3 -62 47.5 -91t133.5 -29q7 0 67 6v-72q-45 -10 -96 -10q-79 0 -140.5 17.5t-101 60t-37.5 106.5q3 89 103 158q-103 -14 -182 -14q-257 0 -393 93.5t-136 270.5v2q0 174 133 268.5
t381 94.5q111 0 330 -29v53q0 295 -377 295q-209 0 -377 -82l25 131q159 78 385 78zM621 111q70 0 162 13t155 34v391q-39 8 -143.5 19.5t-173.5 11.5q-381 0 -381 -232q0 -237 381 -237z" />
    <glyph glyph-name="Cacute" unicode="&#x106;" horiz-adv-x="1603" 
d="M856 1802l244 293h168l-269 -293h-143zM965 -23q-243 0 -438 108t-306 303t-112 441v2q0 246 111 442t306.5 304.5t438.5 108.5h2q289 0 526 -164l-57 -123q-214 147 -463 147h-2q-141 0 -268 -48.5t-225 -137t-156 -226t-58 -303.5v-2q1 -166 59 -302.5t155.5 -225
t224 -136.5t266.5 -48h2q256 0 465 143l57 -121q-232 -162 -526 -162h-2z" />
    <glyph glyph-name="cacute" unicode="&#x107;" horiz-adv-x="1116" 
d="M567 1294l244 293h168l-268 -293h-144zM680 -23q-262 0 -419.5 160t-160.5 428v2q3 264 162.5 425t417.5 161q208 0 373 -80l-58 -121q-136 68 -313 68q-196 0 -315.5 -123.5t-122.5 -329.5v-2q3 -206 122.5 -330t317.5 -124q182 0 311 69l58 -121q-169 -82 -373 -82z
" />
    <glyph glyph-name="Ccircumflex" unicode="&#x108;" horiz-adv-x="1603" 
d="M618 1800l275 291h139l277 -291h-144l-202 215l-201 -215h-144zM965 -23q-243 0 -438 108t-306 303t-112 441v2q0 246 111 442t306.5 304.5t438.5 108.5h2q289 0 526 -164l-57 -123q-214 147 -463 147h-2q-141 0 -268 -48.5t-225 -137t-156 -226t-58 -303.5v-2
q1 -166 59 -302.5t155.5 -225t224 -136.5t266.5 -48h2q256 0 465 143l57 -121q-232 -162 -526 -162h-2z" />
    <glyph glyph-name="ccircumflex" unicode="&#x109;" horiz-adv-x="1116" 
d="M330 1292l274 291h139l277 -291h-143l-203 215l-201 -215h-143zM680 -23q-262 0 -419.5 160t-160.5 428v2q3 264 162.5 425t417.5 161q208 0 373 -80l-58 -121q-136 68 -313 68q-196 0 -315.5 -123.5t-122.5 -329.5v-2q3 -206 122.5 -330t317.5 -124q182 0 311 69
l58 -121q-169 -82 -373 -82z" />
    <glyph glyph-name="Cdotaccent" unicode="&#x10a;" horiz-adv-x="1603" 
d="M963 1794q-52 0 -87.5 31t-35.5 84q0 50 35.5 82t87.5 32q50 0 85 -32t35 -82q0 -53 -35 -84t-85 -31zM965 -23q-243 0 -438 108t-306 303t-112 441v2q0 246 111 442t306.5 304.5t438.5 108.5h2q289 0 526 -164l-57 -123q-214 147 -463 147h-2q-141 0 -268 -48.5
t-225 -137t-156 -226t-58 -303.5v-2q1 -166 59 -302.5t155.5 -225t224 -136.5t266.5 -48h2q256 0 465 143l57 -121q-232 -162 -526 -162h-2z" />
    <glyph glyph-name="cdotaccent" unicode="&#x10b;" horiz-adv-x="1116" 
d="M674 1286q-52 0 -87.5 31t-35.5 84q0 50 35.5 82.5t87.5 32.5q50 0 85.5 -32.5t35.5 -82.5q0 -53 -35.5 -84t-85.5 -31zM680 -23q-262 0 -419.5 160t-160.5 428v2q3 264 162.5 425t417.5 161q208 0 373 -80l-58 -121q-136 68 -313 68q-196 0 -315.5 -123.5t-122.5 -329.5
v-2q3 -206 122.5 -330t317.5 -124q182 0 311 69l58 -121q-169 -82 -373 -82z" />
    <glyph glyph-name="Ccaron" unicode="&#x10c;" horiz-adv-x="1603" 
d="M893 1796l-299 301h141l230 -235l227 235h141l-295 -301h-145zM965 -23q-243 0 -438 108t-306 303t-112 441v2q0 246 111 442t306.5 304.5t438.5 108.5h2q289 0 526 -164l-57 -123q-214 147 -463 147h-2q-141 0 -268 -48.5t-225 -137t-156 -226t-58 -303.5v-2
q1 -166 59 -302.5t155.5 -225t224 -136.5t266.5 -48h2q256 0 465 143l57 -121q-232 -162 -526 -162h-2z" />
    <glyph glyph-name="ccaron" unicode="&#x10d;" horiz-adv-x="1116" 
d="M604 1288l-299 301h141l230 -235l227 235h141l-294 -301h-146zM680 -23q-262 0 -419.5 160t-160.5 428v2q3 264 162.5 425t417.5 161q208 0 373 -80l-58 -121q-136 68 -313 68q-196 0 -315.5 -123.5t-122.5 -329.5v-2q3 -206 122.5 -330t317.5 -124q182 0 311 69l58 -121
q-169 -82 -373 -82z" />
    <glyph glyph-name="Dcaron" unicode="&#x10e;" horiz-adv-x="1681" 
d="M918 1796h-146l-299 301h141l230 -235l227 235h141zM688 1661q199 0 363 -58.5t277.5 -165.5t176 -261t62.5 -340v-2q-1 -188 -64 -343.5t-176.5 -263.5t-277.5 -167.5t-361 -59.5h-452v1661h452zM1411 834v2q0 320 -189.5 506t-516.5 186h-326v-1393h326
q326 0 516 188.5t190 510.5z" />
    <glyph glyph-name="dcaron" unicode="&#x10f;" horiz-adv-x="1425" 
d="M991 1118v543h144v-1628q-209 -64 -404 -64q-298 0 -466.5 158.5t-168.5 429.5v2q0 276 172.5 431t462.5 155q108 0 260 -27zM1319 1661h121l-117 -375h-86zM725 100q138 0 266 29v850q-143 35 -266 35q-231 0 -360 -124.5t-129 -330.5v-2q0 -215 132 -336t357 -121z" />
    <glyph glyph-name="Dcroat" unicode="&#x110;" horiz-adv-x="1681" 
d="M688 1661q199 0 363 -58.5t277.5 -165.5t176 -261t62.5 -340v-2q-1 -188 -64 -343.5t-176.5 -263.5t-277.5 -167.5t-361 -59.5h-452v791h-181v114h181v756h452zM1411 834v2q0 320 -189.5 506t-516.5 186h-326v-623h233v-114h-233v-656h326q326 0 516 188.5t190 510.5z
" />
    <glyph glyph-name="dcroat" unicode="&#x111;" horiz-adv-x="1333" 
d="M1313 1460v-114h-178v-1313q-209 -64 -404 -64q-298 0 -466.5 158.5t-168.5 429.5v2q0 276 172.5 431t462.5 155q108 0 260 -27v228h-235v114h235v201h144v-201h178zM725 100q138 0 266 29v850q-143 35 -266 35q-231 0 -360 -124.5t-129 -330.5v-2q0 -215 132 -336
t357 -121z" />
    <glyph glyph-name="Emacron" unicode="&#x112;" horiz-adv-x="1388" 
d="M459 1796v105h579v-105h-579zM236 0v1661h974v-133h-831v-600h751v-135h-751v-658h842v-135h-985z" />
    <glyph glyph-name="emacron" unicode="&#x113;" horiz-adv-x="1308" 
d="M965 1403v-105h-580v105h580zM1210 600v-74h-968q12 -194 132 -308t316 -114q211 0 377 93l59 -115q-195 -105 -446 -105q-261 0 -422.5 162t-161.5 424v2q0 265 159 426.5t419 161.5q241 0 388.5 -152t147.5 -401zM672 1028q-181 0 -293.5 -101t-134.5 -278h827
q-6 173 -114 276t-285 103z" />
    <glyph glyph-name="Ebreve" unicode="&#x114;" horiz-adv-x="1388" 
d="M752 1794q-154 0 -232.5 68.5t-95.5 212.5h96q17 -110 70 -156.5t162 -46.5t161.5 46.5t69.5 156.5h96q-17 -144 -95 -212.5t-232 -68.5zM236 0v1661h974v-133h-831v-600h751v-135h-751v-658h842v-135h-985z" />
    <glyph glyph-name="ebreve" unicode="&#x115;" horiz-adv-x="1308" 
d="M678 1296q-154 0 -232.5 68.5t-95.5 212.5h96q17 -110 70 -156.5t162 -46.5t161.5 46.5t69.5 156.5h97q-17 -144 -95.5 -212.5t-232.5 -68.5zM1210 600v-74h-968q12 -194 132 -308t316 -114q211 0 377 93l59 -115q-195 -105 -446 -105q-261 0 -422.5 162t-161.5 424v2
q0 265 159 426.5t419 161.5q241 0 388.5 -152t147.5 -401zM672 1028q-181 0 -293.5 -101t-134.5 -278h827q-6 173 -114 276t-285 103z" />
    <glyph glyph-name="Edotaccent" unicode="&#x116;" horiz-adv-x="1388" 
d="M748 1794q-52 0 -87.5 31t-35.5 84q0 50 35.5 82t87.5 32q50 0 85 -32t35 -82q0 -53 -35 -84t-85 -31zM236 0v1661h974v-133h-831v-600h751v-135h-751v-658h842v-135h-985z" />
    <glyph glyph-name="edotaccent" unicode="&#x117;" horiz-adv-x="1308" 
d="M674 1296q-52 0 -87.5 31t-35.5 84q0 50 35.5 82.5t87.5 32.5q50 0 85.5 -32.5t35.5 -82.5q0 -53 -35.5 -84t-85.5 -31zM1210 600v-74h-968q12 -194 132 -308t316 -114q211 0 377 93l59 -115q-195 -105 -446 -105q-261 0 -422.5 162t-161.5 424v2q0 265 159 426.5
t419 161.5q241 0 388.5 -152t147.5 -401zM672 1028q-181 0 -293.5 -101t-134.5 -278h827q-6 173 -114 276t-285 103z" />
    <glyph glyph-name="Eogonek" unicode="&#x118;" horiz-adv-x="1388" 
d="M1221 0q-132 -59 -189.5 -104.5t-60.5 -104.5q-3 -62 47 -91.5t133 -29.5q8 0 68 6v-71q-49 -11 -97 -11q-79 0 -140 18t-100.5 60.5t-37.5 106.5q3 64 55 117t162 104h-825v1661h974v-133h-831v-600h751v-135h-751v-658h842v-135z" />
    <glyph glyph-name="eogonek" unicode="&#x119;" horiz-adv-x="1308" 
d="M1210 600v-74h-968q12 -194 132 -308t316 -114q211 0 377 93l59 -115q-59 -30 -86 -41q-83 -42 -121.5 -80.5t-41.5 -87.5q-3 -62 47 -91.5t133 -29.5q7 0 67 6v-71q-49 -11 -96 -11q-79 0 -140 18t-100.5 60.5t-37.5 106.5q3 67 61 125q-61 -9 -131 -9
q-261 0 -422.5 162t-161.5 424v2q0 265 159 426.5t419 161.5q241 0 388.5 -152t147.5 -401zM672 1028q-181 0 -293.5 -101t-134.5 -278h827q-6 173 -114 276t-285 103z" />
    <glyph glyph-name="Ecaron" unicode="&#x11a;" horiz-adv-x="1388" 
d="M678 1796l-299 301h141l230 -235l227 235h141l-295 -301h-145zM236 0v1661h974v-133h-831v-600h751v-135h-751v-658h842v-135h-985z" />
    <glyph glyph-name="ecaron" unicode="&#x11b;" horiz-adv-x="1308" 
d="M750 1298h-146l-299 301h141l230 -235l227 235h141zM1210 600v-74h-968q12 -194 132 -308t316 -114q211 0 377 93l59 -115q-195 -105 -446 -105q-261 0 -422.5 162t-161.5 424v2q0 265 159 426.5t419 161.5q241 0 388.5 -152t147.5 -401zM672 1028q-181 0 -293.5 -101
t-134.5 -278h827q-6 173 -114 276t-285 103z" />
    <glyph glyph-name="Gcircumflex" unicode="&#x11c;" horiz-adv-x="1646" 
d="M948 2015l-200 -215h-144l275 291h139l276 -291h-143zM870 829h656v-688q-112 -78 -260 -121t-301 -43q-244 0 -439 108.5t-305.5 303t-111.5 440.5v2q0 185 64.5 344t177.5 271t272 176t342 64q297 0 548 -164l-57 -129q-211 153 -485 153q-112 0 -216.5 -30t-194 -90.5
t-156 -145t-104.5 -200t-38 -249.5v-2q1 -165 59 -301.5t156.5 -225t225.5 -137t268 -48.5q240 0 420 123v456h-521v133z" />
    <glyph glyph-name="gcircumflex" unicode="&#x11d;" horiz-adv-x="1341" 
d="M752 1507l-201 -215h-143l274 291h139l277 -291h-144zM735 1149q78 0 197.5 -17t214.5 -42v-1123q0 -215 -129 -324.5t-354 -109.5q-212 0 -363 66l-22 131q152 -70 356 -70q183 0 278 73.5t95 239.5v54q-148 -23 -260 -23h-7q-312 0 -477.5 154t-165.5 426v2
q0 262 171 412.5t464 150.5h2zM1004 176v795q-139 39 -263 39h-2q-233 0 -363 -109t-130 -319v-2q0 -209 130.5 -322t366.5 -113h7q132 0 254 31z" />
    <glyph glyph-name="Gbreve" unicode="&#x11e;" horiz-adv-x="1646" 
d="M952 1794q-154 0 -232 68.5t-95 212.5h96q17 -110 69.5 -156.5t161.5 -46.5t162 46.5t70 156.5h96q-17 -144 -95.5 -212.5t-232.5 -68.5zM870 829h656v-688q-112 -78 -260 -121t-301 -43q-244 0 -439 108.5t-305.5 303t-111.5 440.5v2q0 185 64.5 344t177.5 271t272 176
t342 64q297 0 548 -164l-57 -129q-211 153 -485 153q-112 0 -216.5 -30t-194 -90.5t-156 -145t-104.5 -200t-38 -249.5v-2q1 -165 59 -301.5t156.5 -225t225.5 -137t268 -48.5q240 0 420 123v456h-521v133z" />
    <glyph glyph-name="gbreve" unicode="&#x11f;" horiz-adv-x="1341" 
d="M756 1286q-154 0 -232.5 68.5t-95.5 212.5h96q17 -110 70 -156.5t162 -46.5t161.5 46.5t69.5 156.5h96q-17 -144 -95 -212.5t-232 -68.5zM735 1149q78 0 197.5 -17t214.5 -42v-1123q0 -215 -129 -324.5t-354 -109.5q-212 0 -363 66l-22 131q152 -70 356 -70
q183 0 278 73.5t95 239.5v54q-148 -23 -260 -23h-7q-312 0 -477.5 154t-165.5 426v2q0 262 171 412.5t464 150.5h2zM1004 176v795q-139 39 -263 39h-2q-233 0 -363 -109t-130 -319v-2q0 -209 130.5 -322t366.5 -113h7q132 0 254 31z" />
    <glyph glyph-name="Gdotaccent" unicode="&#x120;" horiz-adv-x="1646" 
d="M948 1794q-52 0 -87.5 31t-35.5 84q0 50 35.5 82t87.5 32q51 0 86 -32t35 -82q0 -53 -35.5 -84t-85.5 -31zM870 829h656v-688q-112 -78 -260 -121t-301 -43q-244 0 -439 108.5t-305.5 303t-111.5 440.5v2q0 185 64.5 344t177.5 271t272 176t342 64q297 0 548 -164
l-57 -129q-211 153 -485 153q-112 0 -216.5 -30t-194 -90.5t-156 -145t-104.5 -200t-38 -249.5v-2q1 -165 59 -301.5t156.5 -225t225.5 -137t268 -48.5q240 0 420 123v456h-521v133z" />
    <glyph glyph-name="gdotaccent" unicode="&#x121;" horiz-adv-x="1341" 
d="M752 1286q-52 0 -87.5 31t-35.5 84q0 50 35.5 82.5t87.5 32.5q50 0 85 -32.5t35 -82.5q0 -53 -35 -84t-85 -31zM735 1149q78 0 197.5 -17t214.5 -42v-1123q0 -215 -129 -324.5t-354 -109.5q-212 0 -363 66l-22 131q152 -70 356 -70q183 0 278 73.5t95 239.5v54
q-148 -23 -260 -23h-7q-312 0 -477.5 154t-165.5 426v2q0 262 171 412.5t464 150.5h2zM1004 176v795q-139 39 -263 39h-2q-233 0 -363 -109t-130 -319v-2q0 -209 130.5 -322t366.5 -113h7q132 0 254 31z" />
    <glyph glyph-name="Gcommaaccent" unicode="&#x122;" horiz-adv-x="1646" 
d="M870 829h656v-688q-112 -78 -260 -121t-301 -43q-244 0 -439 108.5t-305.5 303t-111.5 440.5v2q0 185 64.5 344t177.5 271t272 176t342 64q297 0 548 -164l-57 -129q-211 153 -485 153q-112 0 -216.5 -30t-194 -90.5t-156 -145t-104.5 -200t-38 -249.5v-2
q1 -165 59 -301.5t156.5 -225t225.5 -137t268 -48.5q240 0 420 123v456h-521v133zM770 -451l125 367h135l-162 -367h-98z" />
    <glyph glyph-name="gcommaaccent" unicode="&#x123;" horiz-adv-x="1341" 
d="M735 1149q78 0 197.5 -17t214.5 -42v-1123q0 -215 -129 -324.5t-354 -109.5q-212 0 -363 66l-22 131q152 -70 356 -70q183 0 278 73.5t95 239.5v54q-148 -23 -260 -23h-7q-312 0 -477.5 154t-165.5 426v2q0 262 171 412.5t464 150.5h2zM1004 176v795q-139 39 -263 39h-2
q-233 0 -363 -109t-130 -319v-2q0 -209 130.5 -322t366.5 -113h7q132 0 254 31zM496 -918l125 367h135l-162 -367h-98z" />
    <glyph glyph-name="Hcircumflex" unicode="&#x124;" horiz-adv-x="1718" 
d="M516 1800l275 291h139l276 -291h-143l-203 215l-201 -215h-143zM236 0v1661h143v-735h960v735h144v-1661h-144v791h-960v-791h-143z" />
    <glyph glyph-name="hcircumflex" unicode="&#x125;" horiz-adv-x="1349" 
d="M473 1833l-203 215l-200 -215h-144l275 291h139l276 -291h-143zM1153 -2h-143v711q0 159 -86 229t-248 70q-138 0 -334 -33v-975h-143v1661h143v-545q229 31 344 31q465 0 465 -412q0 -123 1 -368.5t1 -368.5z" />
    <glyph glyph-name="Hbar" unicode="&#x126;" horiz-adv-x="1718" 
d="M1622 1368v-123h-139v-1245h-144v791h-960v-791h-143v1245h-138v123h138v293h143v-293h960v293h144v-293h139zM1339 926v319h-960v-319h960z" />
    <glyph glyph-name="hbar" unicode="&#x127;" horiz-adv-x="1349" 
d="M1153 -2h-143v711q0 159 -86 229t-248 70q-138 0 -334 -33v-975h-143v1346h-187v114h187v201h143v-201h227v-114h-227v-230q229 31 344 31q465 0 465 -412q0 -123 1 -368.5t1 -368.5z" />
    <glyph glyph-name="Itilde" unicode="&#x128;" horiz-adv-x="612" 
d="M-45 1792q12 110 58.5 164.5t133.5 54.5q47 0 91 -17t72.5 -37t67 -37t75.5 -17q43 0 65.5 25t34.5 81h111q-12 -111 -56.5 -164t-134.5 -53q-45 0 -88.5 16.5t-72.5 36.5t-68 36.5t-76 16.5q-44 0 -67.5 -25t-34.5 -81h-111zM236 0v1661h143v-1661h-143z" />
    <glyph glyph-name="itilde" unicode="&#x129;" horiz-adv-x="538" 
d="M-82 1284q12 110 58.5 164.5t134.5 54.5q47 0 91 -17t72.5 -37t66.5 -37t75 -17q43 0 65.5 25t34.5 81h111q-12 -111 -56.5 -164t-134.5 -53q-45 0 -88.5 16.5t-72.5 37t-68 37t-76 16.5q-44 0 -67.5 -25.5t-34.5 -81.5h-111zM199 0v1122h143v-1122h-143z" />
    <glyph glyph-name="Imacron" unicode="&#x12a;" horiz-adv-x="612" 
d="M18 1796v105h580v-105h-580zM236 0v1661h143v-1661h-143z" />
    <glyph glyph-name="imacron" unicode="&#x12b;" horiz-adv-x="538" 
d="M-18 1288v105h579v-105h-579zM199 0v1122h143v-1122h-143z" />
    <glyph glyph-name="Ibreve" unicode="&#x12c;" horiz-adv-x="612" 
d="M311 1794q-154 0 -232 68.5t-95 212.5h96q17 -110 69.5 -156.5t161.5 -46.5t162 46.5t70 156.5h96q-17 -144 -95.5 -212.5t-232.5 -68.5zM236 0v1661h143v-1661h-143z" />
    <glyph glyph-name="ibreve" unicode="&#x12d;" horiz-adv-x="538" 
d="M274 1286q-154 0 -232 68.5t-95 212.5h96q17 -110 69.5 -156.5t161.5 -46.5t162 46.5t70 156.5h96q-17 -144 -95.5 -212.5t-232.5 -68.5zM199 0v1122h143v-1122h-143z" />
    <glyph glyph-name="Iogonek" unicode="&#x12e;" horiz-adv-x="612" 
d="M322 -383q29 0 65 8v-71q-36 -9 -94 -9q-130 0 -207 50t-76 153q3 85 55.5 144.5t170.5 115.5v1653h143v-1661q-128 -57 -185.5 -111.5t-58.5 -126.5t48 -108.5t139 -36.5z" />
    <glyph glyph-name="iogonek" unicode="&#x12f;" horiz-adv-x="538" 
d="M270 1516q50 0 85.5 -32.5t35.5 -82.5q0 -53 -35.5 -84t-85.5 -31q-52 0 -87.5 31t-35.5 84q0 50 35.5 82.5t87.5 32.5zM199 8v1114h143v-1122q-132 -59 -189.5 -104.5t-60.5 -104.5q-3 -62 47 -91.5t133 -29.5q8 0 68 6v-71q-50 -11 -96 -11q-79 0 -140.5 18t-101 60.5
t-37.5 106.5q3 67 59 121.5t175 107.5z" />
    <glyph glyph-name="Idotaccent" unicode="&#x130;" horiz-adv-x="612" 
d="M307 1794q-52 0 -87.5 31t-35.5 84q0 50 35.5 82t87.5 32q51 0 86 -32t35 -82q0 -53 -35.5 -84t-85.5 -31zM236 0v1661h143v-1661h-143z" />
    <glyph glyph-name="dotlessi" unicode="&#x131;" horiz-adv-x="538" 
d="M199 0v1122h143v-1122h-143z" />
    <glyph glyph-name="IJ" unicode="&#x132;" horiz-adv-x="1536" 
d="M236 0v1661h143v-1661h-143zM938 -23q-157 0 -303 66l53 123q111 -49 221 -49q250 0 250 295v1249h144v-1274q0 -199 -95 -304.5t-270 -105.5z" />
    <glyph glyph-name="ij" unicode="&#x133;" horiz-adv-x="1128" 
d="M270 1286q-52 0 -87.5 31t-35.5 84q0 50 35.5 82.5t87.5 32.5q50 0 85.5 -32.5t35.5 -82.5q0 -53 -35.5 -84t-85.5 -31zM858 1286q-52 0 -87.5 31t-35.5 84q0 50 35.5 82.5t87.5 32.5q50 0 85.5 -32.5t35.5 -82.5q0 -53 -35.5 -84t-85.5 -31zM199 0v1122h143v-1122h-143z
M616 -467q-51 0 -96 10l-20 129q45 -10 86 -10q116 0 158 62.5t42 232.5v1165h144v-1153q0 -249 -67.5 -342.5t-246.5 -93.5z" />
    <glyph glyph-name="Jcircumflex" unicode="&#x134;" horiz-adv-x="923" 
d="M276 1800l275 291h139l277 -291h-144l-202 215l-201 -215h-144zM326 -23q-157 0 -303 66l53 123q111 -49 221 -49q250 0 250 295v1249h143v-1274q0 -199 -94.5 -304.5t-269.5 -105.5z" />
    <glyph glyph-name="jcircumflex" unicode="&#x135;" horiz-adv-x="589" 
d="M-25 1292l275 291h139l277 -291h-144l-203 215l-200 -215h-144zM78 -467q-51 0 -96 10l-21 129q45 -10 86 -10q116 0 158.5 62.5t42.5 232.5v1165h143v-1153q0 -249 -67 -342.5t-246 -93.5z" />
    <glyph glyph-name="Kcommaaccent" unicode="&#x136;" horiz-adv-x="1497" 
d="M543 836l876 -836h-200l-842 795v-795h-141v1661h141v-807l799 807h178zM549 -451l125 367h135l-162 -367h-98z" />
    <glyph glyph-name="kcommaaccent" unicode="&#x137;" horiz-adv-x="1144" 
d="M514 569l588 -569h-189l-571 549v-549h-143v1661h143v-1092l539 553h172zM414 -451l125 367h135l-162 -367h-98z" />
    <glyph glyph-name="Lacute" unicode="&#x139;" horiz-adv-x="1335" 
d="M205 1802l244 293h167l-268 -293h-143zM236 0v1661h143v-1526h788v-135h-931z" />
    <glyph glyph-name="lacute" unicode="&#x13a;" horiz-adv-x="538" 
d="M164 1835l244 293h167l-268 -293h-143zM199 0v1661h143v-1661h-143z" />
    <glyph glyph-name="Lcommaaccent" unicode="&#x13b;" horiz-adv-x="1335" 
d="M236 0v1661h143v-1526h788v-135h-931zM510 -451l125 367h135l-162 -367h-98z" />
    <glyph glyph-name="lcommaaccent" unicode="&#x13c;" horiz-adv-x="538" 
d="M199 0v1661h143v-1661h-143zM70 -451l125 367h135l-162 -367h-98z" />
    <glyph glyph-name="Lcaron" unicode="&#x13d;" horiz-adv-x="1335" 
d="M236 0v1661h143v-1526h788v-135h-931zM532 1229l82 432h121l-117 -432h-86z" />
    <glyph glyph-name="lcaron" unicode="&#x13e;" horiz-adv-x="618" 
d="M199 0v1661h143v-1661h-143zM430 1286l82 375h121l-117 -375h-86z" />
    <glyph glyph-name="Ldot" unicode="&#x13f;" horiz-adv-x="1335" 
d="M236 0v1661h143v-1526h788v-135h-931zM821 799q-52 0 -88.5 31.5t-36.5 84.5q0 51 36.5 84t88.5 33t87.5 -32.5t35.5 -84.5q0 -53 -36.5 -84.5t-86.5 -31.5z" />
    <glyph glyph-name="ldot" unicode="&#x140;" horiz-adv-x="727" 
d="M199 0v1661h143v-1661h-143zM588 754q-52 0 -88.5 31.5t-36.5 84.5q0 51 36.5 84t88.5 33t87.5 -32.5t35.5 -84.5q0 -53 -36.5 -84.5t-86.5 -31.5z" />
    <glyph glyph-name="Lslash" unicode="&#x141;" horiz-adv-x="1335" 
d="M379 135h788v-135h-931v823l-207 -106l-39 86l246 127v731h143v-655l209 108l41 -86l-250 -129v-764z" />
    <glyph glyph-name="lslash" unicode="&#x142;" horiz-adv-x="710" 
d="M676 997l-248 -129v-868h-143v795l-209 -109l-39 86l248 129v760h143v-686l207 108z" />
    <glyph glyph-name="Nacute" unicode="&#x143;" horiz-adv-x="1716" 
d="M1128 2095l-268 -293h-143l244 293h167zM1337 1661h142v-1661h-168l-934 1456v-1456h-141v1661h165l936 -1456v1456z" />
    <glyph glyph-name="nacute" unicode="&#x144;" horiz-adv-x="1349" 
d="M571 1305l244 292h168l-268 -292h-144zM199 0v1098q303 51 485 51q467 0 467 -412q0 -123 1 -368.5t1 -368.5h-143q0 119 -1 355.5t-1 355.5q0 159 -85.5 229t-248.5 70q-136 0 -332 -33v-977h-143z" />
    <glyph glyph-name="Ncommaaccent" unicode="&#x145;" horiz-adv-x="1716" 
d="M1337 1661h142v-1661h-168l-934 1456v-1456h-141v1661h165l936 -1456v1456zM659 -451l125 367h136l-162 -367h-99z" />
    <glyph glyph-name="ncommaaccent" unicode="&#x146;" horiz-adv-x="1349" 
d="M199 0v1098q303 51 485 51q467 0 467 -412q0 -123 1 -368.5t1 -368.5h-143q0 119 -1 355.5t-1 355.5q0 159 -85.5 229t-248.5 70q-136 0 -332 -33v-977h-143zM475 -451l125 367h135l-162 -367h-98z" />
    <glyph glyph-name="Ncaron" unicode="&#x147;" horiz-adv-x="1716" 
d="M899 1796h-145l-299 301h141l229 -235l228 235h141zM1337 1661h142v-1661h-168l-934 1456v-1456h-141v1661h165l936 -1456v1456z" />
    <glyph glyph-name="ncaron" unicode="&#x148;" horiz-adv-x="1349" 
d="M608 1298l-299 301h142l229 -235l227 235h142l-295 -301h-146zM199 0v1098q303 51 485 51q467 0 467 -412q0 -123 1 -368.5t1 -368.5h-143q0 119 -1 355.5t-1 355.5q0 159 -85.5 229t-248.5 70q-136 0 -332 -33v-977h-143z" />
    <glyph glyph-name="Eng" unicode="&#x14a;" horiz-adv-x="1646" 
d="M1272 1661h139v-1667q0 -178 -31 -276.5t-102 -141.5t-199 -43q-43 0 -73 6l-23 131q41 -10 88 -10q113 0 157 68.5t44 242.5v60l-895 1493v-1524h-141v1661h192l844 -1407v1407z" />
    <glyph glyph-name="eng" unicode="&#x14b;" horiz-adv-x="1349" 
d="M1151 735l2 -807q0 -218 -78.5 -307.5t-255.5 -89.5q-44 0 -74 6l-22 107q46 -11 86 -11q115 0 158 66t43 240l-2 770q0 159 -85.5 229t-248.5 70q-148 0 -332 -35v-973h-143v1096q303 51 485 51q467 0 467 -412z" />
    <glyph glyph-name="Omacron" unicode="&#x14c;" horiz-adv-x="1828" 
d="M604 1796v105h580v-105h-580zM913 -23q-181 0 -333 68t-254 184.5t-159 272.5t-58 332v2q0 177 56.5 332.5t158.5 270t254.5 181t334.5 66.5h2q182 0 334.5 -66.5t255 -181t159 -270t56.5 -332.5v-2q0 -175 -57 -331.5t-159.5 -273t-255 -184.5t-333.5 -68h-2zM913 117h5
q192 0 343 95t233.5 258.5t82.5 365.5v4q0 152 -48 283t-133 224t-208.5 146t-269.5 53h-5q-195 0 -346 -91t-232 -251t-81 -364v-4q1 -202 82.5 -365.5t232.5 -258.5t344 -95z" />
    <glyph glyph-name="omacron" unicode="&#x14d;" horiz-adv-x="1374" 
d="M399 1298v105h580v-105h-580zM686 -25q-250 0 -420 168.5t-172 417.5v2q0 165 78 300.5t213.5 213.5t300.5 78h2q124 -1 234 -47t188.5 -124.5t124 -188t45.5 -232.5v-2q0 -164 -77.5 -298t-213 -210.5t-301.5 -77.5h-2zM686 111h2q195 0 321 130.5t126 319.5v2
q0 125 -56.5 229t-159.5 165.5t-231 62.5h-2q-128 0 -231 -61.5t-159 -166t-56 -229.5v-2q0 -123 56 -226t159 -163.5t231 -60.5z" />
    <glyph glyph-name="Obreve" unicode="&#x14e;" horiz-adv-x="1828" 
d="M897 1794q-154 0 -232.5 68.5t-95.5 212.5h97q17 -110 69.5 -156.5t161.5 -46.5t161.5 46.5t69.5 156.5h97q-17 -144 -95.5 -212.5t-232.5 -68.5zM913 -23q-181 0 -333 68t-254 184.5t-159 272.5t-58 332v2q0 177 56.5 332.5t158.5 270t254.5 181t334.5 66.5h2
q182 0 334.5 -66.5t255 -181t159 -270t56.5 -332.5v-2q0 -175 -57 -331.5t-159.5 -273t-255 -184.5t-333.5 -68h-2zM913 117h5q192 0 343 95t233.5 258.5t82.5 365.5v4q0 152 -48 283t-133 224t-208.5 146t-269.5 53h-5q-195 0 -346 -91t-232 -251t-81 -364v-4
q1 -202 82.5 -365.5t232.5 -258.5t344 -95z" />
    <glyph glyph-name="obreve" unicode="&#x14f;" horiz-adv-x="1374" 
d="M692 1296q-154 0 -232 68.5t-95 212.5h96q17 -110 69.5 -156.5t161.5 -46.5t162 46.5t70 156.5h96q-17 -144 -95.5 -212.5t-232.5 -68.5zM686 -25q-250 0 -420 168.5t-172 417.5v2q0 165 78 300.5t213.5 213.5t300.5 78h2q124 -1 234 -47t188.5 -124.5t124 -188
t45.5 -232.5v-2q0 -164 -77.5 -298t-213 -210.5t-301.5 -77.5h-2zM686 111h2q195 0 321 130.5t126 319.5v2q0 125 -56.5 229t-159.5 165.5t-231 62.5h-2q-128 0 -231 -61.5t-159 -166t-56 -229.5v-2q0 -123 56 -226t159 -163.5t231 -60.5z" />
    <glyph glyph-name="Ohungarumlaut" unicode="&#x150;" horiz-adv-x="1828" 
d="M672 1804l180 293h168l-205 -293h-143zM991 1804l180 293h168l-204 -293h-144zM913 -23q-181 0 -333 68t-254 184.5t-159 272.5t-58 332v2q0 177 56.5 332.5t158.5 270t254.5 181t334.5 66.5h2q182 0 334.5 -66.5t255 -181t159 -270t56.5 -332.5v-2q0 -175 -57 -331.5
t-159.5 -273t-255 -184.5t-333.5 -68h-2zM913 117h5q192 0 343 95t233.5 258.5t82.5 365.5v4q0 152 -48 283t-133 224t-208.5 146t-269.5 53h-5q-195 0 -346 -91t-232 -251t-81 -364v-4q1 -202 82.5 -365.5t232.5 -258.5t344 -95z" />
    <glyph glyph-name="ohungarumlaut" unicode="&#x151;" horiz-adv-x="1374" 
d="M406 1272l223 291h164l-248 -291h-139zM838 1272l223 291h164l-248 -291h-139zM686 -25q-250 0 -420 168.5t-172 417.5v2q0 165 78 300.5t213.5 213.5t300.5 78h2q124 -1 234 -47t188.5 -124.5t124 -188t45.5 -232.5v-2q0 -164 -77.5 -298t-213 -210.5t-301.5 -77.5h-2z
M686 111h2q195 0 321 130.5t126 319.5v2q0 125 -56.5 229t-159.5 165.5t-231 62.5h-2q-128 0 -231 -61.5t-159 -166t-56 -229.5v-2q0 -123 56 -226t159 -163.5t231 -60.5z" />
    <glyph glyph-name="OE" unicode="&#x152;" horiz-adv-x="2729" 
d="M1720 135h842v-135h-985v326q-106 -163 -276 -256t-386 -93h-2q-181 0 -333 68t-254 184.5t-159 272.5t-58 332v2q0 177 56.5 332.5t158.5 270t254.5 181t334.5 66.5h2q216 0 386 -91t276 -252v318h975v-133h-832v-600h752v-135h-752v-658zM918 117q192 0 343 95
t233.5 258.5t82.5 365.5v4q0 152 -48 283t-133 224t-208.5 146t-269.5 53h-5q-195 0 -346 -91t-232 -251t-81 -364v-4q1 -202 82.5 -365.5t232.5 -258.5t344 -95h5z" />
    <glyph glyph-name="oe" unicode="&#x153;" horiz-adv-x="2349" 
d="M2251 600v-74h-969q12 -194 132.5 -308t316.5 -114q210 0 376 93l60 -115q-195 -105 -447 -105q-177 0 -311 76.5t-205 214.5q-76 -134 -212.5 -213t-303.5 -80h-2q-250 0 -420 168.5t-172 417.5v2q0 165 78 300.5t213.5 213.5t300.5 78h2q166 -1 302 -80t212 -213
q70 138 203 214.5t309 76.5q242 0 389.5 -152t147.5 -401zM1712 1028q-181 0 -293.5 -101t-134.5 -278h827q-6 173 -114 276t-285 103zM1135 561v2q0 125 -56.5 229t-159.5 165.5t-231 62.5h-2q-128 0 -231 -61.5t-159 -166t-56 -229.5v-2q0 -123 56 -226t159 -163.5
t231 -60.5h2q195 0 321 130.5t126 319.5z" />
    <glyph glyph-name="Racute" unicode="&#x154;" horiz-adv-x="1568" 
d="M1057 2095l-269 -293h-143l244 293h168zM1298 0l-467 705h-452v-705h-143v1661h614q279 0 428 -123.5t149 -341.5v-2q0 -195 -117.5 -322.5t-328.5 -158.5l479 -713h-162zM379 1528v-697h491q188 0 300 95.5t112 261.5v2q0 163 -111 250.5t-301 87.5h-491z" />
    <glyph glyph-name="racute" unicode="&#x155;" horiz-adv-x="839" 
d="M313 1260l244 292h168l-268 -292h-144zM172 0v1061q183 61 391 61h187v-137q-32 0 -84.5 1t-90.5 1q-187 0 -262 -37v-950h-141z" />
    <glyph glyph-name="Rcommaaccent" unicode="&#x156;" horiz-adv-x="1568" 
d="M981 713l479 -713h-162l-467 705h-452v-705h-143v1661h614q279 0 428 -123.5t149 -341.5v-2q0 -195 -117.5 -322.5t-328.5 -158.5zM379 1528v-697h491q188 0 300 95.5t112 261.5v2q0 163 -111 250.5t-301 87.5h-491zM598 -451l125 367h135l-162 -367h-98z" />
    <glyph glyph-name="rcommaaccent" unicode="&#x157;" horiz-adv-x="839" 
d="M172 0v1061q183 61 391 61h187v-137q-32 0 -84.5 1t-90.5 1q-187 0 -262 -37v-950h-141zM45 -451l125 367h135l-162 -367h-98z" />
    <glyph glyph-name="Rcaron" unicode="&#x158;" horiz-adv-x="1568" 
d="M827 1796h-145l-299 301h141l230 -235l227 235h141zM1298 0l-467 705h-452v-705h-143v1661h614q279 0 428 -123.5t149 -341.5v-2q0 -195 -117.5 -322.5t-328.5 -158.5l479 -713h-162zM379 1528v-697h491q188 0 300 95.5t112 261.5v2q0 163 -111 250.5t-301 87.5h-491z
" />
    <glyph glyph-name="rcaron" unicode="&#x159;" horiz-adv-x="839" 
d="M350 1253l-299 301h142l229 -235l227 235h142l-295 -301h-146zM172 0v1061q183 61 391 61h187v-137q-32 0 -84.5 1t-90.5 1q-187 0 -262 -37v-950h-141z" />
    <glyph glyph-name="Sacute" unicode="&#x15a;" horiz-adv-x="1447" 
d="M618 1802l244 293h168l-268 -293h-144zM698 -23q-144 0 -281.5 40.5t-242.5 117.5l57 119q97 -71 218 -109.5t245 -38.5q204 0 323.5 92t119.5 242v4q0 123 -86.5 196.5t-305.5 141.5q-59 18 -135 41q-215 68 -310 172.5t-95 278.5v4q2 185 139.5 296.5t376.5 111.5
q140 0 275 -37t235 -105l-55 -119q-91 64 -209 97.5t-242 33.5q-182 0 -279.5 -75.5t-97.5 -196.5v-4q0 -57 14 -101.5t37.5 -77t65.5 -60t87.5 -47t113.5 -42.5q60 -19 137 -41q255 -76 367 -185t112 -277v-5q-2 -214 -159 -340.5t-425 -126.5z" />
    <glyph glyph-name="sacute" unicode="&#x15b;" horiz-adv-x="1073" 
d="M434 1303l244 292h168l-268 -292h-144zM510 -23q-237 0 -434 89l39 116q182 -80 383 -80q344 0 344 187q0 62 -22.5 98t-82 63.5t-182.5 57.5q-11 3 -46 12t-54 12q-192 47 -276.5 125t-84.5 207q0 134 113.5 211.5t306.5 77.5q245 0 422 -86l-41 -117q-173 78 -365 78
q-286 0 -286 -164q0 -84 59.5 -124.5t222.5 -80.5l88 -20q203 -52 287 -130.5t84 -211.5q0 -155 -122 -237.5t-353 -82.5z" />
    <glyph glyph-name="Scircumflex" unicode="&#x15c;" horiz-adv-x="1447" 
d="M381 1800l274 291h140l276 -291h-143l-203 215l-201 -215h-143zM698 -23q-144 0 -281.5 40.5t-242.5 117.5l57 119q97 -71 218 -109.5t245 -38.5q204 0 323.5 92t119.5 242v4q0 123 -86.5 196.5t-305.5 141.5q-59 18 -135 41q-215 68 -310 172.5t-95 278.5v4
q2 185 139.5 296.5t376.5 111.5q140 0 275 -37t235 -105l-55 -119q-91 64 -209 97.5t-242 33.5q-182 0 -279.5 -75.5t-97.5 -196.5v-4q0 -57 14 -101.5t37.5 -77t65.5 -60t87.5 -47t113.5 -42.5q60 -19 137 -41q255 -76 367 -185t112 -277v-5q-2 -214 -159 -340.5
t-425 -126.5z" />
    <glyph glyph-name="scircumflex" unicode="&#x15d;" horiz-adv-x="1073" 
d="M197 1300l274 291h139l277 -291h-144l-202 216l-201 -216h-143zM510 -23q-237 0 -434 89l39 116q182 -80 383 -80q344 0 344 187q0 62 -22.5 98t-82 63.5t-182.5 57.5q-11 3 -46 12t-54 12q-192 47 -276.5 125t-84.5 207q0 134 113.5 211.5t306.5 77.5q245 0 422 -86
l-41 -117q-173 78 -365 78q-286 0 -286 -164q0 -84 59.5 -124.5t222.5 -80.5l88 -20q203 -52 287 -130.5t84 -211.5q0 -155 -122 -237.5t-353 -82.5z" />
    <glyph glyph-name="Scedilla" unicode="&#x15e;" horiz-adv-x="1447" 
d="M803 911q255 -76 367 -185t112 -277v-5q-2 -203 -143 -327.5t-385 -136.5l-68 -107q12 4 51 4q79 0 136 -40t57 -111q0 -85 -66 -131t-174 -46q-82 0 -155 23l-9 82q83 -27 154 -27q160 0 160 92q0 80 -131 80q-59 0 -129 -26l-19 26l109 178q-136 5 -265.5 45.5
t-230.5 112.5l57 119q97 -71 218 -109.5t245 -38.5q204 0 323.5 92t119.5 242v4q0 123 -86.5 196.5t-305.5 141.5q-59 18 -135 41q-215 68 -310 172.5t-95 278.5v4q2 185 139.5 296.5t376.5 111.5q140 0 275 -37t235 -105l-55 -119q-91 64 -209 97.5t-242 33.5
q-182 0 -279.5 -75.5t-97.5 -196.5v-4q0 -57 14 -101.5t37.5 -77t65.5 -60t87.5 -47t113.5 -42.5q60 -19 137 -41z" />
    <glyph glyph-name="scedilla" unicode="&#x15f;" horiz-adv-x="1073" 
d="M985 297q0 -148 -109.5 -229.5t-318.5 -90.5l-65 -104q12 4 51 4q79 0 135.5 -40t56.5 -111q0 -85 -65.5 -131t-173.5 -46q-83 0 -156 23l-8 82q83 -27 153 -27q160 0 160 92q0 80 -131 80q-59 0 -129 -26l-18 26l108 178q-217 6 -399 89l39 116q182 -80 383 -80
q344 0 344 187q0 62 -22.5 98t-82 63.5t-182.5 57.5q-11 3 -46 12t-54 12q-192 47 -276.5 125t-84.5 207q0 134 113.5 211.5t306.5 77.5q245 0 422 -86l-41 -117q-173 78 -365 78q-286 0 -286 -164q0 -84 59.5 -124.5t222.5 -80.5l88 -20q203 -52 287 -130.5t84 -211.5z" />
    <glyph glyph-name="Scaron" unicode="&#x160;" horiz-adv-x="1447" 
d="M655 1796l-299 301h142l229 -235l227 235h142l-295 -301h-146zM698 -23q-144 0 -281.5 40.5t-242.5 117.5l57 119q97 -71 218 -109.5t245 -38.5q204 0 323.5 92t119.5 242v4q0 123 -86.5 196.5t-305.5 141.5q-59 18 -135 41q-215 68 -310 172.5t-95 278.5v4
q2 185 139.5 296.5t376.5 111.5q140 0 275 -37t235 -105l-55 -119q-91 64 -209 97.5t-242 33.5q-182 0 -279.5 -75.5t-97.5 -196.5v-4q0 -57 14 -101.5t37.5 -77t65.5 -60t87.5 -47t113.5 -42.5q60 -19 137 -41q255 -76 367 -185t112 -277v-5q-2 -214 -159 -340.5
t-425 -126.5z" />
    <glyph glyph-name="scaron" unicode="&#x161;" horiz-adv-x="1073" 
d="M471 1296l-299 301h141l230 -235l227 235h141l-295 -301h-145zM510 -23q-237 0 -434 89l39 116q182 -80 383 -80q344 0 344 187q0 62 -22.5 98t-82 63.5t-182.5 57.5q-11 3 -46 12t-54 12q-192 47 -276.5 125t-84.5 207q0 134 113.5 211.5t306.5 77.5q245 0 422 -86
l-41 -117q-173 78 -365 78q-286 0 -286 -164q0 -84 59.5 -124.5t222.5 -80.5l88 -20q203 -52 287 -130.5t84 -211.5q0 -155 -122 -237.5t-353 -82.5z" />
    <glyph glyph-name="uni0162" unicode="&#x162;" horiz-adv-x="1386" 
d="M766 0h-27l-80 -127q12 4 52 4q79 0 135.5 -40t56.5 -111q0 -85 -65.5 -131t-173.5 -46q-83 0 -156 23l-8 82q83 -27 153 -27q160 0 160 92q0 80 -131 80q-59 0 -129 -26l-18 26l122 201h-34v1528h-564v133h1268v-133h-561v-1528z" />
    <glyph glyph-name="uni0163" unicode="&#x163;" horiz-adv-x="962" 
d="M889 0h-191l-75 -129q25 10 71 10q80 0 137 -39t58 -110q0 -84 -67 -129t-175 -45q-88 0 -158 22l-6 64q97 -27 156 -27q80 0 129 29.5t49 81.5q0 50 -39 76t-108 26q-77 0 -133 -25l-13 15l109 180q-194 9 -270 92.5t-76 257.5v641h-228v131h228v414h141v-414h459v-131
h-459v-598q0 -147 70 -203.5t219 -56.5h172v-133z" />
    <glyph glyph-name="Tcaron" unicode="&#x164;" horiz-adv-x="1386" 
d="M625 1796l-299 301h141l229 -235l228 235h141l-295 -301h-145zM623 0v1528h-564v133h1268v-133h-561v-1528h-143z" />
    <glyph glyph-name="tcaron" unicode="&#x165;" horiz-adv-x="962" 
d="M602 1286l82 375h121l-117 -375h-86zM674 0q-112 0 -187.5 21.5t-119 67.5t-62 108.5t-18.5 152.5v641h-228v131h228v414h141v-414h459v-131h-459v-598q0 -147 70 -203.5t219 -56.5h172v-133h-215z" />
    <glyph glyph-name="Tbar" unicode="&#x166;" horiz-adv-x="1386" 
d="M1327 1528h-561v-434h207v-115h-207v-979h-143v979h-207v115h207v434h-564v133h1268v-133z" />
    <glyph glyph-name="tbar" unicode="&#x167;" horiz-adv-x="962" 
d="M717 133h172v-133h-215q-112 0 -187.5 21.5t-119 67.5t-62 108.5t-18.5 152.5v309h-230v127h230v205h-228v131h228v414h141v-414h459v-131h-459v-205h453v-127h-453v-266q0 -147 70 -203.5t219 -56.5z" />
    <glyph glyph-name="Utilde" unicode="&#x168;" horiz-adv-x="1808" 
d="M551 1792q12 110 58.5 164.5t133.5 54.5q47 0 91 -17t72.5 -37t67 -37t75.5 -17q43 0 65.5 25t34.5 81h111q-12 -111 -56.5 -164t-134.5 -53q-45 0 -88.5 16.5t-72.5 36.5t-68 36.5t-76 16.5q-44 0 -67.5 -25t-34.5 -81h-111zM903 -23q-349 0 -508 166.5t-159 499.5v1018
h143v-979q0 -298 124.5 -431.5t399.5 -133.5q276 0 401.5 133.5t125.5 431.5v979h143v-1018q0 -333 -160 -499.5t-510 -166.5z" />
    <glyph glyph-name="utilde" unicode="&#x169;" horiz-adv-x="1349" 
d="M324 1294q12 110 58.5 164.5t133.5 54.5q47 0 91 -17t72.5 -37t66.5 -37t75 -17q43 0 66 25t35 81h110q-12 -111 -56 -164t-134 -53q-45 0 -88.5 16.5t-72.5 37t-68 37t-76 16.5q-44 0 -68 -25.5t-35 -81.5h-110zM1153 1122v-1091q-294 -56 -487 -56q-242 0 -353.5 104
t-111.5 312q0 123 -1 366t-1 365h143q0 -119 1 -353t1 -353q0 -87 22.5 -146.5t67.5 -92.5t103 -46.5t139 -13.5q150 0 334 35v970h143z" />
    <glyph glyph-name="Umacron" unicode="&#x16a;" horiz-adv-x="1808" 
d="M614 1796v105h580v-105h-580zM903 -23q-349 0 -508 166.5t-159 499.5v1018h143v-979q0 -298 124.5 -431.5t399.5 -133.5q276 0 401.5 133.5t125.5 431.5v979h143v-1018q0 -333 -160 -499.5t-510 -166.5z" />
    <glyph glyph-name="umacron" unicode="&#x16b;" horiz-adv-x="1349" 
d="M387 1298v105h580v-105h-580zM1153 1122v-1091q-294 -56 -487 -56q-242 0 -353.5 104t-111.5 312q0 123 -1 366t-1 365h143q0 -119 1 -353t1 -353q0 -87 22.5 -146.5t67.5 -92.5t103 -46.5t139 -13.5q150 0 334 35v970h143z" />
    <glyph glyph-name="Ubreve" unicode="&#x16c;" horiz-adv-x="1808" 
d="M907 1794q-154 0 -232 68.5t-95 212.5h96q17 -110 69.5 -156.5t161.5 -46.5t162 46.5t70 156.5h96q-17 -144 -95.5 -212.5t-232.5 -68.5zM903 -23q-349 0 -508 166.5t-159 499.5v1018h143v-979q0 -298 124.5 -431.5t399.5 -133.5q276 0 401.5 133.5t125.5 431.5v979h143
v-1018q0 -333 -160 -499.5t-510 -166.5z" />
    <glyph glyph-name="ubreve" unicode="&#x16d;" horiz-adv-x="1349" 
d="M680 1296q-154 0 -232.5 68.5t-95.5 212.5h97q17 -110 69.5 -156.5t161.5 -46.5t161.5 46.5t69.5 156.5h97q-17 -144 -95.5 -212.5t-232.5 -68.5zM1153 1122v-1091q-294 -56 -487 -56q-242 0 -353.5 104t-111.5 312q0 123 -1 366t-1 365h143q0 -119 1 -353t1 -353
q0 -87 22.5 -146.5t67.5 -92.5t103 -46.5t139 -13.5q150 0 334 35v970h143z" />
    <glyph glyph-name="Uring" unicode="&#x16e;" horiz-adv-x="1808" 
d="M907 1794q-93 0 -158 62t-65 153t63 150t158 59q91 0 155 -62.5t64 -152.5q0 -92 -61.5 -150.5t-155.5 -58.5zM905 1878q61 0 98 36t37 93q-2 56 -39 91.5t-94 35.5q-61 0 -100 -35.5t-37 -91.5q-3 -56 37 -92.5t98 -36.5zM903 -23q-349 0 -508 166.5t-159 499.5v1018
h143v-979q0 -298 124.5 -431.5t399.5 -133.5q276 0 401.5 133.5t125.5 431.5v979h143v-1018q0 -333 -160 -499.5t-510 -166.5z" />
    <glyph glyph-name="uring" unicode="&#x16f;" horiz-adv-x="1349" 
d="M680 1296q-93 0 -158 62t-65 153t63 150t158 59q91 0 155 -62.5t64 -152.5q0 -92 -61.5 -150.5t-155.5 -58.5zM678 1380q61 0 98 36t37 93q-2 56 -39 91.5t-94 35.5q-61 0 -100 -35.5t-37 -91.5q-3 -56 37 -92.5t98 -36.5zM1153 1122v-1091q-294 -56 -487 -56
q-242 0 -353.5 104t-111.5 312q0 123 -1 366t-1 365h143q0 -119 1 -353t1 -353q0 -87 22.5 -146.5t67.5 -92.5t103 -46.5t139 -13.5q150 0 334 35v970h143z" />
    <glyph glyph-name="Uhungarumlaut" unicode="&#x170;" horiz-adv-x="1808" 
d="M682 1804l180 293h168l-205 -293h-143zM1001 1804l181 293h168l-205 -293h-144zM903 -23q-349 0 -508 166.5t-159 499.5v1018h143v-979q0 -298 124.5 -431.5t399.5 -133.5q276 0 401.5 133.5t125.5 431.5v979h143v-1018q0 -333 -160 -499.5t-510 -166.5z" />
    <glyph glyph-name="uhungarumlaut" unicode="&#x171;" horiz-adv-x="1349" 
d="M393 1272l223 291h164l-248 -291h-139zM825 1272l224 291h163l-247 -291h-140zM1153 1122v-1091q-294 -56 -487 -56q-242 0 -353.5 104t-111.5 312q0 123 -1 366t-1 365h143q0 -119 1 -353t1 -353q0 -87 22.5 -146.5t67.5 -92.5t103 -46.5t139 -13.5q150 0 334 35v970
h143z" />
    <glyph glyph-name="Uogonek" unicode="&#x172;" horiz-adv-x="1808" 
d="M1430 1661h143v-1018q0 -294 -123.5 -457t-392.5 -198q-125 -57 -180 -102t-58 -103q-3 -62 47 -91.5t133 -29.5q8 0 68 6v-71q-50 -11 -96 -11q-79 0 -140.5 18t-101 60.5t-37.5 106.5q3 60 48 109.5t139 96.5q-336 6 -489.5 172.5t-153.5 493.5v1018h143v-979
q0 -298 124.5 -431.5t399.5 -133.5q276 0 401.5 133.5t125.5 431.5v979z" />
    <glyph glyph-name="uogonek" unicode="&#x173;" horiz-adv-x="1349" 
d="M731 -23q-116 -54 -167 -97t-54 -99q-3 -62 47 -91.5t133 -29.5q8 0 68 6v-72q-45 -10 -96 -10q-79 0 -140.5 18t-101 60.5t-37.5 106.5q6 119 195 211q-195 18 -286 120.5t-91 290.5q0 123 -1 366t-1 365h143q0 -119 1 -353t1 -353q0 -87 22.5 -146.5t67.5 -92.5
t103 -46.5t139 -13.5q150 0 334 35v970h143v-1091q-236 -44 -422 -54z" />
    <glyph glyph-name="Wcircumflex" unicode="&#x174;" horiz-adv-x="2174" 
d="M1087 2015l-200 -215h-144l275 291h139l277 -291h-144zM1929 1661h150l-430 -1661h-191l-371 1505l-370 -1505h-191l-430 1661h150l381 -1501l368 1501h187l366 -1501z" />
    <glyph glyph-name="wcircumflex" unicode="&#x175;" horiz-adv-x="1701" 
d="M852 1513l-201 -215h-143l274 291h140l276 -291h-143zM1495 1122h150l-310 -1122h-184l-299 983l-301 -983h-182l-314 1122h152l262 -968l295 968h174l295 -964z" />
    <glyph glyph-name="Ycircumflex" unicode="&#x176;" horiz-adv-x="1480" 
d="M741 2015l-200 -215h-144l275 291h139l276 -291h-143zM1260 1661h159l-608 -1004v-657h-141v657l-609 1004h162l518 -873z" />
    <glyph glyph-name="ycircumflex" unicode="&#x177;" horiz-adv-x="1333" 
d="M670 1507l-201 -215h-143l274 291h139l277 -291h-144zM1141 88h-2v-121q0 -215 -129.5 -324.5t-354.5 -109.5q-211 0 -362 66l-23 131q152 -70 357 -70q182 0 277 73.5t95 239.5v72q-161 -41 -344 -41q-241 0 -348.5 103.5t-107.5 314.5v700h143v-678q0 -166 82.5 -233.5
t243.5 -67.5q175 0 331 45v934h140v-1032z" />
    <glyph glyph-name="Ydieresis" unicode="&#x178;" horiz-adv-x="1480" 
d="M575 1796q-50 0 -85.5 30.5t-34.5 82.5q1 49 35.5 79.5t84.5 30.5q49 0 83 -31t34 -79q0 -52 -34.5 -82.5t-82.5 -30.5zM903 1796q-50 0 -86 30.5t-35 82.5q0 48 35 79t86 31q48 0 81.5 -30.5t33.5 -79.5q0 -52 -34 -82.5t-81 -30.5zM1260 1661h159l-608 -1004v-657h-141
v657l-609 1004h162l518 -873z" />
    <glyph glyph-name="Zacute" unicode="&#x179;" horiz-adv-x="1374" 
d="M1026 2095l-268 -293h-144l244 293h168zM1292 1661v-131l-1038 -1395h1032v-135h-1208v133l1038 1395h-969v135z" />
    <glyph glyph-name="zacute" unicode="&#x17a;" horiz-adv-x="1183" 
d="M911 1597l-268 -292h-143l243 292h168zM307 133h752v-133h-932v123l741 866h-704v133h880v-121z" />
    <glyph glyph-name="Zdotaccent" unicode="&#x17b;" horiz-adv-x="1374" 
d="M721 1794q-52 0 -87.5 31t-35.5 84q0 50 35.5 82t87.5 32q51 0 86 -32t35 -82q0 -53 -35.5 -84t-85.5 -31zM1292 1661v-131l-1038 -1395h1032v-135h-1208v133l1038 1395h-969v135z" />
    <glyph glyph-name="zdotaccent" unicode="&#x17c;" horiz-adv-x="1183" 
d="M606 1296q-52 0 -87.5 31t-35.5 84q0 50 35.5 82.5t87.5 32.5q50 0 85.5 -32.5t35.5 -82.5q0 -53 -35.5 -84t-85.5 -31zM307 133h752v-133h-932v123l741 866h-704v133h880v-121z" />
    <glyph glyph-name="Zcaron" unicode="&#x17d;" horiz-adv-x="1374" 
d="M797 1796h-146l-299 301h142l229 -235l227 235h142zM1292 1661v-131l-1038 -1395h1032v-135h-1208v133l1038 1395h-969v135z" />
    <glyph glyph-name="zcaron" unicode="&#x17e;" horiz-adv-x="1183" 
d="M682 1298h-145l-299 301h141l229 -235l228 235h141zM307 133h752v-133h-932v123l741 866h-704v133h880v-121z" />
    <glyph glyph-name="uni018F" unicode="&#x18f;" horiz-adv-x="1726" 
d="M836 1690q361 0 564.5 -226t203.5 -628v-2q0 -404 -189.5 -630.5t-529.5 -226.5h-2q-355 0 -557.5 219t-202.5 607v86h1333q-12 313 -177.5 488t-449.5 175h-2q-293 0 -540 -147l-58 121q127 79 284.5 121.5t320.5 42.5h2zM885 117q257 0 404.5 165.5t166.5 469.5h-1188
q15 -299 177 -467t436 -168h4z" />
    <glyph glyph-name="florin" unicode="&#x192;" horiz-adv-x="735" 
d="M711 1153h71v-133h-59q-146 0 -213.5 -70.5t-67.5 -224.5v-117h234v-114h-234v-590q0 -187 -98.5 -276t-312.5 -89h-72v135h57q148 0 215.5 70.5t67.5 224.5v525h-180v114h180v174q0 191 98 281t314 90z" />
    <glyph glyph-name="uni01CD" unicode="&#x1cd;" horiz-adv-x="1552" 
d="M854 1796h-145l-299 301h141l229 -235l228 235h141zM1352 0l-203 532h-748l-200 -532h-148l633 1661h172l643 -1661h-149zM768 1503l-322 -841h656l-324 841l-6 15z" />
    <glyph glyph-name="uni01CE" unicode="&#x1ce;" horiz-adv-x="1265" 
d="M686 1290h-145l-299 301h141l229 -235l228 235h141zM594 1155q238 0 361.5 -106t123.5 -312v-680q-82 -30 -209.5 -53.5t-246.5 -23.5q-257 0 -393 93.5t-136 270.5v2q0 174 133 268.5t381 94.5q111 0 330 -29v53q0 295 -377 295q-209 0 -377 -82l25 131q159 78 385 78z
M621 111q70 0 162 13t155 34v391q-39 8 -143.5 19.5t-173.5 11.5q-381 0 -381 -232q0 -237 381 -237z" />
    <glyph glyph-name="uni01CF" unicode="&#x1cf;" horiz-adv-x="612" 
d="M238 1796l-299 301h141l229 -235l228 235h141l-295 -301h-145zM236 0v1661h143v-1661h-143z" />
    <glyph glyph-name="uni01D0" unicode="&#x1d0;" horiz-adv-x="538" 
d="M201 1288l-299 301h141l229 -235l228 235h141l-295 -301h-145zM199 0v1122h143v-1122h-143z" />
    <glyph glyph-name="uni01D1" unicode="&#x1d1;" horiz-adv-x="1828" 
d="M823 1796l-299 301h142l229 -235l227 235h142l-295 -301h-146zM913 -23q-181 0 -333 68t-254 184.5t-159 272.5t-58 332v2q0 177 56.5 332.5t158.5 270t254.5 181t334.5 66.5h2q182 0 334.5 -66.5t255 -181t159 -270t56.5 -332.5v-2q0 -175 -57 -331.5t-159.5 -273
t-255 -184.5t-333.5 -68h-2zM913 117h5q192 0 343 95t233.5 258.5t82.5 365.5v4q0 152 -48 283t-133 224t-208.5 146t-269.5 53h-5q-195 0 -346 -91t-232 -251t-81 -364v-4q1 -202 82.5 -365.5t232.5 -258.5t344 -95z" />
    <glyph glyph-name="uni01D2" unicode="&#x1d2;" horiz-adv-x="1374" 
d="M618 1298l-299 301h142l229 -235l228 235h141l-295 -301h-146zM686 -25q-250 0 -420 168.5t-172 417.5v2q0 165 78 300.5t213.5 213.5t300.5 78h2q124 -1 234 -47t188.5 -124.5t124 -188t45.5 -232.5v-2q0 -164 -77.5 -298t-213 -210.5t-301.5 -77.5h-2zM686 111h2
q195 0 321 130.5t126 319.5v2q0 125 -56.5 229t-159.5 165.5t-231 62.5h-2q-128 0 -231 -61.5t-159 -166t-56 -229.5v-2q0 -123 56 -226t159 -163.5t231 -60.5z" />
    <glyph glyph-name="uni01D3" unicode="&#x1d3;" horiz-adv-x="1808" 
d="M834 1796l-299 301h141l229 -235l228 235h141l-295 -301h-145zM903 -23q-349 0 -508 166.5t-159 499.5v1018h143v-979q0 -298 124.5 -431.5t399.5 -133.5q276 0 401.5 133.5t125.5 431.5v979h143v-1018q0 -333 -160 -499.5t-510 -166.5z" />
    <glyph glyph-name="uni01D4" unicode="&#x1d4;" horiz-adv-x="1349" 
d="M606 1298l-299 301h142l229 -235l227 235h142l-295 -301h-146zM1153 1122v-1091q-294 -56 -487 -56q-242 0 -353.5 104t-111.5 312q0 123 -1 366t-1 365h143q0 -119 1 -353t1 -353q0 -87 22.5 -146.5t67.5 -92.5t103 -46.5t139 -13.5q150 0 334 35v970h143z" />
    <glyph glyph-name="Scommaaccent" unicode="&#x218;" horiz-adv-x="1447" 
d="M698 -23q-144 0 -281.5 40.5t-242.5 117.5l57 119q97 -71 218 -109.5t245 -38.5q204 0 323.5 92t119.5 242v4q0 123 -86.5 196.5t-305.5 141.5q-59 18 -135 41q-215 68 -310 172.5t-95 278.5v4q2 185 139.5 296.5t376.5 111.5q140 0 275 -37t235 -105l-55 -119
q-91 64 -209 97.5t-242 33.5q-182 0 -279.5 -75.5t-97.5 -196.5v-4q0 -57 14 -101.5t37.5 -77t65.5 -60t87.5 -47t113.5 -42.5q60 -19 137 -41q255 -76 367 -185t112 -277v-5q-2 -214 -159 -340.5t-425 -126.5zM524 -451l125 367h135l-161 -367h-99z" />
    <glyph glyph-name="scommaaccent" unicode="&#x219;" horiz-adv-x="1073" 
d="M510 -23q-237 0 -434 89l39 116q182 -80 383 -80q344 0 344 187q0 62 -22.5 98t-82 63.5t-182.5 57.5q-11 3 -46 12t-54 12q-192 47 -276.5 125t-84.5 207q0 134 113.5 211.5t306.5 77.5q245 0 422 -86l-41 -117q-173 78 -365 78q-286 0 -286 -164q0 -84 59.5 -124.5
t222.5 -80.5l88 -20q203 -52 287 -130.5t84 -211.5q0 -155 -122 -237.5t-353 -82.5zM330 -451l125 367h135l-162 -367h-98z" />
    <glyph glyph-name="uni021A" unicode="&#x21a;" horiz-adv-x="1386" 
d="M623 0v1528h-564v133h1268v-133h-561v-1528h-143zM498 -451l125 367h135l-162 -367h-98z" />
    <glyph glyph-name="uni021B" unicode="&#x21b;" horiz-adv-x="962" 
d="M674 0q-112 0 -187.5 21.5t-119 67.5t-62 108.5t-18.5 152.5v641h-228v131h228v414h141v-414h459v-131h-459v-598q0 -147 70 -203.5t219 -56.5h172v-133h-215zM485 -451l125 367h135l-161 -367h-99z" />
    <glyph glyph-name="uni0232" unicode="&#x232;" horiz-adv-x="1480" 
d="M1032 1901v-105h-579v105h579zM1260 1661h159l-608 -1004v-657h-141v657l-609 1004h162l518 -873z" />
    <glyph glyph-name="uni0233" unicode="&#x233;" horiz-adv-x="1333" 
d="M961 1393v-105h-580v105h580zM1141 88h-2v-121q0 -215 -129.5 -324.5t-354.5 -109.5q-211 0 -362 66l-23 131q152 -70 357 -70q182 0 277 73.5t95 239.5v72q-161 -41 -344 -41q-241 0 -348.5 103.5t-107.5 314.5v700h143v-678q0 -166 82.5 -233.5t243.5 -67.5
q175 0 331 45v934h140v-1032z" />
    <glyph glyph-name="uni0237" unicode="&#x237;" horiz-adv-x="589" 
d="M78 -467q-51 0 -96 10l-21 129q45 -10 86 -10q116 0 158.5 62.5t42.5 232.5v1165h143v-1153q0 -249 -67 -342.5t-246 -93.5z" />
    <glyph glyph-name="uni0259" unicode="&#x259;" horiz-adv-x="1304" 
d="M623 1153q261 0 422 -162t161 -424v-2q0 -265 -158.5 -426.5t-418.5 -161.5q-242 0 -389.5 152t-147.5 401v74h969q-12 194 -132.5 308t-316.5 114q-212 0 -376 -92l-60 115q193 104 447 104zM631 102q181 0 293.5 101t134.5 278h-828q6 -173 114.5 -276t285.5 -103z" />
    <glyph glyph-name="circumflex" unicode="&#x2c6;" horiz-adv-x="874" 
d="M61 1370l308 291h141l303 -291h-154l-221 207l-221 -207h-156z" />
    <glyph glyph-name="caron" unicode="&#x2c7;" horiz-adv-x="874" 
d="M61 1671h156l221 -207l221 207h154l-303 -291h-141z" />
    <glyph glyph-name="breve" unicode="&#x2d8;" horiz-adv-x="808" 
d="M403 1360q-157 0 -240 67t-102 205h72q15 -105 82.5 -152.5t187.5 -47.5q121 0 188.5 47t84.5 153h72q-19 -137 -103.5 -204.5t-241.5 -67.5z" />
    <glyph glyph-name="dotaccent" unicode="&#x2d9;" horiz-adv-x="284" 
d="M143 1323q-52 0 -87.5 31t-35.5 84q0 50 35.5 82t87.5 32q51 0 86 -32t35 -82q0 -53 -35.5 -84t-85.5 -31z" />
    <glyph glyph-name="ring" unicode="&#x2da;" horiz-adv-x="542" 
d="M272 1329q-89 0 -150 56t-61 143t61 142.5t150 55.5t149 -55.5t60 -142.5t-60 -143t-149 -56zM272 1376q66 0 113 42t47 110q0 69 -47 111t-113 42t-112.5 -42t-46.5 -111q0 -68 46.5 -110t112.5 -42z" />
    <glyph glyph-name="ogonek" unicode="&#x2db;" horiz-adv-x="507" 
d="M319 -401q-79 0 -140 17.5t-100.5 60t-37.5 106.5q3 68 61.5 123t182.5 110l133 -12q-132 -59 -189.5 -104.5t-60.5 -104.5q-3 -62 47 -91.5t133 -29.5q11 0 23 1t25 3t20 3v-72q-45 -10 -97 -10z" />
    <glyph glyph-name="tilde" unicode="&#x2dc;" horiz-adv-x="806" 
d="M61 1393q14 101 64.5 160t130.5 59q56 0 105.5 -22.5t94 -45t87.5 -22.5q46 0 64 21.5t28 68.5h123q-14 -104 -63.5 -161.5t-127.5 -57.5q-55 0 -104 23.5t-94 47t-90 23.5q-46 0 -65.5 -23t-29.5 -71h-123z" />
    <glyph glyph-name="hungarumlaut" unicode="&#x2dd;" horiz-adv-x="944" 
d="M109 1313l223 291h164l-248 -291h-139zM541 1313l223 291h164l-248 -291h-139z" />
    <glyph glyph-name="gravecomb" unicode="&#x300;" 
d="M-172 1370l-291 291h137l265 -291h-111z" />
    <glyph glyph-name="acutecomb" unicode="&#x301;" 
d="M-449 1313l224 291h164l-248 -291h-140z" />
    <glyph glyph-name="uni0302" unicode="&#x302;" 
d="M-813 1370l307 291h141l304 -291h-154l-221 207l-221 -207h-156z" />
    <glyph glyph-name="tildecomb" unicode="&#x303;" 
d="M-745 1393q14 101 64 160t130 59q56 0 105.5 -22.5t94 -45t87.5 -22.5q46 0 64 21.5t28 68.5h123q-14 -104 -63.5 -161.5t-127.5 -57.5q-55 0 -104 23.5t-94 47t-90 23.5q-46 0 -65.5 -23t-29.5 -71h-122z" />
    <glyph glyph-name="uni0304" unicode="&#x304;" 
d="M-668 1395v86h607v-86h-607z" />
    <glyph glyph-name="uni0306" unicode="&#x306;" 
d="M-406 1360q-157 0 -240 67t-102 205h72q15 -105 82.5 -152.5t187.5 -47.5q121 0 188.5 47t84.5 153h72q-19 -137 -103.5 -204.5t-241.5 -67.5z" />
    <glyph glyph-name="uni0307" unicode="&#x307;" 
d="M-141 1325q-49 0 -84 31t-35 82q0 49 34.5 79.5t84.5 30.5q48 0 82 -31t34 -79q0 -51 -34 -82t-82 -31z" />
    <glyph glyph-name="uni0308" unicode="&#x308;" 
d="M-512 1350q-52 0 -87.5 31t-35.5 83t35.5 84.5t87.5 32.5q51 0 87 -33t36 -84q0 -52 -36.5 -83t-86.5 -31zM-176 1350q-53 0 -89 31t-36 83t36 84.5t89 32.5q51 0 86 -33t35 -84q0 -52 -36 -83t-85 -31z" />
    <glyph glyph-name="uni030A" unicode="&#x30a;" 
d="M-270 1329q-89 0 -150 56t-61 143t61 142.5t150 55.5t149 -55.5t60 -142.5t-60 -143t-149 -56zM-270 1376q66 0 112.5 42t46.5 110q0 69 -46.5 111t-112.5 42t-113 -42t-47 -111q0 -68 47 -110t113 -42z" />
    <glyph glyph-name="uni030B" unicode="&#x30b;" 
d="M-836 1313l224 291h163l-247 -291h-140zM-403 1313l223 291h164l-248 -291h-139z" />
    <glyph glyph-name="uni030C" unicode="&#x30c;" 
d="M-815 1671h156l221 -207l221 207h154l-304 -291h-141z" />
    <glyph glyph-name="uni0312" unicode="&#x312;" 
d="M-254 1507h90l27 -612h-139z" />
    <glyph glyph-name="uni0326" unicode="&#x326;" 
d="M-332 -451l125 367h135l-161 -367h-99z" />
    <glyph glyph-name="uni0327" unicode="&#x327;" 
d="M-289 -449q-81 0 -157 23l-7 82q79 -27 154 -27q160 0 160 92q0 80 -131 80q-59 0 -129 -26l-19 26l123 205h82l-80 -131q12 4 51 4q79 0 136 -40t57 -111q0 -85 -66 -131t-174 -46z" />
    <glyph glyph-name="uni0328" unicode="&#x328;" 
d="M-147 -401q-79 0 -140.5 17.5t-101 60t-37.5 106.5q3 68 61.5 123t182.5 110l133 -12q-132 -59 -189.5 -104.5t-60.5 -104.5q-3 -62 47 -91.5t133 -29.5q11 0 23 1t25 3t20 3v-72q-45 -10 -96 -10z" />
    <glyph glyph-name="uni0335" unicode="&#x335;" 
d="M-582 911h557v-114h-557v114z" />
    <glyph glyph-name="uni0336" unicode="&#x336;" 
d="M-1524 842v123h1524v-123h-1524z" />
    <glyph glyph-name="uni0337" unicode="&#x337;" 
d="M-696 657l-39 86l598 312l41 -86z" />
    <glyph glyph-name="uni0338" unicode="&#x338;" 
d="M-1669 -25l1544 1780l125 -51l-1544 -1784z" />
    <glyph glyph-name="uni0394" unicode="&#x394;" horiz-adv-x="1677" 
d="M27 0l741 1622h141l742 -1622h-1624zM236 135h1206l-602 1307z" />
    <glyph glyph-name="uni03A9" unicode="&#x3a9;" horiz-adv-x="1835" 
d="M1706 1006q0 -212 -124 -384t-331 -247v-240h379v-135h-522v442q212 50 331.5 196.5t119.5 360.5q0 161 -80.5 286t-226.5 194t-334 69q-284 0 -461.5 -152.5t-177.5 -396.5q0 -213 119.5 -360t326.5 -197v-442h-518v135h375v240q-207 75 -330 246.5t-123 384.5v2
q0 202 99.5 356.5t278.5 238t411 83.5q233 0 411.5 -83.5t277.5 -238t99 -356.5v-2z" />
    <glyph glyph-name="uni03BC" unicode="&#x3bc;" horiz-adv-x="1427" 
d="M1143 395q0 -278 235 -278v-140q-229 0 -317 134q-113 -134 -389 -134q-216 0 -330 84v-512h-143v1573h143q0 -119 1 -353.5t1 -352.5q0 -87 22.5 -146.5t67 -92.5t101.5 -46.5t137 -13.5q163 0 245 65t82 234v706h144v-727z" />
    <glyph glyph-name="pi" unicode="&#x3c0;" horiz-adv-x="1613" 
d="M270 0v987h-155v135h1376v-135h-170v-647q0 -123 32.5 -164t127.5 -41h24v-135h-39q-170 0 -229 61t-59 236v690h-764v-987h-144z" />
    <glyph glyph-name="uni060C" unicode="&#x60c;" horiz-adv-x="540" 
d="M422 561l-197 -559h-151l227 559h121z" />
    <glyph glyph-name="uni0615" unicode="&#x615;" 
d="M84 1296v394h106v-95h134q86 0 135 -46t49 -128v-125h-424zM190 1382h209v52q0 79 -86 79h-123v-131z" />
    <glyph glyph-name="uni061B" unicode="&#x61b;" horiz-adv-x="622" 
d="M502 1188l-197 -559h-151l227 559h121zM203 -20q-52 0 -88.5 31.5t-36.5 84.5q0 50 36.5 82.5t88.5 32.5t87.5 -32.5t35.5 -82.5q0 -53 -36.5 -84.5t-86.5 -31.5z" />
    <glyph glyph-name="uni061F" unicode="&#x61f;" horiz-adv-x="1093" 
d="M719 496h-139v254q-104 34 -184.5 78t-143 104.5t-96 142t-33.5 180.5v17q0 204 121.5 307.5t351.5 103.5q205 0 373 -71l24 -144q-178 78 -366 78q-175 0 -265 -75t-90 -224v-14q0 -68 22 -123t59 -95t96 -74t122.5 -57.5t149.5 -47.5zM651 -16q-50 0 -86.5 31.5
t-36.5 84.5q0 50 35.5 82.5t87.5 32.5t88.5 -32.5t36.5 -82.5q0 -53 -36.5 -84.5t-88.5 -31.5z" />
    <glyph glyph-name="uni0621" unicode="&#x621;" horiz-adv-x="970" 
d="M133 0v369q0 477 473 477h66v-139h-86q-320 0 -320 -322v-244h588v-141h-721z" />
    <glyph glyph-name="uni0622" unicode="&#x622;" horiz-adv-x="514" 
d="M78 1763v97h358v-97h-358zM186 0v1661h142v-1661h-142z" />
    <glyph glyph-name="uni0623" unicode="&#x623;" horiz-adv-x="514" 
d="M197 1679h209v-88h-297v129q0 97 50.5 154t145.5 57h33v-82h-39q-102 0 -102 -123v-47zM186 1395h142v-1372h-142v1372z" />
    <glyph glyph-name="uni0624" unicode="&#x624;" horiz-adv-x="1169" 
d="M918 1382v-110h-406v223q0 103 56 159t159 56h109v-86h-101q-129 0 -129 -125v-117h312zM756 1122h270v-1151q0 -225 -106 -323.5t-318 -98.5q-164 0 -346 68l-25 150q205 -76 365 -76q136 0 212.5 62t76.5 194v53h-146q-282 0 -454 152.5t-172 402.5v2q0 255 176.5 410
t466.5 155zM885 141v840h-156q-216 0 -348.5 -115.5t-132.5 -308.5v-2q0 -187 133 -300.5t348 -113.5h156z" />
    <glyph glyph-name="uni0625" unicode="&#x625;" horiz-adv-x="514" 
d="M186 0v1661h142v-1661h-142zM102 -483v129q0 96 51 153.5t146 57.5h45v-82h-51q-103 0 -103 -123v-49h222v-86h-310z" />
    <glyph glyph-name="uni0626" unicode="&#x626;" horiz-adv-x="2058" 
d="M1778 1382v-110h-406v223q0 103 56 159t159 56h109v-86h-101q-129 0 -129 -125v-117h312zM1556 1122h359v-1122h-139v987h-240q-146 0 -224.5 -87t-76.5 -228v-928h-537q-579 0 -579 541v469h139v-455q0 -414 469 -414h367v766q-1 231 121 351t341 120z" />
    <glyph glyph-name="uni0627" unicode="&#x627;" horiz-adv-x="514" 
d="M186 0v1661h142v-1661h-142z" />
    <glyph glyph-name="uni0628" unicode="&#x628;" horiz-adv-x="1589" 
d="M1305 1122h141v-1122h-748q-579 0 -579 541v393h139v-379q0 -414 469 -414h578v981zM874 -246q52 0 87.5 -32.5t35.5 -83.5q0 -53 -36.5 -85t-86.5 -32q-52 0 -88 31.5t-36 85.5q0 51 36 83.5t88 32.5z" />
    <glyph glyph-name="uni0629" unicode="&#x629;" horiz-adv-x="1169" 
d="M569 1395q-53 0 -88 31.5t-35 84.5q0 51 35 83t88 32q52 0 87.5 -32.5t35.5 -82.5q0 -52 -36 -84t-87 -32zM918 1395q-53 0 -88 31.5t-35 84.5q0 51 35 83t88 32q52 0 87 -32.5t35 -82.5q0 -52 -35.5 -84t-86.5 -32zM885 1122v103h141v-1225h-141h-146q-282 0 -454 152.5
t-172 402.5v2q0 255 176.5 410t466.5 155h129zM885 141v840h-156q-216 0 -348.5 -115.5t-132.5 -308.5v-2q0 -187 133 -300.5t348 -113.5h156z" />
    <glyph glyph-name="uni062A" unicode="&#x62a;" horiz-adv-x="1589" 
d="M629 1264q-53 0 -88 31.5t-35 84.5q0 51 35 83t88 32q52 0 87.5 -32.5t35.5 -82.5q0 -52 -36 -84t-87 -32zM977 1264q-53 0 -88 31.5t-35 84.5q0 51 35 83t88 32q52 0 87.5 -32.5t35.5 -82.5q0 -52 -36 -84t-87 -32zM1305 1122h141v-1122h-748q-579 0 -579 541v393h139
v-379q0 -414 469 -414h578v981z" />
    <glyph glyph-name="uni062B" unicode="&#x62b;" horiz-adv-x="1589" 
d="M803 1524q-46 0 -78.5 29t-32.5 77q0 44 32 73.5t79 29.5q46 0 78 -29.5t32 -73.5q0 -48 -32 -77t-78 -29zM629 1264q-49 0 -84 30.5t-35 81.5q0 49 34 81t85 32t86 -32t35 -81q0 -51 -35 -81.5t-86 -30.5zM852 1376q0 49 35 81t86 32t85 -32t34 -81q0 -51 -35 -81.5
t-84 -30.5q-51 0 -86 30.5t-35 81.5zM1305 1122h141v-1122h-748q-579 0 -579 541v393h139v-379q0 -414 469 -414h578v981z" />
    <glyph glyph-name="uni062C" unicode="&#x62c;" horiz-adv-x="1220" 
d="M580 1143q250 0 386 -155.5t136 -432.5q0 -123 -23 -275.5t-57 -279.5h-473q-98 0 -156.5 -43t-99.5 -145l-113 -279l-129 49l121 297q57 141 140.5 201.5t224.5 60.5h376q54 221 54 422q0 204 -106 320t-292 116q-91 0 -164.5 -21t-171.5 -77l-51 127q116 61 207.5 88
t190.5 27zM653 -305q52 0 87.5 -32.5t35.5 -82.5q0 -53 -36.5 -85t-86.5 -32q-52 0 -88.5 32t-36.5 85q0 50 36.5 82.5t88.5 32.5z" />
    <glyph glyph-name="uni062D" unicode="&#x62d;" horiz-adv-x="1220" 
d="M580 1143q250 0 386 -155.5t136 -432.5q0 -123 -23 -275.5t-57 -279.5h-473q-98 0 -156.5 -43t-99.5 -145l-113 -279l-129 49l121 297q57 141 140.5 201.5t224.5 60.5h376q54 221 54 422q0 204 -106 320t-292 116q-91 0 -164.5 -21t-171.5 -77l-51 127q116 61 207.5 88
t190.5 27z" />
    <glyph glyph-name="uni062E" unicode="&#x62e;" horiz-adv-x="1220" 
d="M618 1403q-52 0 -88 31.5t-36 85.5q0 51 36 83.5t88 32.5t87.5 -32.5t35.5 -83.5q0 -53 -36.5 -85t-86.5 -32zM580 1143q250 0 386 -155.5t136 -432.5q0 -123 -23 -275.5t-57 -279.5h-473q-98 0 -156.5 -43t-99.5 -145l-113 -279l-129 49l121 297q57 141 140.5 201.5
t224.5 60.5h376q54 221 54 422q0 204 -106 320t-292 116q-91 0 -164.5 -21t-171.5 -77l-51 127q116 61 207.5 88t190.5 27z" />
    <glyph glyph-name="uni062F" unicode="&#x62f;" horiz-adv-x="1071" 
d="M61 0v141h754v510q0 330 -321 330h-70v141h51q473 0 473 -477v-645h-887z" />
    <glyph glyph-name="uni0630" unicode="&#x630;" horiz-adv-x="1071" 
d="M506 1382q-52 0 -88.5 32t-36.5 85q0 51 36.5 84t88.5 33t87.5 -32.5t35.5 -84.5q0 -53 -36.5 -85t-86.5 -32zM61 0v141h754v510q0 330 -321 330h-70v141h51q473 0 473 -477v-645h-887z" />
    <glyph glyph-name="uni0631" unicode="&#x631;" horiz-adv-x="604" 
d="M127 -451q-68 0 -154 21l-10 123q85 -15 152 -15q101 0 154 55t53 179v1210h139v-1190q0 -143 -38.5 -228.5t-109.5 -120t-186 -34.5z" />
    <glyph glyph-name="uni0632" unicode="&#x632;" horiz-adv-x="604" 
d="M391 1382q-52 0 -88.5 32t-36.5 85q0 51 36.5 84t88.5 33t87.5 -32.5t35.5 -84.5q0 -53 -36.5 -85t-86.5 -32zM127 -451q-68 0 -154 21l-10 123q85 -15 152 -15q101 0 154 55t53 179v1210h139v-1190q0 -143 -38.5 -228.5t-109.5 -120t-186 -34.5z" />
    <glyph glyph-name="uni0633" unicode="&#x633;" horiz-adv-x="2795" 
d="M2533 1139h140v-656q0 -503 -484 -503q-156 0 -270.5 73.5t-149.5 198.5q-42 -121 -142 -186.5t-249 -65.5h-248v-256h-432q-285 0 -432 137t-147 400v700h141v-684q0 -412 461 -412h270v1096h139v-840h248q144 0 237 85.5t93 240.5v514h141v-532q0 -149 93 -237.5
t247 -88.5q164 0 254 88t90 260v668z" />
    <glyph glyph-name="uni0634" unicode="&#x634;" horiz-adv-x="2795" 
d="M1780 1487q-46 0 -78.5 29t-32.5 77q0 44 32 73.5t79 29.5q46 0 78 -29.5t32 -73.5q0 -48 -32 -77t-78 -29zM1606 1227q-49 0 -84 30.5t-35 81.5q0 49 34 81t85 32t85.5 -32t34.5 -81q0 -51 -34.5 -81.5t-85.5 -30.5zM1829 1339q0 49 35 81t86 32t84.5 -32t33.5 -81
q0 -51 -34.5 -81.5t-83.5 -30.5q-51 0 -86 30.5t-35 81.5zM2533 1139h140v-656q0 -503 -484 -503q-156 0 -270.5 73.5t-149.5 198.5q-42 -121 -142 -186.5t-249 -65.5h-248v-256h-432q-285 0 -432 137t-147 400v700h141v-684q0 -412 461 -412h270v1096h139v-840h248
q144 0 237 85.5t93 240.5v514h141v-532q0 -149 93 -237.5t247 -88.5q164 0 254 88t90 260v668z" />
    <glyph glyph-name="uni0635" unicode="&#x635;" horiz-adv-x="2367" 
d="M1667 1122q286 -1 433 -138.5t145 -401.5v-582h-1115v-256h-432q-285 0 -432 137t-147 400v700h141v-684q0 -412 461 -412h270v1344h142v-107h534zM2103 602q1 195 -111 286t-315 93h-544v-840h970v461z" />
    <glyph glyph-name="uni0636" unicode="&#x636;" horiz-adv-x="2367" 
d="M1647 1382q-52 0 -88.5 32t-36.5 85q0 51 36.5 84t88.5 33t87 -32.5t35 -84.5q0 -53 -36 -85t-86 -32zM1667 1122q286 -1 433 -138.5t145 -401.5v-582h-1115v-256h-432q-285 0 -432 137t-147 400v700h141v-684q0 -412 461 -412h270v1344h142v-107h534zM2103 602
q1 195 -111 286t-315 93h-544v-840h970v461z" />
    <glyph glyph-name="uni0637" unicode="&#x637;" horiz-adv-x="1710" 
d="M1010 1122q286 -1 432.5 -138.5t144.5 -401.5v-582h-1526l31 141h242v297h-2v1225h141v-434h2v-107h535zM1446 602q1 195 -111 286t-315 93h-545v-840h971v461z" />
    <glyph glyph-name="uni0638" unicode="&#x638;" horiz-adv-x="1710" 
d="M1010 1122q286 -1 432.5 -138.5t144.5 -401.5v-582h-1526l31 141h242v297h-2v1225h141v-434h2v-107h535zM1004 1382q-52 0 -88.5 32t-36.5 85q0 51 36.5 84t88.5 33t87 -32.5t35 -84.5q0 -53 -36 -85t-86 -32zM1446 602q1 195 -111 286t-315 93h-545v-840h971v461z" />
    <glyph glyph-name="uni0639" unicode="&#x639;" horiz-adv-x="1368" 
d="M1251 141v-141h-692q-98 0 -156.5 -43t-99.5 -145l-113 -279l-129 49l121 297q43 107 99.5 166t138.5 82q-133 288 -133 485q0 250 138 390.5t370 140.5q164 0 405 -107l-47 -129q-216 94 -348 94q-174 0 -278.5 -109t-104.5 -300q0 -100 41.5 -218.5t116.5 -232.5h671z
" />
    <glyph glyph-name="uni063A" unicode="&#x63a;" horiz-adv-x="1368" 
d="M799 1403q-52 0 -88.5 32t-36.5 85q0 51 36.5 83.5t88.5 32.5t87.5 -32.5t35.5 -83.5q0 -53 -36.5 -85t-86.5 -32zM1251 141v-141h-692q-98 0 -156.5 -43t-99.5 -145l-113 -279l-129 49l121 297q43 107 99.5 166t138.5 82q-133 288 -133 485q0 250 138 390.5t370 140.5
q164 0 405 -107l-47 -129q-216 94 -348 94q-174 0 -278.5 -109t-104.5 -300q0 -100 41.5 -218.5t116.5 -232.5h671z" />
    <glyph glyph-name="uni0640" unicode="&#x640;" horiz-adv-x="348" 
d="M0 0v141h389v-141h-389z" />
    <glyph glyph-name="uni0641" unicode="&#x641;" horiz-adv-x="1990" 
d="M1485 1382q-52 0 -88.5 32t-36.5 85q0 51 36.5 84t88.5 33t87.5 -32.5t35.5 -84.5q0 -53 -36.5 -85t-86.5 -32zM1577 1122h270v-1122h-8h-278h-863q-579 0 -579 541v393h139v-379q0 -414 469 -414h393q-186 153 -186 414v2q0 255 176.5 410t466.5 155zM1550 141h156v840
h-156q-216 0 -348.5 -115.5t-132.5 -308.5v-2q0 -187 133 -300.5t348 -113.5z" />
    <glyph glyph-name="uni0642" unicode="&#x642;" horiz-adv-x="1677" 
d="M1047 1368q-52 0 -87.5 32t-35.5 85q0 50 35 82t88 32q52 0 87 -32t35 -82q0 -53 -35.5 -85t-86.5 -32zM1395 1368q-52 0 -87.5 32t-35.5 85q0 50 35 82t88 32q52 0 87.5 -32t35.5 -82q0 -52 -36 -84.5t-87 -32.5zM1264 1122h270v-1573h-836q-579 0 -579 541v469h139
v-455q0 -413 469 -413h666v329h-146q-283 0 -454.5 144.5t-171.5 390.5v2q0 255 176.5 410t466.5 155zM1393 141v840h-156q-216 0 -348.5 -115.5t-132.5 -308.5v-2q0 -187 133 -300.5t348 -113.5h156z" />
    <glyph glyph-name="uni0643" unicode="&#x643;" horiz-adv-x="1634" 
d="M1305 1661h141v-1661h-748q-579 0 -579 541v393h139v-379q0 -414 469 -414h578v1520zM1016 1028v-110h-406v223q0 103 56 159t159 56h109v-86h-100q-129 0 -129 -125v-117h311z" />
    <glyph glyph-name="uni0644" unicode="&#x644;" horiz-adv-x="1318" 
d="M989 1663h141v-1919h-432q-285 0 -432 137t-147 400v700h141v-684q0 -412 461 -412h270v553h-2v1225z" />
    <glyph glyph-name="uni0645" unicode="&#x645;" horiz-adv-x="1785" 
d="M1143 981q246 0 396.5 -165.5t150.5 -438.5v-2q0 -266 -151 -431t-396 -165h-2q-231 0 -380 144t-169 384q-162 -7 -247 -113.5t-85 -297.5v-347h-141v369q0 250 123.5 387.5t349.5 143.5q22 243 170.5 387.5t378.5 144.5h2zM1548 379v2q0 206 -111 332.5t-294 126.5h-2
q-184 0 -296 -126.5t-112 -332.5v-2q0 -206 112 -331.5t296 -125.5h2q182 0 293.5 126t111.5 331z" />
    <glyph glyph-name="uni0646" unicode="&#x646;" horiz-adv-x="1273" 
d="M631 1241q-52 0 -88.5 32t-36.5 85q0 51 36.5 84t88.5 33t87.5 -32.5t35.5 -84.5q0 -53 -36.5 -85t-86.5 -32zM698 -256q-285 0 -432 137t-147 400v700h141v-684q0 -412 461 -412h270v1096h139v-1237h-432z" />
    <glyph glyph-name="uni0647" unicode="&#x647;" horiz-adv-x="1169" 
d="M885 1225h141v-1225h-141h-146q-282 0 -454 152.5t-172 402.5v2q0 255 176.5 410t466.5 155h129v103zM885 141v840h-156q-216 0 -348.5 -115.5t-132.5 -308.5v-2q0 -187 133 -300.5t348 -113.5h156z" />
    <glyph glyph-name="uni0648" unicode="&#x648;" horiz-adv-x="1169" 
d="M756 1122h270v-1151q0 -225 -106 -323.5t-318 -98.5q-164 0 -346 68l-25 150q205 -76 365 -76q136 0 212.5 62t76.5 194v53h-146q-282 0 -454 152.5t-172 402.5v2q0 255 176.5 410t466.5 155zM885 141v840h-156q-216 0 -348.5 -115.5t-132.5 -308.5v-2q0 -187 133 -300.5
t348 -113.5h156z" />
    <glyph glyph-name="uni0649" unicode="&#x649;" horiz-adv-x="2058" 
d="M1556 1122h359v-1122h-139v987h-240q-146 0 -224.5 -87t-76.5 -228v-928h-537q-579 0 -579 541v469h139v-455q0 -414 469 -414h367v766q-1 231 121 351t341 120z" />
    <glyph glyph-name="uni064A" unicode="&#x64a;" horiz-adv-x="2058" 
d="M1556 1122h359v-1122h-139v987h-240q-146 0 -224.5 -87t-76.5 -228v-928h-537q-579 0 -579 541v469h139v-455q0 -414 469 -414h367v766q-1 231 121 351t341 120zM651 -502q52 0 87.5 -33t35.5 -83q0 -51 -36 -83t-87 -32q-52 0 -87.5 32t-35.5 83t35 83.5t88 32.5z
M999 -502q52 0 87.5 -33t35.5 -83q0 -51 -36 -83t-87 -32q-52 0 -87 32t-35 83t34.5 83.5t87.5 32.5z" />
    <glyph glyph-name="uni064B" unicode="&#x64b;" 
d="M20 1675v49l408 62v-49zM23 1495v49l407 62v-50z" />
    </font>
</defs>
</svg>
