<svg xmlns="http://www.w3.org/2000/svg" width="80" height="80" viewBox="0 0 80 80">
  <g id="doc" transform="translate(-1223 -7123)">
    <rect id="Rectangle_242" data-name="Rectangle 242" width="80" height="80" rx="40" transform="translate(1223 7123)" fill="#0263d1" opacity="0.1"/>
    <g id="_011-word" data-name="011-word" transform="translate(1250 7145)">
      <g id="Vrstva_x0020_1_29_" transform="translate(0)">
        <path id="Path_3214" data-name="Path 3214" d="M104.394,0h12.048l10.2,10.636V31.319A4.685,4.685,0,0,1,121.954,36h-17.56a4.684,4.684,0,0,1-4.681-4.681V4.681A4.684,4.684,0,0,1,104.394,0Z" transform="translate(-99.713)" fill="#0263d1"/>
        <g id="Group_506" data-name="Group 506" transform="translate(7.921)">
          <path id="Path_3215" data-name="Path 3215" d="M467.2,0V10.553h10.214Z" transform="translate(-458.406)" fill="#fff" opacity="0.302"/>
          <path id="Path_3216" data-name="Path 3216" d="M284.155,378.659h-9.493a.789.789,0,1,1,0-1.579h9.493a.789.789,0,1,1,0,1.579Zm-3.164,9.493h-6.329a.789.789,0,1,1,0-1.579h6.329a.789.789,0,1,1,0,1.579Zm3.164-3.164h-9.493a.789.789,0,1,1,0-1.579h9.493a.789.789,0,1,1,0,1.579Zm0-3.164h-9.493a.789.789,0,1,1,0-1.579h9.493a.789.789,0,1,1,0,1.579Z" transform="translate(-273.865 -359.928)" fill="#fff"/>
        </g>
      </g>
    </g>
  </g>
</svg>
