<svg xmlns="http://www.w3.org/2000/svg" width="80" height="80" viewBox="0 0 80 80">
  <g id="pdf" transform="translate(-684 -7123)">
    <rect id="Rectangle_235" data-name="Rectangle 235" width="80" height="80" rx="40" transform="translate(684 7123)" fill="#e5252a" opacity="0.1"/>
    <g id="_006-pdf" data-name="006-pdf" transform="translate(711 7145)">
      <g id="Vrstva_x0020_1_15_" transform="translate(0 0)">
        <path id="Path_3199" data-name="Path 3199" d="M104.46,0H116.5l10.2,10.633V31.313A4.682,4.682,0,0,1,122.019,36H104.46a4.684,4.684,0,0,1-4.687-4.687V4.687A4.684,4.684,0,0,1,104.46,0Z" transform="translate(-99.773 0)" fill="#e5252a"/>
        <g id="Group_501" data-name="Group 501" transform="translate(5.208 0)">
          <path id="Path_3200" data-name="Path 3200" d="M467.219,0V10.552h10.21Z" transform="translate(-455.714)" fill="#fff" opacity="0.302"/>
          <path id="Path_3201" data-name="Path 3201" d="M214.278,452.535v-6.576h2.8a2.319,2.319,0,0,1,1.655.576,2.194,2.194,0,0,1,0,3.058,2.319,2.319,0,0,1-1.655.576H215.96v2.366Zm1.682-3.8h.927a.829.829,0,0,0,.585-.18.695.695,0,0,0,0-.99.829.829,0,0,0-.585-.18h-.927Zm4.084,3.8v-6.576h2.33a4.067,4.067,0,0,1,1.3.2,3.482,3.482,0,0,1,1.1.585,2.582,2.582,0,0,1,.774,1.026,4.065,4.065,0,0,1,0,2.959,2.582,2.582,0,0,1-.774,1.026,3.485,3.485,0,0,1-1.1.585,4.07,4.07,0,0,1-1.3.2Zm1.646-1.43h.486a2.7,2.7,0,0,0,.729-.09,2.184,2.184,0,0,0,.621-.3,1.333,1.333,0,0,0,.45-.576,2.555,2.555,0,0,0,0-1.79,1.334,1.334,0,0,0-.45-.576,2.184,2.184,0,0,0-.621-.3,2.7,2.7,0,0,0-.729-.09h-.486Zm4.975,1.43v-6.576h4.678v1.43h-3v1.052h2.393v1.421h-2.393v2.672Z" transform="translate(-214.278 -425.674)" fill="#fff"/>
        </g>
      </g>
    </g>
  </g>
</svg>
