<svg xmlns="http://www.w3.org/2000/svg" width="80" height="80" viewBox="0 0 80 80">
  <g id="ppt" transform="translate(-576 -7123)">
    <rect id="Rectangle_234" data-name="Rectangle 234" width="80" height="80" rx="40" transform="translate(576 7123)" fill="#e03303" opacity="0.1"/>
    <g id="_005-powerpoint" data-name="005-powerpoint" transform="translate(603 7145)">
      <g id="Vrstva_x0020_1_17_" transform="translate(0 0)">
        <path id="Path_3196" data-name="Path 3196" d="M104.434,0h12.041l10.2,10.635V31.319A4.69,4.69,0,0,1,122,36H104.434a4.683,4.683,0,0,1-4.681-4.681V4.681A4.676,4.676,0,0,1,104.434,0Z" transform="translate(-99.753 0)" fill="#e03303"/>
        <g id="Group_500" data-name="Group 500" transform="translate(8.2 0)">
          <path id="Path_3197" data-name="Path 3197" d="M467.136,0V10.547h10.215Z" transform="translate(-458.625)" fill="#fff" opacity="0.302"/>
          <path id="Path_3198" data-name="Path 3198" d="M284.844,371.989a5.049,5.049,0,1,0,5.279,5.29.23.23,0,0,0-.232-.243H285.32a.244.244,0,0,1-.243-.232v-4.582A.227.227,0,0,0,284.844,371.989Zm1.217-.741v4.571a.227.227,0,0,0,.232.232h4.582a.236.236,0,0,0,.232-.243,5.042,5.042,0,0,0-4.8-4.792A.23.23,0,0,0,286.061,371.248Z" transform="translate(-280.03 -354.138)" fill="#fff"/>
        </g>
      </g>
    </g>
  </g>
</svg>
