<svg xmlns="http://www.w3.org/2000/svg" width="80" height="80" viewBox="0 0 80 80">
  <g id="zip" transform="translate(-792 -7123)">
    <rect id="Rectangle_236" data-name="Rectangle 236" width="80" height="80" rx="40" transform="translate(792 7123)" fill="#ffb11f" opacity="0.1"/>
    <g id="_007-zip" data-name="007-zip" transform="translate(819 7145)">
      <g id="Vrstva_x0020_1_31_" transform="translate(0 0)">
        <path id="Path_3202" data-name="Path 3202" d="M104.434,0h12.041l10.2,10.635V31.319A4.69,4.69,0,0,1,122,36H104.434a4.683,4.683,0,0,1-4.681-4.681V4.681A4.676,4.676,0,0,1,104.434,0Z" transform="translate(-99.753 0)" fill="#ffb11f"/>
        <g id="Group_502" data-name="Group 502" transform="translate(5.832 0)">
          <path id="Path_3203" data-name="Path 3203" d="M467.136,0V10.547h10.215Z" transform="translate(-456.257)" fill="#fff" opacity="0.302"/>
          <path id="Path_3204" data-name="Path 3204" d="M232.056,72.581V70.124a.472.472,0,0,0-.476-.476h-1.328a.472.472,0,0,0-.476.476v2.457l-.741,2.169a1.989,1.989,0,1,0,3.763,0Zm-.31,3.409a1.062,1.062,0,0,1-1.671,0,1.03,1.03,0,0,1-.133-.93l.243-.73h1.45l.255.73A1.033,1.033,0,0,1,231.746,75.99Zm-3.774-19.533v1.35a.472.472,0,0,0,.476.476h1.8V60.3h-1.8a.472.472,0,0,0-.476.476v1.04a.482.482,0,0,0,.476.487h1.8v2h-1.8a.472.472,0,0,0-.476.476v1.051a.472.472,0,0,0,.476.476h1.8v1.527a.482.482,0,0,0,.487.476h2.645a.479.479,0,0,0,.476-.476V66.782a.487.487,0,0,0-.476-.476h-1.815v-2h1.815a.479.479,0,0,0,.476-.476V62.776a.479.479,0,0,0-.476-.476h-1.815v-2h1.815a.489.489,0,0,0,.476-.487V58.77a.489.489,0,0,0-.476-.487h-1.815V56.446Z" transform="translate(-227.972 -53.878)" fill="#fff"/>
        </g>
      </g>
    </g>
  </g>
</svg>
